<svg xmlns="http://www.w3.org/2000/svg" xmlns:xlink="http://www.w3.org/1999/xlink" zoomAndPan="magnify" preserveAspectRatio="xMidYMid meet" version="1.0" viewBox="157.55 158.94 60 57"><defs><clipPath id="id1"><path d="M 184 158.9375 L 217.554688 158.9375 L 217.554688 180 L 184 180 Z M 184 158.9375 " clip-rule="nonzero"/></clipPath><clipPath id="id2"><path d="M 157.554688 159 L 217.554688 159 L 217.554688 215.9375 L 157.554688 215.9375 Z M 157.554688 159 " clip-rule="nonzero"/></clipPath><clipPath id="id3"><path d="M 162.214844 175.671875 L 198.148438 175.671875 L 198.148438 213.875 L 162.214844 213.875 Z M 162.214844 175.671875 " clip-rule="nonzero"/></clipPath><clipPath id="id4"><path d="M 178.09375 195.953125 C 177.949219 195.964844 177.894531 196.03125 177.953125 196.15625 L 177.980469 196.183594 C 178.058594 196.21875 178.097656 196.195312 178.203125 196.175781 L 178.328125 196.15625 C 178.441406 196.125 178.382812 196.203125 178.414062 196.097656 L 178.414062 196.066406 L 178.382812 196.007812 C 178.359375 196.007812 178.324219 196.011719 178.300781 196.007812 C 178.242188 196 178.269531 196 178.242188 195.980469 L 178.125 195.980469 Z M 175.648438 195.382812 C 175.617188 195.28125 175.523438 195.308594 175.246094 195.238281 C 175 195.171875 175.140625 195.074219 174.871094 195.0625 L 174.800781 195.039062 L 174.753906 195.035156 L 174.726562 195.007812 C 174.613281 194.9375 174.652344 194.890625 174.558594 194.832031 C 174.496094 194.796875 174.34375 194.769531 174.265625 194.75 L 174.238281 194.722656 C 174.148438 194.703125 174.152344 194.6875 174.0625 194.664062 L 174.03125 194.636719 C 173.90625 194.609375 173.8125 194.519531 173.710938 194.5 C 173.636719 194.488281 173.566406 194.5 173.488281 194.492188 C 173.375 194.476562 173.414062 194.449219 173.285156 194.4375 C 173.199219 194.429688 173.1875 194.441406 173.109375 194.4375 L 172.988281 194.410156 L 172.941406 194.410156 L 172.910156 194.433594 C 172.839844 194.453125 172.839844 194.449219 172.765625 194.464844 C 172.632812 194.492188 172.726562 194.460938 172.621094 194.519531 C 172.53125 194.570312 172.449219 194.589844 172.386719 194.667969 L 172.363281 194.691406 C 172.300781 194.828125 172.328125 194.984375 172.5625 194.835938 L 172.582031 194.824219 L 172.855469 194.667969 L 172.882812 194.636719 C 173.078125 194.59375 172.984375 194.582031 173.121094 194.683594 C 173.320312 194.835938 173.179688 194.625 173.683594 194.871094 C 173.789062 194.925781 173.792969 194.949219 173.976562 194.953125 C 174 194.953125 174.035156 194.953125 174.0625 194.957031 C 174.117188 194.964844 174.09375 194.964844 174.121094 194.980469 C 174.324219 195.089844 174.222656 195.125 174.367188 195.195312 C 174.425781 195.222656 174.460938 195.21875 174.535156 195.257812 C 174.609375 195.296875 174.605469 195.308594 174.667969 195.351562 C 174.621094 195.421875 174.398438 195.601562 174.6875 195.609375 L 174.726562 195.582031 C 174.832031 195.484375 175.097656 195.523438 175.324219 195.523438 C 175.347656 195.511719 175.277344 195.496094 175.414062 195.5 C 175.53125 195.5 175.441406 195.488281 175.476562 195.523438 L 175.589844 195.523438 L 175.617188 195.496094 L 175.648438 195.4375 Z M 177.152344 195.6875 C 177.078125 195.617188 177.101562 195.609375 177 195.582031 L 176.949219 195.554688 L 176.859375 195.554688 C 176.855469 195.558594 176.792969 195.648438 176.792969 195.554688 C 176.574219 195.53125 176.730469 195.457031 176.433594 195.535156 C 176.265625 195.582031 176.171875 195.511719 176.023438 195.492188 L 175.992188 195.492188 C 175.9375 195.511719 175.945312 195.5 175.90625 195.523438 C 175.914062 195.835938 176.078125 195.574219 176.136719 195.777344 L 176.164062 195.808594 L 176.164062 195.910156 C 176.074219 195.992188 175.820312 195.953125 175.703125 195.921875 L 175.648438 195.921875 C 175.597656 195.960938 175.542969 196.027344 175.613281 196.097656 C 175.660156 196.144531 175.792969 196.128906 175.878906 196.125 L 176.394531 196.152344 L 176.394531 196.238281 C 176.417969 196.332031 176.496094 196.382812 176.605469 196.339844 C 176.710938 196.296875 176.699219 196.214844 176.742188 196.125 C 177.15625 196.125 176.9375 196.066406 177.261719 196.066406 L 177.289062 196.042969 C 177.3125 196.050781 177.3125 196.050781 177.34375 196.070312 C 177.363281 196.082031 177.410156 196.117188 177.414062 196.121094 C 177.503906 196.171875 177.488281 196.179688 177.550781 196.097656 L 177.550781 196.011719 C 177.507812 195.949219 177.5 195.9375 177.460938 195.867188 L 177.433594 195.839844 C 177.375 195.808594 177.402344 195.820312 177.316406 195.808594 L 177.292969 195.78125 C 177.203125 195.738281 177.226562 195.761719 177.152344 195.6875 Z M 195.148438 188.457031 L 194.917969 188.457031 C 194.890625 188.476562 194.910156 188.46875 194.859375 188.484375 C 194.851562 188.484375 194.820312 188.484375 194.804688 188.484375 C 194.691406 188.488281 194.554688 188.539062 194.46875 188.582031 C 194.347656 188.640625 194.304688 188.710938 194.171875 188.742188 L 194.140625 188.773438 C 194.046875 188.773438 194.011719 188.78125 193.929688 188.753906 C 193.808594 188.71875 193.878906 188.714844 193.765625 188.6875 L 193.738281 188.65625 C 193.609375 188.628906 193.558594 188.625 193.449219 188.574219 L 193.421875 188.542969 L 193.390625 188.515625 C 193.265625 188.453125 193.195312 188.46875 193.164062 188.601562 L 193.164062 188.828125 L 193.132812 188.859375 C 193.109375 188.945312 193.109375 188.921875 193.042969 188.96875 C 192.980469 189.011719 192.984375 188.996094 192.925781 189.050781 C 192.847656 189.117188 192.785156 189.179688 192.730469 189.257812 L 192.703125 189.285156 C 192.625 189.398438 192.527344 189.589844 192.53125 189.773438 L 192.53125 190.058594 L 192.527344 190.203125 C 192.433594 190.226562 192.429688 190.257812 192.363281 190.324219 C 192.300781 190.386719 192.257812 190.421875 192.210938 190.488281 L 192.183594 190.515625 L 192.09375 190.632812 L 192.066406 190.660156 C 192.023438 190.722656 191.96875 190.792969 191.921875 190.859375 L 191.894531 190.898438 C 191.828125 191.003906 191.777344 191.101562 191.707031 191.214844 C 191.628906 191.34375 191.5625 191.433594 191.492188 191.546875 L 191.460938 191.578125 C 191.382812 191.695312 191.246094 191.8125 191.175781 191.917969 C 191.175781 191.964844 191.1875 191.953125 191.144531 191.953125 C 191.109375 192 191.082031 192.023438 191.039062 192.070312 C 191 192.117188 190.972656 192.160156 190.945312 192.207031 L 190.914062 192.234375 C 190.882812 192.292969 190.875 192.300781 190.859375 192.378906 L 190.828125 192.40625 C 190.800781 192.523438 190.753906 192.679688 190.742188 192.808594 C 190.730469 192.992188 190.789062 193.085938 190.800781 193.234375 L 190.828125 193.265625 C 190.859375 193.386719 190.9375 193.515625 191 193.605469 L 191.03125 193.636719 L 191.03125 193.664062 L 191.058594 193.691406 C 191.085938 193.800781 191.113281 193.820312 191.117188 193.957031 C 191.144531 193.996094 191.179688 194.042969 191.117188 194.089844 C 191.117188 194.25 191.070312 194.328125 191.058594 194.464844 L 191.03125 194.496094 L 191.03125 194.523438 L 191 194.554688 C 190.925781 194.660156 190.839844 194.667969 190.828125 194.808594 L 190.828125 194.894531 C 190.839844 195.039062 190.929688 195.042969 191 195.152344 C 190.972656 195.257812 190.972656 195.191406 190.945312 195.296875 L 190.914062 195.324219 C 190.894531 195.59375 190.867188 195.609375 191.050781 195.789062 C 191.171875 195.90625 191.269531 196.007812 191.347656 196.152344 L 191.378906 196.183594 C 191.441406 196.308594 191.480469 196.367188 191.558594 196.484375 C 191.601562 196.546875 191.625 196.589844 191.664062 196.640625 C 191.707031 196.699219 191.738281 196.722656 191.777344 196.78125 L 191.8125 196.8125 L 191.835938 196.839844 L 191.894531 196.898438 L 191.925781 196.925781 L 191.953125 196.953125 L 191.980469 196.984375 L 192.007812 197.011719 L 192.042969 197.039062 L 192.066406 197.070312 L 192.097656 197.097656 C 192.1875 197.15625 192.296875 197.257812 192.386719 197.328125 C 192.488281 197.40625 192.566406 197.496094 192.664062 197.59375 C 192.714844 197.640625 192.746094 197.667969 192.796875 197.71875 C 193.074219 198.007812 192.875 197.964844 193.332031 197.929688 L 193.394531 197.898438 C 193.542969 197.898438 193.660156 197.855469 193.796875 197.84375 C 193.945312 197.832031 194.132812 197.84375 194.285156 197.84375 C 194.3125 197.824219 194.296875 197.828125 194.34375 197.816406 C 194.355469 197.8125 194.386719 197.816406 194.402344 197.816406 L 194.511719 197.8125 C 194.554688 197.785156 194.472656 197.8125 194.574219 197.785156 C 194.582031 197.785156 194.613281 197.785156 194.632812 197.785156 C 194.769531 197.78125 194.820312 197.738281 194.941406 197.726562 C 194.941406 197.6875 194.933594 197.699219 194.976562 197.699219 C 195.082031 197.691406 195.113281 197.664062 195.207031 197.640625 L 195.234375 197.613281 C 195.449219 197.566406 195.542969 197.484375 195.753906 197.585938 L 195.8125 197.640625 C 195.890625 197.683594 195.894531 197.695312 196.015625 197.699219 C 196.058594 197.699219 196.050781 197.6875 196.050781 197.726562 C 196.164062 197.757812 196.230469 197.816406 196.285156 197.914062 C 196.355469 198.039062 196.332031 198.15625 196.332031 198.328125 L 196.300781 198.359375 C 196.277344 198.464844 196.253906 198.4375 196.246094 198.558594 L 196.214844 198.585938 L 196.214844 198.644531 L 196.1875 198.675781 C 196.1875 198.816406 196.160156 198.828125 196.160156 198.929688 C 196.15625 199.042969 196.1875 199.066406 196.1875 199.214844 L 196.214844 199.246094 L 196.214844 199.304688 L 196.246094 199.359375 L 196.273438 199.46875 L 196.300781 199.5 L 196.386719 199.785156 L 196.417969 199.816406 L 196.417969 199.890625 L 196.445312 199.929688 C 196.457031 200.070312 196.503906 200.109375 196.503906 200.273438 L 196.53125 200.304688 L 196.53125 200.40625 C 196.550781 200.441406 196.539062 200.375 196.558594 200.476562 C 196.5625 200.492188 196.5625 200.539062 196.5625 200.558594 L 196.5625 200.988281 C 196.5625 201.03125 196.5625 201.027344 196.554688 201.066406 L 196.542969 201.085938 C 196.542969 201.082031 196.535156 201.097656 196.53125 201.101562 L 196.539062 201.1875 L 196.503906 201.238281 C 196.496094 201.351562 196.46875 201.378906 196.445312 201.476562 L 196.417969 201.503906 C 196.394531 201.601562 196.34375 201.679688 196.300781 201.761719 C 196.300781 201.804688 196.3125 201.796875 196.273438 201.796875 C 196.199219 201.917969 196.050781 202.214844 196.011719 202.363281 L 195.984375 202.390625 C 195.964844 202.484375 195.9375 202.515625 195.929688 202.621094 C 195.929688 202.664062 195.941406 202.652344 195.898438 202.652344 C 195.871094 202.761719 195.824219 202.902344 195.8125 203.019531 L 195.785156 203.078125 C 195.777344 203.289062 195.699219 203.449219 195.699219 203.707031 C 195.699219 203.828125 195.691406 203.773438 195.667969 203.800781 C 195.667969 203.996094 195.640625 204.082031 195.640625 204.257812 C 197.234375 201.472656 198.148438 198.246094 198.148438 194.808594 C 198.148438 193.253906 197.960938 191.738281 197.609375 190.289062 C 197.601562 190.292969 197.59375 190.296875 197.585938 190.304688 C 197.578125 190.308594 197.453125 190.363281 197.445312 190.367188 C 197.324219 190.417969 197.3125 190.378906 197.195312 190.316406 L 197.164062 190.289062 C 197.085938 190.234375 197.046875 190.175781 196.96875 190.113281 C 196.890625 190.050781 196.8125 190 196.734375 189.945312 L 196.707031 189.917969 C 196.535156 189.828125 196.441406 189.699219 196.332031 189.546875 C 196.289062 189.546875 196.300781 189.558594 196.300781 189.515625 C 196.25 189.410156 196.210938 189.277344 196.160156 189.171875 L 196.128906 189.144531 C 196.089844 188.996094 195.917969 188.816406 195.804688 188.722656 C 195.683594 188.621094 195.460938 188.507812 195.265625 188.484375 C 195.226562 188.484375 195.222656 188.484375 195.1875 188.476562 C 195.179688 188.476562 195.167969 188.476562 195.164062 188.46875 C 195.164062 188.460938 195.152344 188.460938 195.148438 188.457031 Z M 193.824219 184.539062 C 193.675781 184.542969 193.667969 184.570312 193.574219 184.632812 C 193.460938 184.710938 193.417969 184.679688 193.25 184.679688 L 193.21875 184.652344 C 193.113281 184.628906 193.023438 184.550781 192.925781 184.648438 C 192.828125 184.742188 192.910156 184.832031 192.960938 184.910156 L 193.105469 184.910156 L 193.132812 184.9375 C 193.253906 184.964844 193.351562 185.054688 193.417969 185.140625 C 193.488281 185.234375 193.570312 185.324219 193.628906 185.417969 C 193.722656 185.5625 193.929688 185.992188 193.742188 186.140625 L 193.710938 186.167969 C 193.464844 186.226562 193.457031 186.164062 193.25 186.171875 L 193.195312 186.140625 C 193.109375 186.121094 193.152344 186.148438 193.105469 186.089844 C 193.0625 186.089844 193.074219 186.097656 193.074219 186.054688 C 193.042969 185.933594 193.027344 185.941406 192.882812 185.941406 C 192.882812 185.980469 192.890625 185.96875 192.84375 185.96875 C 192.761719 186.007812 192.761719 185.988281 192.671875 185.96875 C 192.625 185.96875 192.632812 185.980469 192.632812 185.941406 L 192.585938 185.941406 L 192.554688 185.910156 C 192.394531 185.832031 192.339844 185.929688 192.238281 185.996094 C 192.238281 186.230469 192.296875 186.175781 192.3125 186.316406 C 192.328125 186.460938 192.261719 186.433594 192.34375 186.636719 C 192.476562 186.96875 192.28125 187.113281 192.238281 187.253906 L 192.238281 187.371094 L 192.382812 187.542969 L 192.410156 187.570312 L 192.414062 187.59375 C 192.453125 187.59375 192.441406 187.585938 192.441406 187.628906 L 192.441406 187.800781 C 192.441406 187.851562 192.457031 187.84375 192.414062 187.84375 C 192.414062 188 192.429688 188.058594 192.558594 188.082031 C 192.617188 188.09375 192.675781 188.089844 192.742188 188.101562 C 192.828125 188.117188 192.863281 188.128906 192.933594 188.140625 C 192.980469 188.140625 192.972656 188.128906 192.972656 188.171875 C 193.109375 188.214844 193.144531 188.40625 193.320312 188.363281 C 193.476562 188.324219 193.425781 188.183594 193.738281 188.167969 L 193.789062 188.199219 L 194.027344 188.199219 L 194.054688 188.171875 C 194.203125 188.136719 194.195312 188.113281 194.257812 188 L 194.285156 187.96875 C 194.300781 187.8125 194.296875 187.855469 194.292969 187.710938 C 194.289062 187.605469 194.335938 187.542969 194.34375 187.425781 L 194.371094 187.371094 C 194.378906 187.074219 194.664062 187.191406 194.757812 186.949219 C 194.8125 186.808594 194.714844 186.664062 194.839844 186.628906 C 194.949219 186.601562 194.96875 186.734375 195.0625 186.796875 L 195.097656 186.828125 C 195.433594 186.828125 195.242188 186.679688 195.503906 186.625 C 195.515625 186.609375 195.558594 186.539062 195.558594 186.625 C 195.722656 186.671875 195.746094 186.886719 195.785156 187.054688 L 195.8125 187.085938 C 195.832031 187.160156 195.839844 187.167969 195.871094 187.226562 L 195.898438 187.253906 C 195.980469 187.40625 196.101562 187.5 196.222656 187.621094 C 196.359375 187.757812 196.425781 187.84375 196.53125 188 L 196.5625 188.027344 C 196.582031 188.070312 196.59375 188.09375 196.621094 188.132812 C 196.660156 188.132812 196.648438 188.125 196.648438 188.171875 C 196.664062 188.234375 196.675781 188.253906 196.691406 188.328125 C 196.722656 188.472656 196.664062 188.460938 196.761719 188.488281 L 196.792969 188.488281 C 196.886719 188.46875 196.832031 188.523438 196.851562 188.429688 C 196.851562 188.300781 196.835938 188.300781 196.878906 188.222656 C 196.9375 188.214844 196.929688 188.214844 196.96875 188.207031 C 196.949219 188.144531 196.925781 188.082031 196.902344 188.019531 L 196.820312 187.945312 L 196.792969 187.914062 L 196.761719 187.886719 C 196.738281 187.785156 196.644531 187.679688 196.589844 187.597656 L 196.535156 187.542969 C 196.40625 187.359375 196.285156 187.328125 196.160156 187.082031 L 196.128906 187.054688 C 196.097656 186.996094 196.082031 186.980469 196.070312 186.898438 C 196.027344 186.898438 196.042969 186.90625 196.042969 186.855469 L 196.042969 186.828125 C 196.074219 186.78125 196.042969 186.78125 196.074219 186.828125 C 196.160156 186.886719 196.238281 187.003906 196.3125 187.101562 C 196.386719 187.195312 196.523438 187.292969 196.660156 187.417969 C 196.136719 186.183594 195.488281 185.011719 194.730469 183.925781 C 194.714844 183.945312 194.6875 183.976562 194.6875 183.90625 C 194.542969 183.894531 194.648438 183.886719 194.515625 183.851562 L 194.488281 183.824219 L 194.257812 183.824219 C 194.210938 184.015625 194.199219 183.941406 194.3125 184.070312 L 194.339844 184.109375 L 194.339844 184.164062 L 194.3125 184.199219 C 194.203125 184.242188 194.082031 184.164062 193.953125 184.234375 C 193.851562 184.289062 193.777344 184.4375 193.824219 184.539062 Z M 192.269531 183.363281 C 192.269531 182.980469 192.222656 183.191406 192.164062 183.011719 C 192.097656 182.824219 192.167969 182.546875 191.808594 182.535156 L 191.777344 182.507812 L 191.75 182.476562 C 191.539062 182.480469 191.554688 182.558594 191.636719 182.679688 C 191.394531 182.679688 191.542969 182.636719 191.375 182.59375 C 191.332031 182.65625 191.339844 182.621094 191.320312 182.703125 L 191.347656 182.738281 L 191.375 182.765625 C 191.390625 182.945312 191.441406 182.878906 191.492188 183.019531 C 191.542969 183.164062 191.488281 183.222656 191.503906 183.328125 C 191.523438 183.425781 191.613281 183.492188 191.699219 183.5 C 191.835938 183.515625 191.738281 183.445312 192.039062 183.453125 L 192.097656 183.453125 C 192.230469 183.4375 192.175781 183.425781 192.269531 183.363281 Z M 192.613281 183.335938 L 192.613281 183.460938 C 192.644531 183.496094 192.628906 183.410156 192.636719 183.511719 C 192.644531 183.628906 192.652344 183.53125 192.613281 183.570312 L 192.613281 183.820312 L 192.640625 183.851562 C 192.667969 183.933594 192.65625 183.898438 192.703125 183.96875 L 192.726562 183.996094 L 192.789062 184.050781 C 192.929688 184.125 192.960938 184.128906 193.113281 184.117188 C 193.289062 184.101562 193.285156 184.164062 193.480469 184.167969 L 193.511719 184.195312 L 193.535156 184.195312 L 193.566406 184.222656 C 193.730469 184.222656 193.796875 184.175781 193.738281 184.050781 L 193.710938 184.023438 C 193.703125 183.644531 193.578125 183.761719 193.460938 183.582031 C 193.421875 183.523438 193.390625 183.421875 193.355469 183.34375 C 193.304688 183.246094 193.273438 183.1875 193.21875 183.105469 L 193.191406 183.078125 C 193.007812 182.753906 192.726562 182.660156 192.648438 182.414062 C 192.605469 182.269531 192.625 182.207031 192.472656 182.160156 L 192.445312 182.132812 C 192.132812 182.128906 192.421875 181.949219 192.238281 181.820312 L 192.203125 181.789062 C 192.101562 181.789062 192.089844 181.800781 192.011719 181.820312 C 191.988281 181.90625 191.980469 181.90625 191.980469 182.023438 L 192.007812 182.046875 L 192.011719 182.105469 L 191.980469 182.15625 L 191.980469 182.269531 L 192.007812 182.304688 C 192.109375 182.445312 192.109375 182.339844 192.210938 182.472656 L 192.238281 182.507812 C 192.359375 182.671875 192.25 182.722656 192.390625 182.8125 C 192.488281 182.875 192.484375 182.820312 192.566406 182.898438 C 192.613281 182.941406 192.585938 182.960938 192.671875 183.023438 L 192.699219 183.050781 C 192.789062 183.097656 192.757812 183.113281 192.757812 183.25 C 192.703125 183.289062 192.679688 183.300781 192.613281 183.335938 Z M 181.007812 178.328125 C 181.09375 178.460938 181.273438 178.554688 181.410156 178.644531 L 181.4375 178.671875 C 181.550781 178.75 181.5625 178.792969 181.640625 178.894531 L 181.667969 178.929688 C 181.695312 179.035156 181.695312 178.96875 181.726562 179.074219 L 181.753906 179.101562 L 181.753906 179.121094 C 181.796875 179.121094 181.785156 179.109375 181.785156 179.160156 L 181.839844 179.273438 L 181.871094 179.300781 C 181.996094 179.492188 182.140625 179.652344 182.335938 179.78125 C 182.488281 179.886719 182.789062 180.070312 183.023438 180.074219 L 183.082031 180.101562 L 183.195312 180.097656 L 183.246094 180.132812 L 183.625 180.132812 L 183.683594 180.105469 L 183.808594 180.101562 C 183.855469 180.0625 184.015625 180.054688 184.054688 180.101562 L 184.144531 180.101562 L 184.175781 180.132812 C 184.300781 180.160156 184.332031 180.210938 184.414062 180.296875 C 184.484375 180.371094 184.519531 180.449219 184.605469 180.503906 C 184.757812 180.601562 185.019531 180.613281 185.152344 180.359375 L 185.183594 180.332031 C 185.269531 179.953125 185.289062 179.730469 185.097656 179.445312 L 185.066406 179.417969 L 185.070312 179.386719 L 185.097656 179.359375 C 185.226562 179.355469 185.242188 179.347656 185.300781 179.273438 L 185.328125 179.242188 C 185.359375 179.113281 185.359375 179.175781 185.328125 179.050781 C 185.285156 179.050781 185.296875 179.058594 185.296875 179.015625 C 185.253906 178.921875 185.269531 178.835938 185.269531 178.699219 L 185.296875 178.671875 L 185.414062 178.558594 L 185.441406 178.53125 L 185.457031 178.53125 C 185.457031 178.484375 185.449219 178.5 185.5 178.5 C 185.609375 178.492188 185.636719 178.472656 185.789062 178.472656 C 185.9375 178.46875 185.949219 178.445312 186.070312 178.445312 C 186.070312 178.402344 186.058594 178.414062 186.105469 178.414062 C 186.363281 178.355469 186.539062 178.136719 186.652344 177.929688 L 186.679688 177.902344 C 186.734375 177.851562 186.746094 177.824219 186.839844 177.8125 C 186.863281 177.800781 186.84375 177.804688 186.910156 177.789062 C 186.921875 177.785156 186.953125 177.785156 186.96875 177.785156 C 187.175781 177.777344 187.199219 177.648438 187.273438 177.574219 C 184.867188 176.417969 182.183594 175.738281 179.34375 175.671875 L 179.417969 175.695312 L 179.480469 175.695312 L 179.507812 175.726562 C 179.613281 175.734375 179.644531 175.761719 179.738281 175.78125 C 179.789062 175.78125 179.777344 175.769531 179.777344 175.8125 L 179.824219 175.8125 L 179.851562 175.839844 C 179.980469 175.871094 180.136719 175.964844 180.230469 176.035156 C 180.539062 176.261719 180.707031 176.738281 181.292969 176.722656 L 181.34375 176.753906 C 181.40625 176.765625 181.394531 176.761719 181.4375 176.785156 L 181.46875 176.8125 L 181.5 176.898438 L 181.433594 176.898438 C 181.375 176.941406 181.332031 176.949219 181.269531 176.898438 C 181.046875 176.898438 180.832031 176.820312 180.636719 176.925781 L 180.601562 176.957031 C 180.5625 177.015625 180.53125 177.035156 180.542969 177.152344 C 180.550781 177.222656 180.585938 177.285156 180.640625 177.320312 C 180.789062 177.417969 180.890625 177.304688 181.066406 177.300781 L 181.121094 177.265625 L 181.25 177.269531 C 181.292969 177.230469 181.304688 177.238281 181.378906 177.238281 C 181.460938 177.238281 181.488281 177.226562 181.523438 177.269531 L 181.550781 177.300781 L 181.523438 177.328125 L 181.457031 177.328125 L 181.378906 177.359375 C 181.191406 177.363281 180.984375 177.535156 180.949219 177.699219 L 180.917969 177.726562 L 180.917969 177.757812 C 180.917969 177.804688 180.933594 177.792969 180.890625 177.792969 L 180.890625 178.128906 L 180.917969 178.15625 C 180.9375 178.230469 180.945312 178.242188 180.976562 178.296875 Z M 178.796875 179.902344 C 178.75 179.890625 178.722656 179.90625 178.757812 179.875 C 178.792969 179.839844 178.863281 179.921875 178.796875 179.902344 Z M 176.710938 178.644531 L 176.570312 178.785156 C 176.488281 178.839844 176.496094 178.871094 176.40625 178.902344 L 176.339844 178.925781 C 176.207031 178.941406 176.199219 178.992188 176.195312 179.128906 C 176.242188 179.179688 176.257812 179.195312 176.339844 179.214844 C 176.316406 179.304688 176.34375 179.257812 176.273438 179.300781 L 176.195312 179.332031 L 176.042969 179.332031 L 175.992188 179.359375 C 175.8125 179.359375 175.867188 179.386719 175.730469 179.417969 L 175.707031 179.417969 C 175.574219 179.40625 175.601562 179.367188 175.5 179.363281 C 175.398438 179.355469 175.402344 179.394531 175.300781 179.417969 L 175.273438 179.441406 C 175.164062 179.472656 175.152344 179.503906 175.042969 179.53125 C 175.042969 179.800781 175.175781 179.722656 175.425781 179.753906 C 175.671875 179.785156 175.722656 179.65625 175.878906 179.617188 L 175.90625 179.589844 L 175.957031 179.589844 L 175.992188 179.5625 C 176.152344 179.542969 176.054688 179.554688 176.222656 179.5625 L 176.25 179.589844 C 176.480469 179.695312 176.28125 179.558594 176.742188 179.816406 C 176.917969 179.914062 176.800781 179.9375 176.914062 180.078125 L 176.945312 180.101562 L 177.375 180.105469 L 177.402344 180.132812 L 177.433594 180.160156 L 177.457031 180.1875 C 177.492188 180.289062 177.476562 180.277344 177.578125 180.304688 L 177.722656 180.304688 L 177.894531 180.300781 L 177.945312 180.332031 C 178.089844 180.367188 177.976562 180.386719 178.183594 180.390625 L 178.214844 180.417969 L 178.269531 180.449219 L 178.300781 180.476562 C 178.363281 180.507812 178.421875 180.519531 178.460938 180.433594 C 178.507812 180.320312 178.433594 180.285156 178.382812 180.25 C 178.253906 180.152344 178.1875 180.09375 178.007812 180.042969 L 177.980469 180.019531 C 177.894531 180.015625 177.871094 180.011719 177.808594 179.984375 C 177.738281 179.957031 177.714844 179.933594 177.691406 179.875 L 177.835938 179.875 L 177.941406 179.902344 L 178.039062 179.902344 L 178.066406 179.929688 C 178.1875 179.941406 178.203125 179.976562 178.328125 179.988281 L 178.355469 180.019531 C 178.414062 180.03125 178.46875 180.039062 178.542969 180.058594 C 178.640625 180.082031 178.644531 180.101562 178.757812 180.101562 C 178.820312 180.011719 178.804688 180.082031 178.816406 179.960938 C 178.90625 180.019531 178.835938 180.007812 178.960938 180.019531 C 179.003906 179.824219 178.972656 179.785156 178.816406 179.703125 L 178.785156 179.675781 L 178.757812 179.644531 L 178.730469 179.617188 C 178.65625 179.566406 178.671875 179.550781 178.574219 179.515625 C 178.5 179.488281 178.449219 179.484375 178.375 179.453125 C 178.21875 179.390625 178.15625 179.328125 178.039062 179.242188 L 178.011719 179.214844 C 177.914062 179.191406 177.953125 179.207031 177.894531 179.140625 L 177.867188 179.101562 C 177.890625 178.992188 177.878906 179.003906 177.953125 178.964844 L 177.976562 179.074219 C 178.011719 179.109375 177.929688 179.105469 178.039062 179.097656 C 178.101562 179.09375 178.0625 179.097656 178.097656 179.074219 C 178.097656 179.046875 178.09375 179.011719 178.097656 178.988281 C 178.117188 178.863281 178.097656 178.972656 178.125 178.917969 L 178.125 178.871094 C 178.210938 178.894531 178.210938 178.910156 178.296875 178.933594 L 178.351562 178.960938 C 178.480469 179.023438 178.476562 179.042969 178.671875 179.046875 L 178.699219 179.074219 L 178.699219 179.128906 C 178.738281 179.269531 178.769531 179.242188 178.929688 179.246094 L 178.960938 179.273438 C 179.023438 179.339844 179.03125 179.355469 179.160156 179.359375 C 179.207031 179.265625 179.171875 179.238281 179.214844 179.160156 C 179.214844 179.160156 179.277344 179.0625 179.277344 179.160156 L 179.421875 179.160156 C 179.648438 179.132812 179.863281 178.738281 179.574219 178.746094 C 179.285156 178.75 179.445312 178.703125 179.261719 178.660156 C 179.046875 178.609375 179.332031 178.722656 178.902344 178.613281 L 178.875 178.585938 L 178.84375 178.558594 C 178.804688 178.558594 178.8125 178.570312 178.8125 178.53125 L 178.757812 178.5 L 178.730469 178.472656 C 178.625 178.449219 178.421875 178.417969 178.296875 178.410156 L 178.265625 178.386719 C 178.066406 178.273438 178.210938 178.328125 177.949219 178.300781 C 177.746094 178.28125 177.863281 178.203125 177.894531 178.070312 L 177.921875 178.042969 C 177.9375 177.871094 178 177.929688 178.097656 177.871094 L 178.097656 177.785156 L 178.058594 177.757812 L 178.007812 177.753906 L 177.984375 177.726562 L 177.628906 177.757812 L 177.578125 177.785156 L 177.515625 177.769531 C 177.578125 177.65625 177.535156 177.566406 177.394531 177.601562 C 177.230469 177.636719 177.523438 177.679688 177.105469 177.570312 C 176.894531 177.515625 176.980469 177.472656 176.859375 177.40625 C 176.730469 177.335938 176.675781 177.429688 176.542969 177.441406 C 176.539062 177.449219 176.476562 177.539062 176.476562 177.441406 L 176.40625 177.441406 C 176.402344 177.445312 176.394531 177.453125 176.386719 177.453125 L 176.367188 177.464844 C 176.347656 177.472656 176.335938 177.46875 176.308594 177.46875 L 176.195312 177.46875 L 176.136719 177.441406 L 176.050781 177.441406 L 176.050781 177.355469 C 176.140625 177.355469 176.214844 177.359375 176.191406 177.25 C 176.171875 177.171875 176.097656 177.167969 176.023438 177.125 L 175.996094 177.097656 C 175.875 177.097656 175.882812 177.105469 175.796875 177.128906 L 175.761719 177.15625 C 175.585938 177.160156 175.648438 177.207031 175.476562 177.214844 L 175.445312 177.242188 C 175.226562 177.261719 175.316406 177.441406 175.070312 177.441406 L 175.042969 177.414062 C 174.898438 177.226562 174.765625 177.382812 174.597656 177.414062 C 174.585938 177.4375 174.546875 177.496094 174.546875 177.414062 C 174.480469 177.277344 174.652344 177.101562 174.4375 177.039062 L 174.320312 177.039062 C 174.222656 177.070312 174.257812 177.0625 174.191406 177.128906 C 174.171875 177.140625 174.175781 177.140625 174.132812 177.144531 C 174.09375 177.148438 174.097656 177.164062 174.097656 177.128906 L 174.035156 177.128906 L 174.003906 177.097656 C 173.890625 177.097656 173.886719 177.109375 173.804688 177.128906 L 173.773438 177.15625 C 173.609375 177.246094 173.691406 177.203125 173.601562 177.355469 C 173.550781 177.441406 173.488281 177.472656 173.429688 177.558594 C 173.449219 177.632812 173.425781 177.582031 173.457031 177.644531 L 173.511719 177.699219 C 173.546875 177.742188 173.542969 177.632812 173.542969 177.785156 C 173.527344 177.792969 173.449219 177.859375 173.371094 177.816406 C 173.367188 177.8125 173.273438 177.75 173.371094 177.75 C 173.359375 177.699219 173.363281 177.707031 173.34375 177.667969 L 173.308594 177.644531 C 172.980469 177.613281 173.398438 177.027344 172.988281 177.257812 C 172.964844 177.273438 172.960938 177.3125 172.765625 177.328125 L 172.738281 177.355469 C 172.589844 177.390625 172.542969 177.347656 172.503906 177.472656 L 172.476562 177.5 C 172.390625 177.617188 172.40625 177.496094 172.359375 177.644531 L 172.335938 177.667969 C 172.285156 177.75 172.253906 177.765625 172.304688 177.871094 L 172.332031 177.898438 C 172.371094 177.921875 172.363281 177.917969 172.421875 177.929688 L 172.449219 177.902344 L 172.566406 177.902344 L 172.601562 177.929688 L 172.738281 177.929688 L 172.765625 177.902344 L 172.851562 177.898438 L 172.828125 177.957031 L 172.765625 177.984375 L 172.738281 177.984375 L 172.628906 177.957031 C 172.246094 177.957031 172.386719 178.191406 172.527344 178.179688 L 172.996094 178.101562 L 173.035156 178.128906 L 173.21875 178.128906 L 173.257812 178.101562 L 173.3125 178.101562 L 173.351562 178.128906 L 173.441406 178.128906 L 173.488281 178.09375 L 173.660156 178.101562 L 173.691406 178.128906 L 173.804688 178.128906 L 173.832031 178.101562 C 173.980469 178.097656 174.167969 178.109375 174.269531 178.078125 C 174.445312 178.023438 174.402344 177.945312 174.574219 177.898438 L 174.777344 177.898438 L 174.8125 177.871094 L 174.980469 177.722656 C 175.019531 177.851562 175.09375 177.832031 175.214844 177.871094 C 175.363281 177.917969 175.328125 177.980469 175.503906 177.988281 C 175.609375 177.988281 175.558594 177.980469 175.613281 178.015625 C 175.703125 178.019531 175.804688 178.117188 176.023438 178.214844 C 176.089844 178.246094 176.109375 178.265625 176.167969 178.300781 C 176.441406 178.457031 176.445312 178.316406 176.683594 178.605469 Z M 175.15625 189.523438 C 175.164062 189.273438 175.242188 189.027344 175.328125 188.859375 L 175.359375 188.832031 L 175.417969 188.773438 C 175.476562 188.746094 175.519531 188.730469 175.589844 188.714844 L 175.617188 188.6875 C 175.816406 188.550781 175.753906 188.496094 175.871094 188.308594 C 175.96875 188.15625 176.050781 188.09375 176.195312 188 L 176.222656 187.972656 C 176.429688 187.832031 176.601562 187.660156 176.742188 187.457031 L 176.769531 187.425781 C 176.878906 187.234375 176.964844 187.0625 177.144531 186.941406 L 177.175781 186.914062 C 177.277344 186.859375 177.441406 186.753906 177.578125 186.742188 L 177.605469 186.710938 L 177.671875 186.710938 L 177.722656 186.679688 C 177.941406 186.691406 178.097656 186.664062 178.238281 186.597656 L 178.269531 186.570312 C 178.398438 186.535156 178.449219 186.441406 178.613281 186.425781 L 178.644531 186.398438 L 178.671875 186.398438 L 178.699219 186.367188 C 178.875 186.355469 178.785156 186.355469 178.960938 186.367188 C 178.929688 186.480469 178.847656 186.511719 178.738281 186.539062 C 178.738281 186.582031 178.746094 186.570312 178.699219 186.570312 C 178.523438 186.609375 178.359375 186.695312 178.355469 186.910156 L 178.382812 186.941406 C 178.429688 187.117188 178.65625 187.136719 178.761719 187 C 178.800781 186.945312 178.824219 186.886719 178.878906 186.832031 C 178.953125 186.761719 178.988281 186.757812 179.078125 186.710938 L 179.105469 186.683594 C 179.207031 186.660156 179.1875 186.636719 179.304688 186.625 C 179.304688 186.585938 179.292969 186.597656 179.335938 186.597656 L 179.414062 186.597656 L 179.480469 186.570312 C 179.679688 186.570312 179.75 186.550781 179.910156 186.511719 C 179.929688 186.425781 179.941406 186.425781 179.941406 186.3125 L 179.851562 186.253906 L 179.824219 186.226562 L 179.6875 186.226562 C 179.617188 186.265625 179.570312 186.265625 179.484375 186.246094 L 179.441406 186.226562 C 179.230469 186.226562 179.03125 186.089844 178.945312 185.953125 C 178.886719 185.859375 178.882812 185.789062 178.820312 185.707031 C 178.746094 185.601562 178.691406 185.59375 178.585938 185.539062 L 178.558594 185.511719 L 178.648438 185.453125 C 178.675781 185.433594 178.652344 185.441406 178.703125 185.429688 C 178.726562 185.421875 178.765625 185.425781 178.789062 185.425781 C 178.921875 185.414062 178.867188 185.402344 178.960938 185.339844 C 178.960938 185.289062 178.964844 185.1875 178.957031 185.144531 C 178.933594 185.046875 178.925781 185.066406 178.84375 185.023438 C 178.71875 185.023438 178.789062 185.019531 178.761719 184.996094 L 178.625 184.996094 C 178.605469 185.003906 178.601562 185.011719 178.554688 185.023438 C 178.546875 185.023438 178.511719 185.023438 178.5 185.027344 C 178.472656 185.027344 178.417969 185.023438 178.382812 185.023438 C 178.191406 185.023438 178.160156 185.066406 178.011719 185.082031 L 177.980469 185.109375 C 177.816406 185.125 177.554688 185.269531 177.453125 185.359375 C 177.324219 185.476562 177.214844 185.667969 177.03125 185.710938 L 177.03125 185.625 L 177.058594 185.59375 C 177.128906 185.496094 177.214844 185.414062 177.324219 185.34375 C 177.390625 185.300781 177.566406 185.164062 177.605469 185.109375 L 177.632812 185.078125 L 177.664062 185.054688 C 177.808594 184.953125 177.925781 184.871094 178.125 184.824219 L 178.152344 184.796875 C 178.273438 184.785156 178.355469 184.738281 178.46875 184.710938 L 178.5 184.679688 C 178.554688 184.652344 178.613281 184.628906 178.691406 184.625 C 178.691406 184.582031 178.683594 184.59375 178.730469 184.59375 C 178.863281 184.59375 178.980469 184.566406 179.160156 184.566406 C 179.351562 184.566406 179.441406 184.59375 179.59375 184.597656 L 179.621094 184.625 C 179.761719 184.625 179.746094 184.648438 179.855469 184.652344 C 179.976562 184.652344 179.972656 184.625 180.117188 184.625 L 180.167969 184.59375 C 180.304688 184.585938 180.453125 184.480469 180.546875 184.421875 L 180.574219 184.394531 C 180.65625 184.351562 180.703125 184.3125 180.820312 184.308594 C 180.820312 184.265625 180.8125 184.28125 180.863281 184.28125 C 181.148438 184.28125 181.265625 184.289062 181.433594 184.164062 C 181.433594 184.125 181.421875 184.132812 181.464844 184.132812 L 181.496094 184.109375 L 181.523438 184.078125 C 181.644531 183.902344 181.671875 183.835938 181.667969 183.535156 C 181.667969 183.425781 181.671875 183.300781 181.667969 183.191406 C 181.660156 183.054688 181.621094 183.003906 181.609375 182.878906 L 181.582031 182.847656 L 181.582031 182.828125 L 181.554688 182.792969 L 181.496094 182.679688 L 181.464844 182.648438 L 181.433594 182.621094 L 181.351562 182.535156 L 181.320312 182.507812 C 181.253906 182.460938 181.207031 182.414062 181.121094 182.390625 L 181.089844 182.363281 C 180.816406 182.300781 180.71875 182.289062 180.433594 182.363281 C 180.433594 182.402344 180.445312 182.390625 180.402344 182.390625 C 180.179688 182.410156 180.003906 182.472656 179.820312 182.339844 C 179.644531 182.214844 179.652344 182.101562 179.59375 181.886719 C 179.550781 181.886719 179.566406 181.894531 179.566406 181.847656 C 179.53125 181.785156 179.515625 181.761719 179.480469 181.707031 L 179.445312 181.679688 L 179.417969 181.652344 L 179.390625 181.621094 L 179.304688 181.5625 L 179.277344 181.53125 C 179.171875 181.457031 179.246094 181.519531 179.207031 181.375 C 179.175781 181.28125 179.164062 181.261719 179.105469 181.21875 L 179.074219 181.191406 C 178.910156 181.109375 178.738281 181.164062 178.65625 181.289062 C 178.464844 181.574219 178.25 181.703125 177.855469 181.601562 C 177.652344 181.550781 177.582031 181.515625 177.492188 181.367188 C 177.449219 181.367188 177.460938 181.378906 177.460938 181.332031 L 177.460938 181.300781 C 177.421875 181.25 177.445312 181.316406 177.433594 181.21875 C 177.429688 181.199219 177.433594 181.132812 177.433594 181.105469 C 177.371094 180.84375 177.183594 180.8125 176.972656 180.703125 L 176.941406 180.675781 C 176.851562 180.613281 176.8125 180.535156 176.683594 180.503906 L 176.65625 180.476562 C 176.5625 180.429688 176.445312 180.386719 176.308594 180.390625 L 176.050781 180.390625 C 175.910156 180.386719 175.929688 180.414062 175.816406 180.417969 C 175.6875 180.421875 175.726562 180.390625 175.589844 180.390625 C 175.511719 180.390625 175.402344 180.410156 175.367188 180.359375 C 175.242188 180.335938 175.261719 180.289062 175.148438 180.320312 C 175.140625 180.320312 175.054688 180.371094 175.054688 180.371094 C 174.992188 180.4375 175.027344 180.328125 175.011719 180.476562 L 175.011719 180.558594 C 175.023438 180.660156 175.035156 180.6875 175.042969 180.816406 C 175.050781 180.945312 175.078125 180.992188 175.09375 181.082031 C 175.140625 181.375 175.003906 181.308594 174.898438 181.503906 L 174.871094 181.535156 C 174.871094 181.78125 174.863281 181.808594 175.03125 181.917969 C 175.144531 181.992188 175.25 182.054688 175.289062 182.203125 C 175.378906 182.53125 175.050781 182.78125 174.871094 182.878906 L 174.839844 182.90625 C 174.636719 183.015625 174.464844 183.109375 174.496094 183.449219 C 174.507812 183.585938 174.550781 183.664062 174.554688 183.820312 C 174.558594 184.019531 174.53125 184.078125 174.496094 184.222656 L 174.464844 184.25 C 174.328125 184.460938 174.074219 184.515625 173.917969 184.28125 L 173.890625 184.25 C 173.816406 184.113281 173.792969 184.039062 173.75 183.875 C 173.726562 183.773438 173.691406 183.523438 173.6875 183.414062 L 173.65625 183.363281 C 173.632812 183.246094 173.527344 183.082031 173.449219 183.003906 C 173.414062 182.96875 173.316406 182.902344 173.285156 182.878906 C 173.21875 182.835938 173.171875 182.800781 173.082031 182.792969 L 173.054688 182.765625 C 172.914062 182.765625 172.929688 182.738281 172.824219 182.738281 C 172.699219 182.734375 172.710938 182.765625 172.5625 182.765625 L 172.535156 182.792969 L 172.46875 182.792969 C 172.410156 182.84375 172.289062 182.835938 172.21875 182.792969 L 172.074219 182.792969 L 171.992188 182.765625 C 171.789062 182.765625 171.714844 182.707031 171.527344 182.707031 L 171.472656 182.679688 C 171.34375 182.667969 171.078125 182.558594 170.980469 182.503906 L 170.953125 182.476562 C 170.855469 182.414062 170.648438 182.148438 170.597656 182.03125 C 170.554688 181.933594 170.519531 181.832031 170.515625 181.703125 C 170.515625 181.527344 170.566406 181.480469 170.578125 181.332031 L 170.605469 181.300781 L 170.605469 181.277344 L 170.632812 181.246094 C 170.65625 181.207031 170.667969 181.171875 170.695312 181.132812 C 170.726562 181.078125 170.742188 181.074219 170.777344 181.019531 C 170.777344 180.976562 170.765625 180.988281 170.808594 180.988281 C 170.855469 180.921875 170.871094 180.914062 170.894531 180.816406 C 170.894531 180.773438 170.882812 180.785156 170.921875 180.785156 L 170.921875 180.761719 L 170.953125 180.734375 C 170.976562 180.628906 170.984375 180.617188 171.0625 180.554688 C 171.113281 180.511719 171.175781 180.464844 171.238281 180.445312 L 171.269531 180.417969 L 171.292969 180.417969 L 171.324219 180.390625 C 171.46875 180.378906 171.464844 180.332031 171.632812 180.332031 C 171.632812 180.289062 171.621094 180.304688 171.671875 180.304688 C 171.816406 180.300781 171.890625 180.246094 172.015625 180.21875 L 172.046875 180.191406 C 172.203125 180.152344 172.519531 179.957031 172.59375 179.847656 C 172.574219 179.761719 172.597656 179.804688 172.535156 179.761719 L 172.476562 179.761719 L 172.421875 179.757812 L 172.476562 179.730469 C 172.738281 179.507812 172.804688 179.269531 172.980469 179.234375 C 173.128906 179.207031 173.183594 179.34375 173.359375 179.292969 C 173.460938 179.261719 173.421875 179.230469 173.527344 179.199219 C 173.601562 179.175781 173.695312 179.1875 173.773438 179.1875 L 173.804688 179.160156 L 173.828125 179.160156 L 173.859375 179.128906 C 173.917969 179.101562 173.914062 179.105469 173.96875 179.0625 C 174.042969 179.007812 173.984375 179.015625 174.089844 178.988281 L 174.121094 178.960938 C 174.289062 178.917969 174.242188 178.734375 174.136719 178.65625 C 174.03125 178.570312 173.953125 178.476562 173.859375 178.414062 L 173.828125 178.386719 L 173.773438 178.386719 C 173.726562 178.386719 173.738281 178.398438 173.738281 178.359375 L 173.578125 178.359375 L 173.542969 178.386719 C 173.433594 178.414062 173.425781 178.449219 173.308594 178.472656 L 173.257812 178.503906 C 172.957031 178.570312 173.289062 178.824219 172.902344 178.902344 L 172.851562 178.933594 C 172.640625 178.925781 172.671875 179.007812 172.449219 178.902344 C 172.535156 178.789062 172.578125 178.875 172.59375 178.699219 L 172.59375 178.671875 C 172.578125 178.496094 172.421875 178.511719 172.300781 178.550781 C 172.164062 178.59375 172.148438 178.660156 172.015625 178.730469 L 171.960938 178.671875 L 171.929688 178.644531 L 171.902344 178.617188 C 171.832031 178.554688 171.785156 178.523438 171.644531 178.527344 C 171.519531 178.53125 171.457031 178.558594 171.386719 178.621094 C 171.210938 178.78125 171.34375 178.875 171.066406 179.015625 L 170.894531 179.1875 L 170.863281 179.214844 C 170.816406 179.308594 170.785156 179.363281 170.691406 179.417969 C 170.550781 179.496094 170.53125 179.457031 170.375 179.445312 C 170.332031 179.445312 170.34375 179.457031 170.34375 179.417969 C 170.1875 179.378906 170.210938 179.359375 170 179.359375 L 169.914062 179.359375 C 169.558594 179.359375 169.539062 179.480469 169.304688 179.53125 L 169.25 179.5625 C 169.132812 179.558594 169.035156 179.601562 168.929688 179.613281 C 168.8125 179.625 168.652344 179.617188 168.53125 179.617188 L 168.503906 179.644531 L 168.394531 179.644531 L 168.328125 179.675781 C 168.0625 179.695312 167.929688 179.875 167.695312 179.929688 L 167.667969 179.960938 C 167.535156 179.992188 167.46875 180.042969 167.3125 180.046875 L 167.265625 180.078125 C 167.132812 180.074219 167.113281 180.105469 167.007812 180.132812 L 166.976562 180.160156 L 166.898438 180.160156 L 166.859375 180.1875 C 166.726562 180.191406 166.667969 180.234375 166.542969 180.246094 C 166.523438 180.246094 166.390625 180.25 166.371094 180.246094 L 166.363281 180.246094 C 164.71875 181.640625 163.3125 183.308594 162.214844 185.175781 C 162.253906 185.195312 162.296875 185.234375 162.339844 185.304688 L 162.363281 185.339844 C 162.386719 185.417969 162.40625 185.488281 162.425781 185.570312 L 162.453125 185.597656 C 162.464844 185.730469 162.507812 185.730469 162.539062 185.839844 C 162.582031 185.839844 162.570312 185.832031 162.570312 185.882812 L 162.710938 186.164062 C 162.753906 186.164062 162.742188 186.152344 162.742188 186.195312 C 162.769531 186.320312 162.84375 186.417969 162.855469 186.5625 L 162.882812 186.597656 C 162.894531 186.828125 162.972656 186.976562 162.941406 187.28125 C 162.929688 187.363281 162.898438 187.5 162.875 187.585938 C 162.835938 187.722656 162.78125 187.757812 162.769531 187.886719 L 162.742188 187.914062 C 162.730469 188.039062 162.691406 188.046875 162.6875 188.171875 L 162.65625 188.25 L 162.660156 188.3125 L 162.625 188.363281 C 162.625 188.503906 162.605469 188.515625 162.597656 188.65625 C 162.589844 188.796875 162.566406 188.835938 162.566406 188.945312 L 162.625 189.523438 L 162.660156 189.574219 L 162.65625 189.636719 L 162.683594 189.714844 C 162.691406 189.839844 162.730469 189.851562 162.742188 189.972656 L 162.769531 190.003906 C 162.78125 190.125 162.84375 190.191406 162.855469 190.335938 L 162.882812 190.375 C 162.886719 190.472656 162.898438 190.507812 162.910156 190.582031 C 162.921875 190.679688 162.921875 190.738281 162.925781 190.777344 C 162.945312 190.941406 162.988281 191.003906 163.117188 191.089844 L 163.144531 191.117188 C 163.363281 191.167969 163.671875 191.339844 163.691406 191.574219 C 163.707031 191.597656 163.707031 191.589844 163.71875 191.632812 C 163.722656 191.644531 163.71875 191.675781 163.71875 191.691406 C 163.722656 191.933594 163.75 192.09375 163.828125 192.273438 C 163.878906 192.398438 163.894531 192.382812 163.972656 192.472656 C 164.035156 192.542969 164.082031 192.613281 164.125 192.691406 L 164.152344 192.722656 C 164.21875 193.515625 164.179688 193.144531 164.476562 193.429688 C 164.570312 193.515625 164.585938 193.527344 164.644531 193.636719 L 164.671875 193.664062 C 164.695312 193.914062 164.789062 194.109375 164.925781 194.300781 L 164.988281 194.378906 L 165.160156 194.550781 L 165.191406 194.578125 C 165.230469 194.601562 165.214844 194.609375 165.269531 194.59375 C 165.390625 194.558594 165.304688 194.605469 165.335938 194.523438 L 165.335938 194.464844 C 165.28125 194.390625 165.210938 194.3125 165.160156 194.234375 L 165.132812 194.207031 L 165.132812 194.179688 L 165.105469 194.152344 C 165.074219 194.089844 165.054688 194.039062 165.046875 193.953125 L 165.015625 193.921875 L 165.015625 193.777344 L 164.988281 193.691406 C 164.980469 193.589844 164.953125 193.558594 164.929688 193.464844 L 164.902344 193.4375 L 164.902344 193.414062 L 164.875 193.378906 C 164.832031 193.214844 164.652344 192.945312 164.527344 192.863281 L 164.5 192.835938 L 164.46875 192.808594 C 164.429688 192.808594 164.4375 192.820312 164.4375 192.777344 C 164.390625 192.699219 164.308594 192.589844 164.296875 192.472656 C 164.253906 192.472656 164.265625 192.480469 164.265625 192.433594 C 164.265625 192.328125 164.230469 192.222656 164.222656 192.109375 C 164.21875 192.058594 164.21875 192.023438 164.234375 191.972656 C 164.265625 191.867188 164.25 191.890625 164.320312 191.863281 C 164.328125 191.855469 164.390625 191.757812 164.390625 191.863281 C 164.488281 191.894531 164.523438 191.988281 164.527344 192.113281 L 164.554688 192.148438 L 164.554688 192.203125 L 164.585938 192.234375 L 164.644531 192.425781 C 164.683594 192.425781 164.671875 192.417969 164.671875 192.464844 C 164.695312 192.570312 164.816406 192.734375 164.875 192.832031 C 164.914062 192.832031 164.902344 192.820312 164.902344 192.863281 C 164.972656 192.972656 164.988281 192.988281 165.082031 193.085938 C 165.132812 193.136719 165.222656 193.246094 165.257812 193.3125 C 165.421875 193.605469 165.175781 193.546875 165.566406 193.808594 L 165.621094 193.863281 L 165.796875 194.035156 L 165.824219 194.066406 L 165.855469 194.09375 C 165.917969 194.191406 165.996094 194.28125 166.0625 194.398438 C 166.121094 194.503906 166.203125 194.648438 166.226562 194.761719 L 166.261719 194.808594 C 166.261719 194.933594 166.308594 194.988281 166.3125 195.121094 L 166.34375 195.152344 C 166.34375 195.386719 166.449219 195.574219 166.566406 195.703125 C 166.671875 195.820312 166.859375 195.976562 167.035156 196.007812 L 167.085938 196.039062 C 167.148438 196.066406 167.253906 196.109375 167.320312 196.125 L 167.355469 196.152344 C 167.4375 196.175781 167.4375 196.191406 167.523438 196.214844 L 167.558594 196.238281 C 167.660156 196.265625 167.675781 196.300781 167.78125 196.324219 L 167.8125 196.355469 L 168.1875 196.527344 L 168.214844 196.554688 C 168.28125 196.589844 168.332031 196.617188 168.390625 196.664062 C 168.46875 196.726562 168.460938 196.738281 168.558594 196.785156 C 168.761719 196.878906 168.847656 196.828125 169.050781 196.78125 L 169.109375 196.753906 L 169.394531 196.753906 C 169.445312 196.753906 169.4375 196.742188 169.4375 196.78125 L 169.570312 196.839844 L 169.597656 196.867188 L 169.625 196.898438 L 169.65625 196.925781 C 169.707031 197.027344 169.738281 197.09375 169.800781 197.183594 L 169.828125 197.210938 L 169.859375 197.238281 L 169.886719 197.269531 L 169.914062 197.296875 C 169.996094 197.351562 169.984375 197.367188 170.089844 197.410156 C 170.15625 197.4375 170.238281 197.464844 170.316406 197.472656 L 170.386719 197.5 L 170.433594 197.492188 L 170.480469 197.527344 C 170.632812 197.53125 170.6875 197.582031 170.835938 197.585938 L 170.863281 197.613281 C 171.054688 197.628906 171.191406 197.746094 171.355469 197.785156 L 171.382812 197.8125 C 171.457031 197.863281 171.464844 197.859375 171.523438 197.929688 C 171.578125 197.992188 171.589844 198.003906 171.613281 198.089844 C 171.65625 198.089844 171.644531 198.082031 171.644531 198.128906 C 171.664062 198.222656 171.703125 198.277344 171.730469 198.382812 L 171.757812 198.414062 C 171.769531 198.539062 171.800781 198.597656 171.863281 198.683594 C 171.925781 198.765625 171.96875 198.8125 172.074219 198.84375 L 172.105469 198.871094 L 172.132812 198.871094 L 172.160156 198.902344 C 172.21875 198.929688 172.230469 198.941406 172.304688 198.957031 L 172.332031 198.988281 C 172.492188 199.023438 172.582031 199.117188 172.738281 199.160156 L 172.765625 199.1875 C 172.832031 199.222656 172.882812 199.253906 172.96875 199.273438 L 172.996094 199.300781 C 173.09375 199.324219 173.242188 199.402344 173.335938 199.453125 C 173.457031 199.519531 173.496094 199.636719 173.628906 199.671875 L 173.6875 199.671875 C 173.792969 199.644531 173.75 199.640625 173.832031 199.585938 C 173.832031 199.355469 173.808594 199.210938 174.039062 199.1875 C 174.179688 199.171875 174.398438 199.246094 174.4375 199.386719 L 174.464844 199.414062 C 174.464844 199.515625 174.453125 199.558594 174.402344 199.609375 C 174.339844 199.675781 174.320312 199.660156 174.226562 199.695312 C 174.039062 199.761719 174.085938 199.867188 173.871094 199.875 L 173.804688 199.902344 C 173.683594 199.933594 173.632812 200.007812 173.632812 200.160156 L 173.601562 200.1875 C 173.582031 200.273438 173.550781 200.320312 173.515625 200.386719 L 173.488281 200.417969 C 173.414062 200.527344 173.335938 200.570312 173.257812 200.703125 C 173.199219 200.804688 173.109375 200.957031 173.121094 201.105469 L 173.082031 201.152344 L 173.082031 201.527344 L 173.113281 201.589844 L 173.121094 202.046875 L 173.082031 202.09375 L 173.082031 202.164062 C 173.082031 202.207031 173.09375 202.195312 173.054688 202.195312 C 173.039062 202.265625 173.027344 202.28125 172.996094 202.335938 L 172.96875 202.363281 C 172.882812 202.488281 172.773438 202.542969 172.6875 202.683594 C 172.671875 202.703125 172.640625 202.761719 172.632812 202.773438 C 172.535156 202.875 172.410156 202.78125 172.363281 202.964844 L 172.335938 202.992188 L 172.335938 203.101562 C 172.355469 203.132812 172.347656 203.101562 172.351562 203.15625 C 172.355469 203.199219 172.382812 203.191406 172.335938 203.191406 C 172.328125 203.492188 172.074219 203.507812 172.140625 203.753906 C 172.167969 203.847656 172.207031 203.871094 172.304688 203.878906 L 172.335938 203.90625 L 172.363281 203.90625 L 172.394531 203.933594 L 172.421875 203.964844 C 172.414062 204.160156 172.292969 204.179688 172.160156 204.25 L 172.132812 204.28125 C 172.09375 204.339844 172.035156 204.398438 172.089844 204.519531 C 172.144531 204.648438 172.1875 204.535156 172.191406 204.738281 L 172.160156 204.765625 L 172.160156 204.878906 L 172.246094 204.964844 C 172.324219 204.984375 172.332031 204.992188 172.390625 205.023438 L 172.421875 205.050781 C 172.570312 205.15625 172.714844 205.246094 172.828125 205.390625 C 172.917969 205.5 173.046875 205.730469 173.082031 205.882812 L 173.113281 205.910156 C 173.136719 206.007812 173.234375 206.195312 173.285156 206.28125 C 173.320312 206.339844 173.363281 206.398438 173.398438 206.457031 C 173.445312 206.535156 173.472656 206.558594 173.515625 206.625 L 173.542969 206.65625 C 173.765625 206.976562 174.058594 207.261719 174.378906 207.484375 L 174.410156 207.511719 C 174.535156 207.597656 174.578125 207.636719 174.726562 207.710938 L 174.753906 207.742188 L 174.984375 207.855469 C 175.035156 207.855469 175.027344 207.839844 175.027344 207.882812 C 175.121094 207.914062 175.140625 207.945312 175.242188 207.972656 L 175.277344 208 C 175.484375 208.050781 175.714844 208.359375 175.734375 208.609375 C 175.792969 208.679688 175.761719 209.046875 175.761719 209.171875 L 175.746094 209.734375 C 175.742188 209.730469 175.738281 209.746094 175.734375 209.753906 L 175.734375 209.886719 L 175.703125 209.917969 C 175.703125 210.0625 175.660156 210.070312 175.644531 210.203125 L 175.617188 210.230469 C 175.597656 210.320312 175.582031 210.3125 175.5625 210.402344 L 175.53125 210.429688 C 175.496094 210.507812 175.449219 210.632812 175.445312 210.746094 L 175.445312 211.058594 C 175.445312 211.203125 175.472656 211.203125 175.476562 211.347656 C 175.480469 211.5 175.445312 211.539062 175.449219 211.660156 L 175.417969 211.714844 C 175.378906 211.789062 175.351562 211.8125 175.328125 211.890625 L 175.300781 211.917969 C 175.277344 212.023438 175.253906 212 175.242188 212.117188 L 175.214844 212.183594 L 175.214844 212.261719 L 175.1875 212.316406 L 175.1875 212.632812 L 175.214844 212.691406 L 175.214844 212.765625 L 175.246094 212.835938 C 175.265625 212.925781 175.292969 212.960938 175.300781 213.058594 L 175.328125 213.121094 C 175.332031 213.300781 175.363281 213.289062 175.335938 213.441406 C 175.324219 213.527344 175.304688 213.574219 175.285156 213.621094 C 175.882812 213.734375 176.492188 213.816406 177.109375 213.875 C 177.097656 213.773438 177.078125 213.824219 177.117188 213.664062 C 177.117188 213.613281 177.101562 213.621094 177.144531 213.621094 C 177.296875 213.46875 177.449219 213.242188 177.742188 213.234375 L 177.808594 213.207031 C 177.945312 213.203125 177.960938 213.195312 178.050781 213.132812 C 178.160156 213.058594 178.152344 213.054688 178.210938 212.949219 L 178.238281 212.921875 L 178.265625 212.863281 L 178.296875 212.835938 L 178.355469 212.777344 L 178.488281 212.71875 C 178.488281 212.675781 178.480469 212.691406 178.527344 212.691406 L 178.582031 212.691406 C 178.605469 212.679688 178.597656 212.675781 178.644531 212.667969 L 178.828125 212.679688 C 178.832031 212.675781 178.839844 212.6875 178.847656 212.691406 L 178.902344 212.691406 C 178.949219 212.691406 178.941406 212.675781 178.941406 212.71875 L 179.191406 212.71875 L 179.21875 212.691406 C 179.425781 212.675781 179.511719 212.507812 179.609375 212.363281 C 179.707031 212.226562 179.875 212.105469 180.050781 212.0625 L 180.082031 212.035156 C 180.171875 212.011719 180.167969 211.996094 180.253906 211.976562 L 180.285156 211.945312 C 180.394531 211.917969 180.320312 211.917969 180.429688 211.890625 L 180.457031 211.863281 C 180.535156 211.820312 180.585938 211.785156 180.660156 211.746094 L 180.6875 211.714844 C 180.980469 211.539062 181.304688 211.203125 181.496094 210.917969 L 181.523438 210.886719 L 181.550781 210.859375 C 181.597656 210.832031 181.621094 210.808594 181.671875 210.78125 C 181.734375 210.746094 181.753906 210.746094 181.8125 210.714844 L 181.839844 210.6875 C 181.949219 210.660156 181.957031 210.628906 181.988281 210.515625 L 182.015625 210.476562 L 182.011719 210.203125 L 182.042969 210.171875 C 182.050781 210.078125 182.066406 210.066406 182.101562 210 L 182.128906 209.972656 L 182.246094 209.859375 L 182.273438 209.828125 L 182.328125 209.800781 L 182.359375 209.773438 L 182.382812 209.773438 L 182.417969 209.746094 C 182.515625 209.722656 182.554688 209.6875 182.675781 209.6875 L 182.707031 209.660156 L 182.765625 209.660156 L 182.820312 209.628906 C 182.945312 209.621094 182.957031 209.582031 183.078125 209.574219 L 183.109375 209.542969 C 183.226562 209.515625 183.289062 209.460938 183.445312 209.457031 C 183.488281 209.4375 183.40625 209.453125 183.511719 209.433594 C 183.53125 209.429688 183.578125 209.429688 183.597656 209.429688 C 183.875 209.425781 183.917969 209.402344 184.085938 209.285156 L 184.117188 209.257812 L 184.144531 209.230469 L 184.171875 209.199219 L 184.203125 209.171875 C 184.257812 209.09375 184.308594 209.039062 184.316406 208.914062 C 184.316406 208.867188 184.304688 208.878906 184.347656 208.878906 C 184.363281 208.816406 184.378906 208.765625 184.40625 208.714844 C 184.40625 208.667969 184.390625 208.675781 184.433594 208.675781 C 184.488281 208.589844 184.527344 208.558594 184.578125 208.484375 L 184.605469 208.453125 C 184.644531 208.398438 184.683594 208.34375 184.722656 208.285156 C 184.722656 208.238281 184.710938 208.25 184.75 208.25 C 184.804688 208.164062 184.925781 207.980469 184.953125 207.882812 C 184.953125 207.835938 184.9375 207.84375 184.980469 207.84375 C 185.003906 207.769531 185.019531 207.769531 185.039062 207.683594 C 185.039062 207.632812 185.023438 207.640625 185.066406 207.640625 L 185.066406 207.597656 L 185.097656 207.570312 C 185.117188 207.476562 185.144531 207.445312 185.152344 207.339844 L 185.183594 207.285156 C 185.195312 207.148438 185.238281 207.066406 185.242188 206.910156 C 185.242188 206.886719 185.242188 206.851562 185.246094 206.828125 C 185.253906 206.773438 185.253906 206.796875 185.269531 206.769531 L 185.269531 206.710938 L 185.296875 206.652344 C 185.3125 206.585938 185.328125 206.539062 185.355469 206.484375 L 185.382812 206.453125 L 185.414062 206.398438 L 185.441406 206.367188 L 185.472656 206.339844 L 185.5 206.3125 C 185.636719 206.214844 185.6875 206.117188 185.855469 206.007812 C 186.066406 205.871094 186.074219 205.867188 186.191406 205.652344 L 186.21875 205.621094 C 186.25 205.5 186.304688 205.421875 186.304688 205.28125 C 186.304688 205.144531 186.304688 205.226562 186.335938 205.191406 L 186.335938 204.722656 C 186.289062 204.722656 186.304688 204.730469 186.304688 204.679688 L 186.277344 204.625 L 186.1875 204.535156 C 186.152344 204.515625 186.160156 204.519531 186.105469 204.507812 C 186.035156 204.507812 185.945312 204.523438 185.910156 204.480469 C 185.671875 204.476562 185.605469 204.394531 185.460938 204.285156 C 185.363281 204.210938 185.160156 204.085938 185.007812 204.082031 L 184.957031 204.050781 C 184.8125 204.046875 184.691406 203.996094 184.550781 203.992188 L 184.488281 203.964844 L 184.433594 203.964844 C 184.386719 203.964844 184.394531 203.976562 184.394531 203.9375 C 184.253906 203.921875 183.925781 203.789062 183.808594 203.726562 C 183.648438 203.640625 183.457031 203.492188 183.28125 203.449219 C 183.234375 203.449219 183.242188 203.464844 183.242188 203.421875 L 183.050781 203.363281 C 183.003906 203.363281 183.015625 203.375 183.015625 203.335938 L 182.964844 203.335938 C 182.914062 203.335938 182.925781 203.347656 182.925781 203.304688 C 182.804688 203.296875 182.753906 203.25 182.617188 203.25 L 182.539062 203.222656 C 182.394531 203.21875 182.289062 203.191406 182.101562 203.191406 C 181.878906 203.195312 181.789062 203.234375 181.78125 203.019531 L 181.8125 202.992188 C 181.957031 202.703125 181.636719 202.71875 181.609375 202.425781 L 181.582031 202.390625 L 181.582031 202.363281 L 181.550781 202.304688 C 181.488281 202.023438 181.207031 201.773438 180.976562 201.644531 L 180.949219 201.617188 C 180.878906 201.582031 180.871094 201.570312 180.773438 201.5625 L 180.746094 201.53125 C 180.53125 201.515625 180.464844 201.445312 180.183594 201.492188 C 179.808594 201.554688 179.59375 201.492188 179.296875 201.199219 C 179.125 201.023438 179.148438 200.933594 179.019531 200.847656 L 178.988281 200.816406 C 178.910156 200.777344 178.863281 200.742188 178.757812 200.730469 C 178.730469 200.730469 178.699219 200.730469 178.671875 200.726562 C 178.550781 200.710938 178.65625 200.730469 178.605469 200.703125 C 178.503906 200.699219 178.449219 200.675781 178.382812 200.648438 L 178.355469 200.617188 L 178.328125 200.589844 C 178.28125 200.492188 178.265625 200.375 178.171875 200.3125 C 178.128906 200.285156 177.898438 200.222656 177.835938 200.214844 L 177.808594 200.1875 C 177.75 200.148438 177.71875 200.121094 177.636719 200.101562 L 177.605469 200.074219 C 177.476562 200.074219 177.332031 200.0625 177.222656 200.089844 C 177.035156 200.140625 177.078125 200.144531 176.886719 200.101562 L 176.855469 200.074219 C 176.796875 200.035156 176.78125 200.023438 176.710938 199.988281 C 176.667969 199.988281 176.679688 200 176.679688 199.960938 C 176.621094 199.945312 176.480469 199.910156 176.425781 199.910156 C 176.34375 199.910156 176.265625 199.949219 176.164062 199.960938 C 176.136719 200.003906 176.164062 200.003906 176.136719 199.960938 C 176.003906 199.949219 176.003906 199.886719 175.90625 199.816406 C 175.832031 199.757812 175.742188 199.710938 175.617188 199.699219 C 175.34375 199.683594 175.21875 199.824219 175.128906 199.988281 L 175.101562 200.023438 L 175.101562 200.132812 L 175.070312 200.160156 L 175.070312 200.214844 L 175.101562 200.246094 L 175.101562 200.386719 C 175.03125 200.386719 174.96875 200.398438 174.882812 200.289062 C 174.84375 200.238281 174.859375 200.28125 174.839844 200.207031 L 174.808594 200.160156 C 174.816406 199.992188 174.785156 199.949219 174.78125 199.789062 C 174.78125 199.621094 174.757812 199.542969 174.753906 199.414062 L 174.726562 199.386719 C 174.707031 199.308594 174.679688 199.25 174.632812 199.191406 C 174.574219 199.109375 174.625 199.167969 174.566406 199.117188 C 174.523438 199.082031 174.503906 199.070312 174.464844 199.042969 L 174.4375 199.015625 L 174.410156 199.015625 C 174.363281 199.015625 174.375 199.027344 174.375 198.988281 C 174.304688 198.96875 174.300781 198.960938 174.207031 198.957031 L 173.917969 198.957031 C 173.796875 198.96875 173.824219 198.988281 173.714844 199.015625 L 173.6875 199.042969 C 173.472656 199.097656 173.398438 199.152344 173.167969 199.042969 L 173.140625 199.015625 C 172.96875 198.898438 172.96875 198.902344 172.851562 198.730469 L 172.824219 198.699219 C 172.78125 198.621094 172.761719 198.570312 172.738281 198.472656 L 172.707031 198.441406 C 172.707031 198.234375 172.660156 198.152344 172.699219 197.917969 C 172.738281 197.695312 172.765625 197.65625 172.765625 197.390625 C 172.726562 197.390625 172.738281 197.398438 172.738281 197.355469 C 172.726562 197.242188 172.691406 197.195312 172.632812 197.117188 C 172.558594 197.019531 172.542969 197.015625 172.449219 196.957031 L 172.421875 196.925781 C 172.300781 196.898438 172.339844 196.871094 172.191406 196.871094 L 171.585938 196.871094 C 171.542969 196.867188 171.546875 196.871094 171.507812 196.859375 C 171.503906 196.859375 171.492188 196.859375 171.488281 196.851562 C 171.488281 196.84375 171.480469 196.84375 171.472656 196.839844 L 171.414062 196.839844 L 171.382812 196.8125 C 171.144531 196.757812 171.128906 196.542969 171.15625 196.242188 C 171.164062 196.144531 171.191406 195.996094 171.214844 195.902344 C 171.246094 195.792969 171.300781 195.6875 171.328125 195.582031 L 171.355469 195.550781 C 171.417969 195.4375 171.449219 195.398438 171.53125 195.300781 C 171.625 195.1875 171.652344 195.175781 171.613281 195.007812 C 171.335938 194.945312 171.050781 194.988281 170.800781 195.039062 L 170.75 195.074219 C 170.605469 195.09375 170.523438 195.207031 170.492188 195.351562 C 170.492188 195.414062 170.507812 195.457031 170.460938 195.484375 C 170.453125 195.625 170.410156 195.726562 170.347656 195.8125 C 170.285156 195.894531 170.183594 195.972656 170.046875 195.980469 C 169.996094 196.027344 170 196.011719 169.914062 196.011719 L 169.625 196.011719 C 169.585938 196.011719 169.585938 196.011719 169.546875 196.003906 C 169.539062 196 169.527344 196.003906 169.523438 195.992188 C 169.519531 195.984375 169.511719 195.984375 169.503906 195.980469 C 169.164062 195.980469 168.867188 195.753906 168.734375 195.550781 L 168.707031 195.523438 C 168.640625 195.429688 168.59375 195.378906 168.53125 195.265625 L 168.503906 195.238281 L 168.386719 194.988281 C 168.347656 194.988281 168.359375 194.996094 168.359375 194.953125 C 168.335938 194.863281 168.308594 194.753906 168.300781 194.65625 L 168.265625 194.578125 L 168.273438 194.152344 L 168.300781 194.089844 C 168.328125 193.777344 168.582031 193.746094 168.589844 193.40625 C 168.589844 193.359375 168.574219 193.371094 168.617188 193.371094 L 168.617188 193.320312 L 168.648438 193.289062 L 168.675781 193.179688 L 168.703125 193.144531 L 168.707031 193.121094 L 168.734375 193.09375 C 168.851562 192.867188 169.027344 192.695312 169.25 192.578125 L 169.28125 192.550781 C 169.371094 192.527344 169.363281 192.511719 169.457031 192.492188 L 169.480469 192.464844 L 169.507812 192.464844 L 169.570312 192.4375 C 169.734375 192.417969 169.796875 192.375 170 192.375 C 170.160156 192.375 170.320312 192.378906 170.476562 192.378906 L 170.546875 192.347656 C 170.679688 192.347656 170.699219 192.316406 170.808594 192.292969 L 170.835938 192.265625 C 170.929688 192.242188 171.015625 192.191406 171.089844 192.148438 L 171.125 192.121094 C 171.429688 191.957031 171.628906 191.921875 171.960938 192.089844 L 171.992188 192.121094 C 172.175781 192.25 172.195312 192.195312 172.421875 192.175781 L 172.449219 192.148438 L 172.652344 192.148438 L 172.679688 192.175781 C 172.789062 192.234375 172.847656 192.296875 172.882812 192.429688 L 172.910156 192.464844 C 172.945312 192.609375 172.96875 192.640625 172.96875 192.832031 L 172.996094 192.863281 L 172.996094 192.921875 L 173.023438 192.949219 C 173.035156 193.0625 173.125 193.238281 173.167969 193.320312 L 173.199219 193.351562 C 173.292969 193.527344 173.378906 193.613281 173.542969 193.722656 L 173.578125 193.75 C 173.703125 193.746094 173.730469 193.714844 173.804688 193.664062 L 173.804688 193.148438 L 173.773438 193.09375 L 173.773438 192.988281 L 173.746094 192.921875 C 173.742188 192.804688 173.710938 192.730469 173.6875 192.632812 L 173.660156 192.605469 C 173.652344 192.511719 173.605469 192.386719 173.574219 192.316406 L 173.542969 192.261719 C 173.535156 192.117188 173.488281 192.125 173.488281 191.929688 L 173.460938 191.863281 L 173.460938 191.777344 C 173.460938 191.660156 173.464844 191.710938 173.488281 191.6875 C 173.488281 191.585938 173.511719 191.53125 173.542969 191.460938 L 173.574219 191.433594 C 173.636719 191.34375 173.714844 191.25 173.808594 191.183594 C 173.890625 191.125 174.035156 191.046875 174.121094 191.003906 L 174.148438 190.976562 C 174.402344 190.804688 174.621094 190.605469 174.78125 190.347656 C 174.78125 190.304688 174.769531 190.316406 174.8125 190.316406 C 174.875 190.199219 174.980469 190.054688 175.011719 189.917969 L 175.042969 189.886719 C 175.070312 189.773438 175.125 189.6875 175.121094 189.574219 Z M 172.421875 179.757812 C 172.382812 179.792969 172.386719 179.796875 172.324219 179.8125 C 172.1875 179.839844 172.234375 179.8125 172.242188 179.789062 L 172.277344 179.757812 L 172.421875 179.757812 " clip-rule="nonzero"/></clipPath><radialGradient gradientTransform="matrix(1.003404, 0, 0, 0.996596, 172.72406, 188.395355)" gradientUnits="userSpaceOnUse" xlink:type="simple" r="25.585991" xlink:actuate="onLoad" cx="0" id="id5" cy="0" xlink:show="other" fx="0" fy="0"><stop stop-opacity="1" stop-color="rgb(99.804688%, 99.804688%, 99.804688%)" offset="0"/><stop stop-opacity="1" stop-color="rgb(99.539185%, 99.539185%, 99.539185%)" offset="0.015625"/><stop stop-opacity="1" stop-color="rgb(99.334717%, 99.334717%, 99.334717%)" offset="0.0195312"/><stop stop-opacity="1" stop-color="rgb(99.133301%, 99.133301%, 99.133301%)" offset="0.03125"/><stop stop-opacity="1" stop-color="rgb(98.933411%, 98.933411%, 98.933411%)" offset="0.0429688"/><stop stop-opacity="1" stop-color="rgb(98.736572%, 98.736572%, 98.736572%)" offset="0.0546875"/><stop stop-opacity="1" stop-color="rgb(98.603821%, 98.603821%, 98.603821%)" offset="0.0664062"/><stop stop-opacity="1" stop-color="rgb(98.461914%, 98.461914%, 98.461914%)" offset="0.0703125"/><stop stop-opacity="1" stop-color="rgb(98.196411%, 98.196411%, 98.196411%)" offset="0.0742188"/><stop stop-opacity="1" stop-color="rgb(97.999573%, 97.999573%, 97.999573%)" offset="0.0859375"/><stop stop-opacity="1" stop-color="rgb(97.93396%, 97.93396%, 97.93396%)" offset="0.0976562"/><stop stop-opacity="1" stop-color="rgb(97.73407%, 97.73407%, 97.73407%)" offset="0.101562"/><stop stop-opacity="1" stop-color="rgb(97.549438%, 97.549438%, 97.549438%)" offset="0.113281"/><stop stop-opacity="1" stop-color="rgb(97.337341%, 97.337341%, 97.337341%)" offset="0.125"/><stop stop-opacity="1" stop-color="rgb(97.036743%, 97.036743%, 97.036743%)" offset="0.136719"/><stop stop-opacity="1" stop-color="rgb(96.829224%, 96.829224%, 96.829224%)" offset="0.148438"/><stop stop-opacity="1" stop-color="rgb(96.629333%, 96.629333%, 96.629333%)" offset="0.160156"/><stop stop-opacity="1" stop-color="rgb(96.434021%, 96.434021%, 96.434021%)" offset="0.171875"/><stop stop-opacity="1" stop-color="rgb(96.296692%, 96.296692%, 96.296692%)" offset="0.183594"/><stop stop-opacity="1" stop-color="rgb(96.156311%, 96.156311%, 96.156311%)" offset="0.1875"/><stop stop-opacity="1" stop-color="rgb(95.892334%, 95.892334%, 95.892334%)" offset="0.191406"/><stop stop-opacity="1" stop-color="rgb(95.506287%, 95.506287%, 95.506287%)" offset="0.214844"/><stop stop-opacity="1" stop-color="rgb(95.301819%, 95.301819%, 95.301819%)" offset="0.226562"/><stop stop-opacity="1" stop-color="rgb(95.094299%, 95.094299%, 95.094299%)" offset="0.238281"/><stop stop-opacity="1" stop-color="rgb(94.703674%, 94.703674%, 94.703674%)" offset="0.25"/><stop stop-opacity="1" stop-color="rgb(94.424438%, 94.424438%, 94.424438%)" offset="0.261719"/><stop stop-opacity="1" stop-color="rgb(94.258118%, 94.258118%, 94.258118%)" offset="0.269531"/><stop stop-opacity="1" stop-color="rgb(94.094849%, 94.094849%, 94.094849%)" offset="0.277344"/><stop stop-opacity="1" stop-color="rgb(93.937683%, 93.937683%, 93.937683%)" offset="0.285156"/><stop stop-opacity="1" stop-color="rgb(93.782043%, 93.782043%, 93.782043%)" offset="0.292969"/><stop stop-opacity="1" stop-color="rgb(93.621826%, 93.621826%, 93.621826%)" offset="0.300781"/><stop stop-opacity="1" stop-color="rgb(93.457031%, 93.457031%, 93.457031%)" offset="0.308594"/><stop stop-opacity="1" stop-color="rgb(93.293762%, 93.293762%, 93.293762%)" offset="0.316406"/><stop stop-opacity="1" stop-color="rgb(93.136597%, 93.136597%, 93.136597%)" offset="0.324219"/><stop stop-opacity="1" stop-color="rgb(92.979431%, 92.979431%, 92.979431%)" offset="0.332031"/><stop stop-opacity="1" stop-color="rgb(92.819214%, 92.819214%, 92.819214%)" offset="0.339844"/><stop stop-opacity="1" stop-color="rgb(92.556763%, 92.556763%, 92.556763%)" offset="0.347656"/><stop stop-opacity="1" stop-color="rgb(92.190552%, 92.190552%, 92.190552%)" offset="0.367188"/><stop stop-opacity="1" stop-color="rgb(91.902161%, 91.902161%, 91.902161%)" offset="0.386719"/><stop stop-opacity="1" stop-color="rgb(91.699219%, 91.699219%, 91.699219%)" offset="0.402344"/><stop stop-opacity="1" stop-color="rgb(91.50238%, 91.50238%, 91.50238%)" offset="0.417969"/><stop stop-opacity="1" stop-color="rgb(91.300964%, 91.300964%, 91.300964%)" offset="0.425781"/><stop stop-opacity="1" stop-color="rgb(91.093445%, 91.093445%, 91.093445%)" offset="0.433594"/><stop stop-opacity="1" stop-color="rgb(90.794373%, 90.794373%, 90.794373%)" offset="0.441406"/><stop stop-opacity="1" stop-color="rgb(90.403748%, 90.403748%, 90.403748%)" offset="0.457031"/><stop stop-opacity="1" stop-color="rgb(90.19928%, 90.19928%, 90.19928%)" offset="0.472656"/><stop stop-opacity="1" stop-color="rgb(89.996338%, 89.996338%, 89.996338%)" offset="0.488281"/><stop stop-opacity="1" stop-color="rgb(89.605713%, 89.605713%, 89.605713%)" offset="0.503906"/><stop stop-opacity="1" stop-color="rgb(89.399719%, 89.399719%, 89.399719%)" offset="0.515625"/><stop stop-opacity="1" stop-color="rgb(89.193726%, 89.193726%, 89.193726%)" offset="0.527344"/><stop stop-opacity="1" stop-color="rgb(88.999939%, 88.999939%, 88.999939%)" offset="0.539062"/><stop stop-opacity="1" stop-color="rgb(88.807678%, 88.807678%, 88.807678%)" offset="0.550781"/><stop stop-opacity="1" stop-color="rgb(88.545227%, 88.545227%, 88.545227%)" offset="0.5625"/><stop stop-opacity="1" stop-color="rgb(88.336182%, 88.336182%, 88.336182%)" offset="0.566406"/><stop stop-opacity="1" stop-color="rgb(88.134766%, 88.134766%, 88.134766%)" offset="0.578125"/><stop stop-opacity="1" stop-color="rgb(87.88147%, 87.88147%, 87.88147%)" offset="0.589844"/><stop stop-opacity="1" stop-color="rgb(87.528992%, 87.528992%, 87.528992%)" offset="0.613281"/><stop stop-opacity="1" stop-color="rgb(87.193298%, 87.193298%, 87.193298%)" offset="0.625"/><stop stop-opacity="1" stop-color="rgb(86.938477%, 86.938477%, 86.938477%)" offset="0.636719"/><stop stop-opacity="1" stop-color="rgb(86.773682%, 86.773682%, 86.773682%)" offset="0.644531"/><stop stop-opacity="1" stop-color="rgb(86.497498%, 86.497498%, 86.497498%)" offset="0.652344"/><stop stop-opacity="1" stop-color="rgb(86.219788%, 86.219788%, 86.219788%)" offset="0.671875"/><stop stop-opacity="1" stop-color="rgb(86.018372%, 86.018372%, 86.018372%)" offset="0.679688"/><stop stop-opacity="1" stop-color="rgb(85.800171%, 85.800171%, 85.800171%)" offset="0.699219"/><stop stop-opacity="1" stop-color="rgb(85.604858%, 85.604858%, 85.604858%)" offset="0.714844"/><stop stop-opacity="1" stop-color="rgb(85.403442%, 85.403442%, 85.403442%)" offset="0.722656"/><stop stop-opacity="1" stop-color="rgb(85.195923%, 85.195923%, 85.195923%)" offset="0.730469"/><stop stop-opacity="1" stop-color="rgb(84.896851%, 84.896851%, 84.896851%)" offset="0.738281"/><stop stop-opacity="1" stop-color="rgb(84.700012%, 84.700012%, 84.700012%)" offset="0.753906"/><stop stop-opacity="1" stop-color="rgb(84.634399%, 84.634399%, 84.634399%)" offset="0.765625"/><stop stop-opacity="1" stop-color="rgb(84.498596%, 84.498596%, 84.498596%)" offset="0.769531"/><stop stop-opacity="1" stop-color="rgb(84.358215%, 84.358215%, 84.358215%)" offset="0.773438"/><stop stop-opacity="1" stop-color="rgb(84.092712%, 84.092712%, 84.092712%)" offset="0.777344"/><stop stop-opacity="1" stop-color="rgb(83.706665%, 83.706665%, 83.706665%)" offset="0.789062"/><stop stop-opacity="1" stop-color="rgb(83.44574%, 83.44574%, 83.44574%)" offset="0.8125"/><stop stop-opacity="1" stop-color="rgb(83.235168%, 83.235168%, 83.235168%)" offset="0.816406"/><stop stop-opacity="1" stop-color="rgb(82.899475%, 82.899475%, 82.899475%)" offset="0.824219"/><stop stop-opacity="1" stop-color="rgb(82.698059%, 82.698059%, 82.698059%)" offset="0.84375"/><stop stop-opacity="1" stop-color="rgb(82.546997%, 82.546997%, 82.546997%)" offset="0.863281"/><stop stop-opacity="1" stop-color="rgb(82.2052%, 82.2052%, 82.2052%)" offset="0.878906"/><stop stop-opacity="1" stop-color="rgb(81.999207%, 81.999207%, 81.999207%)" offset="0.890625"/><stop stop-opacity="1" stop-color="rgb(81.793213%, 81.793213%, 81.793213%)" offset="0.902344"/><stop stop-opacity="1" stop-color="rgb(81.402588%, 81.402588%, 81.402588%)" offset="0.914062"/><stop stop-opacity="1" stop-color="rgb(81.103516%, 81.103516%, 81.103516%)" offset="0.933594"/><stop stop-opacity="1" stop-color="rgb(80.830383%, 80.830383%, 80.830383%)" offset="0.941406"/><stop stop-opacity="1" stop-color="rgb(80.488586%, 80.488586%, 80.488586%)" offset="0.953125"/><stop stop-opacity="1" stop-color="rgb(80.157471%, 80.157471%, 80.157471%)" offset="0.964844"/><stop stop-opacity="1" stop-color="rgb(79.998779%, 79.998779%, 79.998779%)" offset="1"/></radialGradient></defs><g clip-path="url(#id1)"><path fill="rgb(22.349548%, 70.979309%, 29.019165%)" d="M 193.183594 171.027344 C 193.773438 162.53125 185.644531 158.941406 185.644531 158.941406 C 181.269531 167.707031 187.292969 173.761719 190.164062 176.007812 C 190.261719 176.105469 190.375 176.195312 190.496094 176.269531 C 206.988281 186.449219 217.546875 171.390625 217.546875 171.390625 C 207.652344 163.839844 198.472656 167.476562 193.183594 171.027344 " fill-opacity="1" fill-rule="nonzero"/></g><path fill="rgb(13.729858%, 12.159729%, 12.548828%)" d="M 199.148438 162.773438 L 199.148438 162.769531 L 199.152344 162.773438 Z M 199.148438 162.773438 " fill-opacity="1" fill-rule="nonzero"/><g clip-path="url(#id2)"><path fill="rgb(0%, 57.249451%, 27.059937%)" d="M 217.320312 171.21875 C 207.679688 164.023438 198.738281 167.390625 193.453125 170.855469 C 193.34375 170.929688 193.195312 170.84375 193.203125 170.714844 C 193.222656 170.238281 193.21875 169.777344 193.1875 169.335938 C 193.035156 167.867188 192.65625 166.328125 191.910156 164.84375 C 190.292969 161.789062 187.597656 160.003906 186.335938 159.296875 C 186.195312 159.21875 186.050781 159.144531 185.902344 159.070312 C 185.769531 159.160156 185.800781 159.136719 185.664062 159.226562 C 185.992188 163.382812 188.210938 169.53125 190.027344 173.375 C 190.054688 173.429688 190.046875 173.492188 190.007812 173.542969 C 189.738281 173.890625 189.609375 174.308594 189.617188 174.726562 C 189.617188 174.800781 189.671875 174.863281 189.746094 174.878906 C 190.027344 174.945312 190.375 174.996094 190.785156 175.039062 C 190.839844 175.046875 191.058594 175.058594 191.058594 175.058594 L 191.445312 175.113281 L 191.761719 175.128906 L 192.109375 175.144531 L 192.25 175.144531 C 192.25 175.144531 192.339844 175.144531 192.410156 175.144531 C 198.375 175.359375 210.5625 174.25 217.285156 171.5 C 217.402344 171.453125 217.421875 171.292969 217.320312 171.21875 M 199.933594 194.839844 C 199.933594 206.496094 190.445312 215.941406 178.746094 215.941406 C 167.046875 215.941406 157.5625 206.496094 157.5625 194.839844 C 157.5625 183.1875 167.046875 173.742188 178.746094 173.742188 C 190.445312 173.742188 199.933594 183.1875 199.933594 194.839844 " fill-opacity="1" fill-rule="evenodd"/></g><path fill="rgb(69.799805%, 69.799805%, 69.799805%)" d="M 193.210938 170.777344 C 193.203125 170.757812 193.203125 170.738281 193.203125 170.714844 C 193.222656 170.238281 193.21875 169.777344 193.1875 169.335938 C 193.1875 169.332031 193.1875 169.328125 193.1875 169.328125 C 193.175781 169.167969 193.160156 169.011719 193.144531 168.859375 C 193.148438 168.855469 193.152344 168.855469 193.15625 168.851562 C 193.222656 169.464844 193.246094 170.105469 193.210938 170.777344 " fill-opacity="1" fill-rule="nonzero"/><path fill="rgb(15.689087%, 49.409485%, 20.388794%)" d="M 190.398438 176.175781 C 190.351562 176.148438 190.308594 176.117188 190.261719 176.082031 C 189.636719 175.597656 188.84375 174.921875 188.035156 174.066406 C 188.160156 173.347656 188.507812 172.679688 189.050781 172.152344 C 189.148438 172.058594 189.25 171.964844 189.347656 171.871094 C 189.578125 172.402344 189.804688 172.90625 190.027344 173.375 C 190.042969 173.410156 190.046875 173.445312 190.039062 173.480469 C 189.792969 173.777344 189.660156 174.128906 189.628906 174.484375 C 189.617188 174.5625 189.617188 174.644531 189.617188 174.726562 C 189.617188 174.738281 189.617188 174.753906 189.621094 174.765625 C 189.65625 175.308594 189.921875 175.835938 190.398438 176.175781 M 193.1875 169.328125 C 193.171875 169.175781 193.152344 169.023438 193.132812 168.867188 C 193.136719 168.863281 193.140625 168.863281 193.144531 168.859375 C 193.160156 169.011719 193.175781 169.167969 193.1875 169.328125 " fill-opacity="1" fill-rule="nonzero"/><path fill="rgb(0%, 39.99939%, 18.818665%)" d="M 189.621094 174.765625 C 189.617188 174.753906 189.617188 174.738281 189.617188 174.726562 C 189.617188 174.644531 189.617188 174.5625 189.628906 174.484375 C 189.617188 174.578125 189.617188 174.671875 189.621094 174.765625 M 190.039062 173.480469 C 190.046875 173.445312 190.042969 173.410156 190.027344 173.375 C 189.804688 172.90625 189.578125 172.402344 189.347656 171.871094 C 190.574219 170.714844 191.835938 169.714844 193.132812 168.867188 C 193.152344 169.023438 193.171875 169.175781 193.1875 169.328125 C 193.1875 169.328125 193.1875 169.332031 193.1875 169.335938 C 193.21875 169.777344 193.222656 170.238281 193.203125 170.714844 C 193.203125 170.738281 193.203125 170.757812 193.210938 170.777344 C 193.210938 170.78125 193.210938 170.78125 193.210938 170.785156 C 192.207031 171.5 191.199219 172.34375 190.1875 173.320312 C 190.132812 173.371094 190.085938 173.425781 190.039062 173.480469 " fill-opacity="1" fill-rule="nonzero"/><g clip-path="url(#id3)"><g clip-path="url(#id4)"><path fill="url(#id5)" d="M 162.214844 175.671875 L 162.214844 213.875 L 198.148438 213.875 L 198.148438 175.671875 Z M 162.214844 175.671875 " fill-rule="nonzero"/></g></g></svg>