<svg id="SvgjsSvg1001" width="288" height="288" xmlns="http://www.w3.org/2000/svg" version="1.1" xmlns:xlink="http://www.w3.org/1999/xlink" xmlns:svgjs="http://svgjs.com/svgjs"><defs id="SvgjsDefs1002"></defs><g id="SvgjsG1008"><svg xmlns="http://www.w3.org/2000/svg" xmlns:xlink="http://www.w3.org/1999/xlink" version="1.0" viewBox="59.89 155.94 165.39 57" width="288" height="288"><defs><clipPath id="a"><path d="M 86 155.9375 L 119.886719 155.9375 L 119.886719 177 L 86 177 Z M 86 155.9375 " fill="#000000" class="color000 svgShape"></path></clipPath><clipPath id="b"><path d="M 59.886719 156 L 119.886719 156 L 119.886719 212.9375 L 59.886719 212.9375 Z M 59.886719 156 " fill="#000000" class="color000 svgShape"></path></clipPath><clipPath id="c"><path d="M 64.546875 172.671875 L 100.480469 172.671875 L 100.480469 210.875 L 64.546875 210.875 Z M 64.546875 172.671875 " fill="#000000" class="color000 svgShape"></path></clipPath><clipPath id="d"><path d="M 80.425781 192.953125 C 80.28125 192.964844 80.226562 193.03125 80.285156 193.15625 L 80.3125 193.183594 C 80.390625 193.21875 80.429688 193.195312 80.535156 193.175781 L 80.660156 193.15625 C 80.773438 193.125 80.714844 193.203125 80.746094 193.097656 L 80.746094 193.066406 L 80.714844 193.007812 C 80.691406 193.007812 80.65625 193.011719 80.632812 193.007812 C 80.574219 193 80.601562 193 80.574219 192.980469 L 80.457031 192.980469 Z M 77.980469 192.382812 C 77.949219 192.28125 77.855469 192.308594 77.578125 192.238281 C 77.332031 192.171875 77.472656 192.074219 77.203125 192.0625 L 77.132812 192.039062 L 77.085938 192.035156 L 77.058594 192.007812 C 76.945312 191.9375 76.984375 191.890625 76.890625 191.832031 C 76.828125 191.796875 76.671875 191.769531 76.597656 191.75 L 76.570312 191.722656 C 76.480469 191.703125 76.484375 191.6875 76.394531 191.664062 L 76.363281 191.636719 C 76.238281 191.609375 76.144531 191.519531 76.042969 191.5 C 75.96875 191.488281 75.898438 191.5 75.820312 191.492188 C 75.707031 191.476562 75.746094 191.449219 75.617188 191.4375 C 75.53125 191.429688 75.519531 191.441406 75.441406 191.4375 L 75.320312 191.410156 L 75.273438 191.410156 L 75.242188 191.433594 C 75.171875 191.453125 75.171875 191.449219 75.097656 191.464844 C 74.964844 191.492188 75.058594 191.460938 74.953125 191.519531 C 74.863281 191.570312 74.78125 191.589844 74.71875 191.667969 L 74.695312 191.691406 C 74.632812 191.828125 74.660156 191.984375 74.894531 191.835938 L 74.914062 191.824219 L 75.1875 191.667969 L 75.214844 191.636719 C 75.410156 191.59375 75.316406 191.582031 75.453125 191.683594 C 75.652344 191.835938 75.511719 191.625 76.015625 191.871094 C 76.121094 191.925781 76.125 191.949219 76.308594 191.953125 C 76.332031 191.953125 76.367188 191.953125 76.390625 191.957031 C 76.449219 191.964844 76.425781 191.964844 76.453125 191.980469 C 76.65625 192.089844 76.554688 192.125 76.699219 192.195312 C 76.757812 192.222656 76.792969 192.21875 76.867188 192.257812 C 76.941406 192.296875 76.9375 192.308594 77 192.351562 C 76.953125 192.421875 76.730469 192.601562 77.019531 192.609375 L 77.058594 192.582031 C 77.164062 192.484375 77.429688 192.523438 77.65625 192.523438 C 77.679688 192.511719 77.609375 192.496094 77.746094 192.5 C 77.863281 192.5 77.773438 192.488281 77.808594 192.523438 L 77.921875 192.523438 L 77.949219 192.496094 L 77.980469 192.4375 Z M 79.484375 192.6875 C 79.410156 192.617188 79.433594 192.609375 79.332031 192.582031 L 79.28125 192.554688 L 79.191406 192.554688 C 79.1875 192.558594 79.125 192.648438 79.125 192.554688 C 78.90625 192.53125 79.0625 192.457031 78.765625 192.535156 C 78.597656 192.582031 78.503906 192.511719 78.355469 192.492188 L 78.324219 192.492188 C 78.269531 192.511719 78.277344 192.5 78.238281 192.523438 C 78.246094 192.835938 78.410156 192.574219 78.46875 192.777344 L 78.496094 192.808594 L 78.496094 192.910156 C 78.40625 192.992188 78.152344 192.953125 78.035156 192.921875 L 77.980469 192.921875 C 77.929688 192.960938 77.875 193.027344 77.945312 193.097656 C 77.992188 193.144531 78.125 193.128906 78.207031 193.125 L 78.726562 193.152344 L 78.726562 193.238281 C 78.75 193.332031 78.828125 193.382812 78.9375 193.339844 C 79.042969 193.296875 79.03125 193.214844 79.074219 193.125 C 79.488281 193.125 79.269531 193.066406 79.59375 193.066406 L 79.621094 193.042969 C 79.644531 193.050781 79.644531 193.050781 79.675781 193.070312 C 79.695312 193.082031 79.742188 193.117188 79.746094 193.121094 C 79.835938 193.171875 79.820312 193.179688 79.882812 193.097656 L 79.882812 193.011719 C 79.839844 192.949219 79.828125 192.9375 79.792969 192.867188 L 79.765625 192.839844 C 79.707031 192.808594 79.734375 192.820312 79.648438 192.808594 L 79.625 192.78125 C 79.535156 192.738281 79.558594 192.761719 79.484375 192.6875 Z M 97.480469 185.457031 L 97.25 185.457031 C 97.222656 185.476562 97.242188 185.46875 97.191406 185.484375 C 97.183594 185.484375 97.152344 185.484375 97.136719 185.484375 C 97.023438 185.488281 96.886719 185.539062 96.800781 185.582031 C 96.679688 185.640625 96.636719 185.710938 96.503906 185.742188 L 96.472656 185.773438 C 96.378906 185.773438 96.34375 185.78125 96.261719 185.753906 C 96.140625 185.71875 96.210938 185.714844 96.097656 185.6875 L 96.070312 185.65625 C 95.941406 185.628906 95.890625 185.625 95.78125 185.574219 L 95.753906 185.542969 L 95.722656 185.515625 C 95.597656 185.453125 95.527344 185.46875 95.496094 185.601562 L 95.496094 185.828125 L 95.464844 185.859375 C 95.441406 185.945312 95.441406 185.921875 95.375 185.96875 C 95.3125 186.011719 95.316406 185.996094 95.257812 186.050781 C 95.179688 186.117188 95.113281 186.179688 95.0625 186.257812 L 95.035156 186.285156 C 94.957031 186.398438 94.859375 186.589844 94.863281 186.773438 L 94.863281 187.058594 L 94.859375 187.203125 C 94.765625 187.226562 94.761719 187.257812 94.695312 187.324219 C 94.632812 187.386719 94.589844 187.421875 94.542969 187.488281 L 94.515625 187.515625 L 94.425781 187.632812 L 94.398438 187.660156 C 94.355469 187.722656 94.300781 187.792969 94.253906 187.859375 L 94.226562 187.898438 C 94.160156 188.003906 94.109375 188.101562 94.039062 188.214844 C 93.960938 188.34375 93.894531 188.433594 93.824219 188.546875 L 93.792969 188.578125 C 93.714844 188.695312 93.578125 188.8125 93.507812 188.917969 C 93.507812 188.964844 93.519531 188.953125 93.476562 188.953125 C 93.441406 189 93.414062 189.023438 93.371094 189.070312 C 93.332031 189.117188 93.304688 189.160156 93.277344 189.207031 L 93.246094 189.234375 C 93.214844 189.292969 93.207031 189.300781 93.1875 189.378906 L 93.160156 189.40625 C 93.132812 189.523438 93.085938 189.679688 93.074219 189.808594 C 93.0625 189.992188 93.121094 190.085938 93.132812 190.234375 L 93.160156 190.265625 C 93.1875 190.386719 93.269531 190.515625 93.332031 190.605469 L 93.363281 190.636719 L 93.363281 190.664062 L 93.390625 190.691406 C 93.417969 190.800781 93.445312 190.820312 93.449219 190.957031 C 93.476562 190.996094 93.507812 191.042969 93.449219 191.089844 C 93.449219 191.25 93.402344 191.328125 93.390625 191.464844 L 93.363281 191.496094 L 93.363281 191.523438 L 93.332031 191.554688 C 93.257812 191.660156 93.171875 191.667969 93.160156 191.808594 L 93.160156 191.894531 C 93.171875 192.039062 93.257812 192.042969 93.332031 192.152344 C 93.304688 192.257812 93.304688 192.191406 93.277344 192.296875 L 93.246094 192.324219 C 93.222656 192.59375 93.199219 192.609375 93.382812 192.789062 C 93.503906 192.90625 93.601562 193.007812 93.679688 193.152344 L 93.710938 193.183594 C 93.773438 193.308594 93.8125 193.367188 93.890625 193.484375 C 93.933594 193.546875 93.957031 193.589844 93.996094 193.640625 C 94.039062 193.699219 94.070312 193.722656 94.109375 193.78125 L 94.226562 193.898438 L 94.257812 193.925781 L 94.285156 193.953125 L 94.3125 193.984375 L 94.339844 194.011719 L 94.371094 194.039062 L 94.398438 194.070312 L 94.429688 194.097656 C 94.519531 194.15625 94.628906 194.257812 94.714844 194.328125 C 94.820312 194.40625 94.898438 194.496094 94.996094 194.59375 C 95.046875 194.640625 95.078125 194.667969 95.128906 194.71875 C 95.40625 195.007812 95.207031 194.964844 95.664062 194.929688 L 95.722656 194.898438 C 95.875 194.898438 95.992188 194.855469 96.128906 194.84375 C 96.277344 194.832031 96.464844 194.84375 96.617188 194.84375 C 96.644531 194.824219 96.628906 194.828125 96.675781 194.816406 C 96.6875 194.8125 96.71875 194.816406 96.734375 194.816406 L 96.84375 194.8125 C 96.886719 194.785156 96.804688 194.8125 96.90625 194.785156 C 96.914062 194.785156 96.945312 194.785156 96.964844 194.785156 C 97.101562 194.78125 97.152344 194.738281 97.273438 194.726562 C 97.273438 194.6875 97.265625 194.699219 97.308594 194.699219 C 97.414062 194.691406 97.445312 194.664062 97.539062 194.640625 L 97.566406 194.613281 C 97.78125 194.566406 97.875 194.484375 98.085938 194.585938 L 98.144531 194.640625 C 98.222656 194.683594 98.226562 194.695312 98.347656 194.699219 C 98.390625 194.699219 98.382812 194.6875 98.382812 194.726562 C 98.496094 194.757812 98.5625 194.816406 98.617188 194.914062 C 98.6875 195.039062 98.664062 195.15625 98.664062 195.328125 L 98.632812 195.359375 C 98.609375 195.464844 98.585938 195.4375 98.578125 195.558594 L 98.546875 195.585938 L 98.546875 195.644531 L 98.519531 195.675781 C 98.519531 195.816406 98.492188 195.828125 98.492188 195.929688 C 98.488281 196.042969 98.519531 196.066406 98.519531 196.214844 L 98.546875 196.246094 L 98.546875 196.304688 L 98.578125 196.359375 L 98.605469 196.46875 L 98.632812 196.5 L 98.71875 196.785156 L 98.75 196.816406 L 98.75 196.890625 L 98.777344 196.929688 C 98.789062 197.070312 98.835938 197.109375 98.835938 197.273438 L 98.863281 197.304688 L 98.863281 197.40625 C 98.882812 197.441406 98.871094 197.375 98.890625 197.476562 C 98.894531 197.492188 98.894531 197.539062 98.894531 197.558594 L 98.894531 197.988281 C 98.894531 198.03125 98.894531 198.027344 98.886719 198.066406 L 98.875 198.085938 C 98.875 198.082031 98.867188 198.097656 98.863281 198.101562 L 98.867188 198.1875 L 98.835938 198.238281 C 98.828125 198.351562 98.800781 198.378906 98.777344 198.476562 L 98.75 198.503906 C 98.726562 198.601562 98.675781 198.679688 98.632812 198.761719 C 98.632812 198.804688 98.644531 198.796875 98.605469 198.796875 C 98.53125 198.917969 98.382812 199.214844 98.34375 199.363281 L 98.316406 199.390625 C 98.296875 199.484375 98.269531 199.515625 98.261719 199.621094 C 98.261719 199.664062 98.273438 199.652344 98.230469 199.652344 C 98.203125 199.761719 98.15625 199.902344 98.144531 200.019531 L 98.117188 200.078125 C 98.109375 200.289062 98.03125 200.449219 98.03125 200.707031 C 98.03125 200.828125 98.019531 200.773438 98 200.800781 C 98 200.996094 97.972656 201.082031 97.972656 201.257812 C 99.566406 198.472656 100.480469 195.246094 100.480469 191.808594 C 100.480469 190.253906 100.292969 188.738281 99.941406 187.289062 C 99.933594 187.292969 99.925781 187.296875 99.917969 187.304688 C 99.910156 187.308594 99.785156 187.363281 99.777344 187.367188 C 99.65625 187.417969 99.644531 187.378906 99.527344 187.316406 L 99.496094 187.289062 C 99.417969 187.234375 99.378906 187.175781 99.300781 187.113281 C 99.222656 187.050781 99.144531 187 99.066406 186.945312 L 99.039062 186.917969 C 98.867188 186.828125 98.773438 186.699219 98.664062 186.546875 C 98.621094 186.546875 98.632812 186.558594 98.632812 186.515625 C 98.582031 186.410156 98.542969 186.277344 98.492188 186.171875 L 98.460938 186.144531 C 98.421875 185.996094 98.25 185.816406 98.136719 185.722656 C 98.015625 185.621094 97.792969 185.507812 97.597656 185.484375 C 97.558594 185.484375 97.554688 185.484375 97.515625 185.476562 C 97.511719 185.476562 97.5 185.476562 97.496094 185.46875 C 97.496094 185.460938 97.484375 185.460938 97.480469 185.457031 Z M 96.15625 181.539062 C 96.007812 181.542969 96 181.570312 95.90625 181.632812 C 95.792969 181.710938 95.75 181.679688 95.582031 181.679688 L 95.550781 181.652344 C 95.445312 181.628906 95.355469 181.550781 95.257812 181.648438 C 95.160156 181.742188 95.242188 181.832031 95.292969 181.910156 L 95.4375 181.910156 L 95.464844 181.9375 C 95.585938 181.964844 95.683594 182.054688 95.75 182.140625 C 95.820312 182.234375 95.902344 182.324219 95.960938 182.417969 C 96.054688 182.5625 96.261719 182.992188 96.074219 183.140625 L 96.042969 183.167969 C 95.796875 183.226562 95.789062 183.164062 95.582031 183.171875 L 95.527344 183.140625 C 95.441406 183.121094 95.484375 183.148438 95.4375 183.089844 C 95.394531 183.089844 95.40625 183.097656 95.40625 183.054688 C 95.375 182.933594 95.359375 182.941406 95.214844 182.941406 C 95.214844 182.980469 95.222656 182.96875 95.175781 182.96875 C 95.09375 183.007812 95.09375 182.988281 95.003906 182.96875 C 94.957031 182.96875 94.964844 182.980469 94.964844 182.941406 L 94.917969 182.941406 L 94.886719 182.910156 C 94.726562 182.832031 94.671875 182.929688 94.570312 182.996094 C 94.570312 183.230469 94.628906 183.175781 94.644531 183.316406 C 94.660156 183.460938 94.59375 183.433594 94.675781 183.636719 C 94.808594 183.96875 94.609375 184.113281 94.570312 184.253906 L 94.570312 184.371094 L 94.714844 184.542969 L 94.742188 184.570312 L 94.746094 184.59375 C 94.785156 184.59375 94.773438 184.585938 94.773438 184.628906 L 94.773438 184.800781 C 94.773438 184.851562 94.789062 184.84375 94.746094 184.84375 C 94.746094 185 94.761719 185.058594 94.890625 185.082031 C 94.949219 185.09375 95.007812 185.089844 95.074219 185.101562 C 95.160156 185.117188 95.195312 185.128906 95.265625 185.140625 C 95.3125 185.140625 95.304688 185.128906 95.304688 185.171875 C 95.441406 185.214844 95.476562 185.40625 95.652344 185.363281 C 95.808594 185.324219 95.757812 185.183594 96.070312 185.167969 L 96.121094 185.199219 L 96.359375 185.199219 L 96.386719 185.171875 C 96.535156 185.136719 96.527344 185.113281 96.589844 185 L 96.617188 184.96875 C 96.632812 184.8125 96.628906 184.855469 96.625 184.710938 C 96.621094 184.605469 96.667969 184.542969 96.675781 184.425781 L 96.703125 184.371094 C 96.710938 184.074219 96.996094 184.191406 97.089844 183.949219 C 97.144531 183.808594 97.046875 183.664062 97.171875 183.628906 C 97.28125 183.601562 97.300781 183.734375 97.394531 183.796875 L 97.429688 183.828125 C 97.765625 183.828125 97.574219 183.679688 97.835938 183.625 C 97.847656 183.609375 97.890625 183.539062 97.890625 183.625 C 98.054688 183.671875 98.078125 183.886719 98.117188 184.054688 L 98.144531 184.085938 C 98.160156 184.160156 98.171875 184.167969 98.203125 184.226562 L 98.230469 184.253906 C 98.308594 184.40625 98.433594 184.5 98.554688 184.621094 C 98.691406 184.757812 98.757812 184.84375 98.863281 185 L 98.894531 185.027344 C 98.914062 185.070312 98.925781 185.09375 98.949219 185.132812 C 98.992188 185.132812 98.980469 185.125 98.980469 185.171875 C 98.996094 185.234375 99.007812 185.253906 99.023438 185.328125 C 99.054688 185.472656 98.996094 185.460938 99.09375 185.488281 L 99.125 185.488281 C 99.21875 185.46875 99.164062 185.523438 99.183594 185.429688 C 99.183594 185.300781 99.167969 185.300781 99.210938 185.222656 C 99.269531 185.214844 99.261719 185.214844 99.300781 185.207031 C 99.28125 185.144531 99.257812 185.082031 99.234375 185.019531 L 99.152344 184.945312 L 99.125 184.914062 L 99.09375 184.886719 C 99.070312 184.785156 98.976562 184.679688 98.921875 184.597656 L 98.867188 184.542969 C 98.738281 184.359375 98.617188 184.328125 98.492188 184.082031 L 98.460938 184.054688 C 98.429688 183.996094 98.410156 183.980469 98.402344 183.898438 C 98.359375 183.898438 98.375 183.90625 98.375 183.855469 L 98.375 183.828125 C 98.40625 183.78125 98.375 183.78125 98.40625 183.828125 C 98.492188 183.886719 98.570312 184.003906 98.644531 184.101562 C 98.71875 184.195312 98.855469 184.292969 98.992188 184.417969 C 98.46875 183.183594 97.820312 182.011719 97.0625 180.925781 C 97.046875 180.945312 97.019531 180.976562 97.019531 180.90625 C 96.875 180.894531 96.980469 180.886719 96.847656 180.851562 L 96.820312 180.824219 L 96.589844 180.824219 C 96.542969 181.015625 96.53125 180.941406 96.644531 181.070312 L 96.671875 181.109375 L 96.671875 181.164062 L 96.644531 181.199219 C 96.535156 181.242188 96.414062 181.164062 96.285156 181.234375 C 96.183594 181.289062 96.109375 181.4375 96.15625 181.539062 Z M 94.601562 180.363281 C 94.601562 179.980469 94.554688 180.191406 94.496094 180.011719 C 94.429688 179.824219 94.5 179.546875 94.140625 179.535156 L 94.109375 179.507812 L 94.082031 179.476562 C 93.871094 179.480469 93.886719 179.558594 93.96875 179.679688 C 93.726562 179.679688 93.875 179.636719 93.707031 179.59375 C 93.664062 179.65625 93.671875 179.621094 93.648438 179.703125 L 93.679688 179.738281 L 93.707031 179.765625 C 93.722656 179.945312 93.773438 179.878906 93.824219 180.019531 C 93.875 180.164062 93.820312 180.222656 93.835938 180.328125 C 93.851562 180.425781 93.945312 180.492188 94.03125 180.5 C 94.167969 180.515625 94.070312 180.445312 94.371094 180.453125 L 94.429688 180.453125 C 94.5625 180.4375 94.507812 180.425781 94.601562 180.363281 Z M 94.945312 180.335938 L 94.945312 180.460938 C 94.976562 180.496094 94.960938 180.410156 94.96875 180.511719 C 94.976562 180.628906 94.984375 180.53125 94.945312 180.570312 L 94.945312 180.820312 L 94.972656 180.851562 C 95 180.933594 94.988281 180.898438 95.035156 180.96875 L 95.058594 180.996094 L 95.121094 181.050781 C 95.261719 181.125 95.292969 181.128906 95.445312 181.117188 C 95.621094 181.101562 95.617188 181.164062 95.8125 181.167969 L 95.84375 181.195312 L 95.867188 181.195312 L 95.898438 181.222656 C 96.0625 181.222656 96.128906 181.175781 96.070312 181.050781 L 96.042969 181.023438 C 96.035156 180.644531 95.910156 180.761719 95.792969 180.582031 C 95.753906 180.523438 95.722656 180.421875 95.6875 180.34375 C 95.636719 180.246094 95.605469 180.1875 95.550781 180.105469 L 95.523438 180.078125 C 95.339844 179.753906 95.058594 179.660156 94.980469 179.414062 C 94.933594 179.269531 94.957031 179.207031 94.804688 179.160156 L 94.777344 179.132812 C 94.464844 179.128906 94.753906 178.949219 94.570312 178.820312 L 94.535156 178.789062 C 94.433594 178.789062 94.421875 178.800781 94.34375 178.820312 C 94.320312 178.90625 94.3125 178.90625 94.3125 179.023438 L 94.339844 179.046875 L 94.34375 179.105469 L 94.3125 179.15625 L 94.3125 179.269531 L 94.339844 179.304688 C 94.441406 179.445312 94.441406 179.339844 94.542969 179.472656 L 94.570312 179.507812 C 94.691406 179.671875 94.582031 179.722656 94.722656 179.8125 C 94.820312 179.875 94.816406 179.820312 94.898438 179.898438 C 94.945312 179.941406 94.917969 179.960938 95.003906 180.023438 L 95.03125 180.050781 C 95.121094 180.097656 95.089844 180.113281 95.089844 180.25 C 95.035156 180.289062 95.011719 180.300781 94.945312 180.335938 Z M 83.339844 175.328125 C 83.425781 175.460938 83.605469 175.554688 83.742188 175.644531 L 83.769531 175.671875 C 83.882812 175.75 83.894531 175.792969 83.972656 175.894531 L 84 175.929688 C 84.027344 176.035156 84.027344 175.96875 84.058594 176.074219 L 84.085938 176.101562 L 84.085938 176.121094 C 84.128906 176.121094 84.117188 176.109375 84.117188 176.160156 L 84.171875 176.273438 L 84.203125 176.300781 C 84.328125 176.492188 84.472656 176.652344 84.667969 176.78125 C 84.820312 176.886719 85.121094 177.070312 85.355469 177.074219 L 85.414062 177.101562 L 85.527344 177.097656 L 85.578125 177.132812 L 85.957031 177.132812 L 86.015625 177.105469 L 86.140625 177.101562 C 86.1875 177.0625 86.347656 177.054688 86.386719 177.101562 L 86.476562 177.101562 L 86.507812 177.132812 C 86.632812 177.160156 86.664062 177.210938 86.746094 177.296875 C 86.816406 177.371094 86.851562 177.449219 86.9375 177.503906 C 87.089844 177.601562 87.351562 177.613281 87.484375 177.359375 L 87.515625 177.332031 C 87.601562 176.953125 87.621094 176.730469 87.429688 176.445312 L 87.398438 176.417969 L 87.402344 176.386719 L 87.429688 176.359375 C 87.558594 176.355469 87.574219 176.347656 87.632812 176.273438 L 87.660156 176.242188 C 87.691406 176.113281 87.691406 176.175781 87.660156 176.050781 C 87.617188 176.050781 87.628906 176.058594 87.628906 176.015625 C 87.585938 175.921875 87.601562 175.835938 87.601562 175.699219 L 87.628906 175.671875 L 87.746094 175.558594 L 87.773438 175.53125 L 87.789062 175.53125 C 87.789062 175.484375 87.78125 175.5 87.832031 175.5 C 87.941406 175.492188 87.96875 175.472656 88.121094 175.472656 C 88.269531 175.46875 88.28125 175.445312 88.402344 175.445312 C 88.402344 175.402344 88.390625 175.414062 88.4375 175.414062 C 88.695312 175.355469 88.871094 175.136719 88.984375 174.929688 L 89.011719 174.902344 C 89.066406 174.851562 89.078125 174.824219 89.171875 174.8125 C 89.195312 174.800781 89.175781 174.804688 89.242188 174.789062 C 89.253906 174.785156 89.285156 174.785156 89.300781 174.785156 C 89.507812 174.777344 89.53125 174.648438 89.605469 174.574219 C 87.199219 173.417969 84.515625 172.738281 81.675781 172.671875 L 81.75 172.695312 L 81.8125 172.695312 L 81.839844 172.726562 C 81.941406 172.734375 81.976562 172.761719 82.070312 172.78125 C 82.121094 172.78125 82.109375 172.769531 82.109375 172.8125 L 82.15625 172.8125 L 82.183594 172.839844 C 82.3125 172.871094 82.46875 172.964844 82.5625 173.035156 C 82.871094 173.261719 83.039062 173.738281 83.625 173.722656 L 83.675781 173.753906 C 83.738281 173.765625 83.726562 173.761719 83.769531 173.785156 L 83.800781 173.8125 L 83.832031 173.898438 L 83.765625 173.898438 C 83.707031 173.941406 83.664062 173.949219 83.601562 173.898438 C 83.375 173.898438 83.164062 173.820312 82.96875 173.925781 L 82.933594 173.957031 C 82.894531 174.015625 82.863281 174.035156 82.875 174.152344 C 82.882812 174.222656 82.917969 174.285156 82.972656 174.320312 C 83.121094 174.417969 83.222656 174.304688 83.398438 174.300781 L 83.453125 174.265625 L 83.582031 174.269531 C 83.625 174.230469 83.636719 174.238281 83.710938 174.238281 C 83.792969 174.238281 83.820312 174.226562 83.855469 174.269531 L 83.882812 174.300781 L 83.855469 174.328125 L 83.789062 174.328125 L 83.710938 174.359375 C 83.523438 174.363281 83.316406 174.535156 83.28125 174.699219 L 83.25 174.726562 L 83.25 174.757812 C 83.25 174.804688 83.265625 174.792969 83.222656 174.792969 L 83.222656 175.128906 L 83.25 175.15625 C 83.269531 175.230469 83.277344 175.242188 83.308594 175.296875 Z M 81.128906 176.902344 C 81.082031 176.890625 81.054688 176.90625 81.089844 176.875 C 81.125 176.839844 81.195312 176.921875 81.128906 176.902344 Z M 79.042969 175.644531 L 78.902344 175.785156 C 78.820312 175.839844 78.828125 175.871094 78.738281 175.902344 L 78.671875 175.925781 C 78.535156 175.941406 78.53125 175.992188 78.527344 176.128906 C 78.574219 176.179688 78.589844 176.195312 78.671875 176.214844 C 78.648438 176.304688 78.675781 176.257812 78.605469 176.300781 L 78.527344 176.332031 L 78.375 176.332031 L 78.324219 176.359375 C 78.144531 176.359375 78.199219 176.386719 78.0625 176.417969 L 78.039062 176.417969 C 77.90625 176.40625 77.933594 176.367188 77.832031 176.363281 C 77.730469 176.355469 77.734375 176.394531 77.632812 176.417969 L 77.605469 176.441406 C 77.496094 176.472656 77.484375 176.503906 77.375 176.53125 C 77.375 176.800781 77.507812 176.722656 77.757812 176.753906 C 78.003906 176.785156 78.054688 176.65625 78.210938 176.617188 L 78.238281 176.589844 L 78.289062 176.589844 L 78.324219 176.5625 C 78.484375 176.542969 78.386719 176.554688 78.554688 176.5625 L 78.582031 176.589844 C 78.8125 176.695312 78.613281 176.558594 79.074219 176.816406 C 79.25 176.914062 79.132812 176.9375 79.246094 177.078125 L 79.277344 177.101562 L 79.707031 177.105469 L 79.734375 177.132812 L 79.765625 177.160156 L 79.789062 177.1875 C 79.824219 177.289062 79.808594 177.277344 79.910156 177.304688 L 80.054688 177.304688 L 80.226562 177.300781 L 80.277344 177.332031 C 80.421875 177.367188 80.308594 177.386719 80.515625 177.390625 L 80.546875 177.417969 L 80.601562 177.449219 L 80.628906 177.476562 C 80.695312 177.507812 80.753906 177.519531 80.792969 177.433594 C 80.839844 177.320312 80.765625 177.285156 80.714844 177.25 C 80.585938 177.152344 80.519531 177.09375 80.339844 177.042969 L 80.308594 177.019531 C 80.226562 177.015625 80.203125 177.011719 80.140625 176.984375 C 80.070312 176.957031 80.046875 176.933594 80.023438 176.875 L 80.167969 176.875 L 80.273438 176.902344 L 80.371094 176.902344 L 80.398438 176.929688 C 80.519531 176.941406 80.535156 176.976562 80.65625 176.988281 L 80.6875 177.019531 C 80.746094 177.03125 80.800781 177.039062 80.875 177.058594 C 80.972656 177.082031 80.976562 177.101562 81.089844 177.101562 C 81.152344 177.011719 81.136719 177.082031 81.148438 176.960938 C 81.238281 177.019531 81.167969 177.007812 81.292969 177.019531 C 81.335938 176.824219 81.304688 176.785156 81.148438 176.703125 L 81.117188 176.675781 L 81.089844 176.644531 L 81.0625 176.617188 C 80.988281 176.566406 81.003906 176.550781 80.90625 176.515625 C 80.832031 176.488281 80.78125 176.484375 80.707031 176.453125 C 80.550781 176.390625 80.488281 176.328125 80.371094 176.242188 L 80.34375 176.214844 C 80.246094 176.191406 80.285156 176.207031 80.226562 176.140625 L 80.199219 176.101562 C 80.222656 175.992188 80.210938 176.003906 80.285156 175.964844 L 80.308594 176.074219 C 80.34375 176.109375 80.261719 176.105469 80.371094 176.097656 C 80.433594 176.09375 80.394531 176.097656 80.429688 176.074219 C 80.429688 176.046875 80.425781 176.011719 80.429688 175.988281 C 80.449219 175.863281 80.429688 175.972656 80.457031 175.917969 L 80.457031 175.871094 C 80.542969 175.894531 80.542969 175.910156 80.628906 175.933594 L 80.683594 175.960938 C 80.8125 176.023438 80.808594 176.042969 81.003906 176.046875 L 81.03125 176.074219 L 81.03125 176.128906 C 81.070312 176.269531 81.097656 176.242188 81.261719 176.246094 L 81.292969 176.273438 C 81.355469 176.339844 81.363281 176.355469 81.492188 176.359375 C 81.539062 176.265625 81.503906 176.238281 81.546875 176.160156 C 81.546875 176.160156 81.609375 176.0625 81.609375 176.160156 L 81.753906 176.160156 C 81.980469 176.132812 82.195312 175.738281 81.90625 175.746094 C 81.617188 175.75 81.777344 175.703125 81.589844 175.660156 C 81.378906 175.609375 81.664062 175.722656 81.234375 175.613281 L 81.207031 175.585938 L 81.175781 175.558594 C 81.132812 175.558594 81.144531 175.570312 81.144531 175.53125 L 81.089844 175.5 L 81.0625 175.472656 C 80.957031 175.449219 80.753906 175.417969 80.628906 175.410156 L 80.597656 175.386719 C 80.398438 175.273438 80.542969 175.328125 80.28125 175.300781 C 80.078125 175.28125 80.195312 175.203125 80.226562 175.070312 L 80.253906 175.042969 C 80.269531 174.871094 80.332031 174.929688 80.429688 174.871094 L 80.429688 174.8125 L 80.425781 174.785156 L 80.390625 174.757812 L 80.339844 174.753906 L 80.316406 174.726562 L 79.960938 174.757812 L 79.910156 174.785156 L 79.847656 174.769531 C 79.910156 174.65625 79.867188 174.566406 79.726562 174.601562 C 79.5625 174.636719 79.855469 174.679688 79.4375 174.570312 C 79.226562 174.515625 79.308594 174.472656 79.191406 174.40625 C 79.058594 174.335938 79.007812 174.429688 78.875 174.441406 C 78.871094 174.449219 78.808594 174.539062 78.808594 174.441406 L 78.738281 174.441406 C 78.734375 174.445312 78.726562 174.453125 78.71875 174.453125 L 78.699219 174.464844 C 78.679688 174.472656 78.667969 174.46875 78.640625 174.46875 L 78.527344 174.46875 L 78.46875 174.441406 L 78.382812 174.441406 L 78.382812 174.355469 C 78.472656 174.355469 78.546875 174.359375 78.523438 174.25 C 78.503906 174.171875 78.429688 174.167969 78.355469 174.125 L 78.328125 174.097656 C 78.207031 174.097656 78.214844 174.105469 78.128906 174.128906 L 78.09375 174.15625 C 77.917969 174.160156 77.980469 174.207031 77.808594 174.214844 L 77.777344 174.242188 C 77.558594 174.261719 77.648438 174.441406 77.402344 174.441406 L 77.375 174.414062 C 77.230469 174.226562 77.097656 174.382812 76.929688 174.414062 C 76.917969 174.4375 76.878906 174.496094 76.878906 174.414062 C 76.808594 174.277344 76.984375 174.101562 76.769531 174.039062 L 76.652344 174.039062 C 76.554688 174.070312 76.589844 174.0625 76.523438 174.128906 C 76.503906 174.140625 76.507812 174.140625 76.464844 174.144531 C 76.425781 174.148438 76.429688 174.164062 76.429688 174.128906 L 76.367188 174.128906 L 76.335938 174.097656 C 76.222656 174.097656 76.21875 174.109375 76.136719 174.128906 L 76.105469 174.15625 C 75.941406 174.246094 76.023438 174.203125 75.933594 174.355469 C 75.882812 174.441406 75.820312 174.472656 75.761719 174.558594 C 75.78125 174.632812 75.757812 174.582031 75.789062 174.644531 L 75.84375 174.699219 C 75.878906 174.742188 75.875 174.632812 75.875 174.785156 C 75.859375 174.792969 75.78125 174.859375 75.703125 174.816406 C 75.699219 174.8125 75.605469 174.75 75.703125 174.75 C 75.691406 174.699219 75.695312 174.707031 75.675781 174.667969 L 75.640625 174.644531 C 75.3125 174.613281 75.730469 174.027344 75.320312 174.257812 C 75.296875 174.273438 75.292969 174.3125 75.097656 174.328125 L 75.070312 174.355469 C 74.921875 174.390625 74.875 174.347656 74.835938 174.472656 L 74.808594 174.5 C 74.722656 174.617188 74.738281 174.496094 74.691406 174.644531 L 74.667969 174.667969 C 74.613281 174.75 74.585938 174.765625 74.636719 174.871094 L 74.664062 174.898438 C 74.703125 174.921875 74.695312 174.917969 74.753906 174.929688 L 74.78125 174.902344 L 74.898438 174.902344 L 74.933594 174.929688 L 75.070312 174.929688 L 75.097656 174.902344 L 75.183594 174.898438 L 75.160156 174.957031 L 75.097656 174.984375 L 75.070312 174.984375 L 74.960938 174.957031 C 74.578125 174.957031 74.71875 175.191406 74.859375 175.179688 L 75.328125 175.101562 L 75.367188 175.128906 L 75.550781 175.128906 L 75.589844 175.101562 L 75.644531 175.101562 L 75.683594 175.128906 L 75.773438 175.128906 L 75.820312 175.09375 L 75.992188 175.101562 L 76.023438 175.128906 L 76.136719 175.128906 L 76.164062 175.101562 C 76.3125 175.097656 76.5 175.109375 76.601562 175.078125 C 76.777344 175.023438 76.734375 174.945312 76.90625 174.898438 L 77.109375 174.898438 L 77.144531 174.871094 L 77.3125 174.722656 C 77.351562 174.851562 77.425781 174.832031 77.546875 174.871094 C 77.695312 174.917969 77.660156 174.980469 77.835938 174.988281 C 77.9375 174.988281 77.890625 174.980469 77.945312 175.015625 C 78.035156 175.019531 78.136719 175.117188 78.355469 175.214844 C 78.421875 175.246094 78.441406 175.265625 78.5 175.300781 C 78.773438 175.457031 78.777344 175.316406 79.015625 175.605469 Z M 77.488281 186.523438 C 77.496094 186.273438 77.574219 186.027344 77.660156 185.859375 L 77.691406 185.832031 L 77.75 185.773438 C 77.808594 185.746094 77.851562 185.730469 77.921875 185.714844 L 77.949219 185.6875 C 78.144531 185.550781 78.085938 185.496094 78.203125 185.308594 C 78.300781 185.15625 78.382812 185.09375 78.527344 185 L 78.554688 184.972656 C 78.761719 184.832031 78.933594 184.660156 79.074219 184.457031 L 79.101562 184.425781 C 79.207031 184.234375 79.296875 184.0625 79.476562 183.941406 L 79.507812 183.914062 C 79.609375 183.859375 79.773438 183.753906 79.910156 183.742188 L 79.9375 183.710938 L 80.003906 183.710938 L 80.054688 183.679688 C 80.273438 183.691406 80.429688 183.664062 80.570312 183.597656 L 80.601562 183.570312 C 80.730469 183.535156 80.777344 183.441406 80.945312 183.425781 L 80.976562 183.398438 L 81.003906 183.398438 L 81.03125 183.367188 C 81.207031 183.355469 81.117188 183.355469 81.292969 183.367188 C 81.261719 183.480469 81.179688 183.511719 81.070312 183.539062 C 81.070312 183.582031 81.078125 183.570312 81.03125 183.570312 C 80.855469 183.609375 80.691406 183.695312 80.6875 183.910156 L 80.714844 183.941406 C 80.761719 184.117188 80.988281 184.136719 81.09375 184 C 81.132812 183.945312 81.15625 183.886719 81.210938 183.832031 C 81.28125 183.761719 81.320312 183.757812 81.410156 183.710938 L 81.4375 183.683594 C 81.539062 183.660156 81.519531 183.636719 81.636719 183.625 C 81.636719 183.585938 81.625 183.597656 81.667969 183.597656 L 81.746094 183.597656 L 81.8125 183.570312 C 82.011719 183.570312 82.082031 183.550781 82.242188 183.511719 C 82.261719 183.425781 82.273438 183.425781 82.273438 183.3125 L 82.183594 183.253906 L 82.15625 183.226562 L 82.019531 183.226562 C 81.949219 183.265625 81.902344 183.265625 81.816406 183.246094 L 81.773438 183.226562 C 81.558594 183.226562 81.363281 183.089844 81.277344 182.953125 C 81.21875 182.859375 81.214844 182.789062 81.152344 182.707031 C 81.078125 182.601562 81.023438 182.59375 80.917969 182.539062 L 80.890625 182.511719 L 80.980469 182.453125 C 81.007812 182.433594 80.984375 182.441406 81.035156 182.429688 C 81.058594 182.421875 81.097656 182.425781 81.121094 182.425781 C 81.25 182.414062 81.199219 182.402344 81.292969 182.339844 C 81.292969 182.289062 81.296875 182.1875 81.289062 182.144531 C 81.265625 182.046875 81.257812 182.066406 81.175781 182.023438 C 81.050781 182.023438 81.121094 182.019531 81.09375 181.996094 L 80.957031 181.996094 C 80.9375 182.003906 80.933594 182.011719 80.886719 182.023438 C 80.878906 182.023438 80.84375 182.023438 80.832031 182.027344 C 80.804688 182.027344 80.75 182.023438 80.714844 182.023438 C 80.523438 182.023438 80.492188 182.066406 80.34375 182.082031 L 80.3125 182.109375 C 80.148438 182.125 79.886719 182.269531 79.785156 182.359375 C 79.65625 182.476562 79.546875 182.667969 79.363281 182.710938 L 79.363281 182.625 L 79.390625 182.59375 C 79.460938 182.496094 79.546875 182.414062 79.65625 182.34375 C 79.722656 182.300781 79.898438 182.164062 79.9375 182.109375 L 79.964844 182.078125 L 79.996094 182.054688 C 80.140625 181.953125 80.257812 181.871094 80.457031 181.824219 L 80.484375 181.796875 C 80.605469 181.785156 80.6875 181.738281 80.796875 181.710938 L 80.832031 181.679688 C 80.886719 181.652344 80.945312 181.628906 81.023438 181.625 C 81.023438 181.582031 81.015625 181.59375 81.0625 181.59375 C 81.195312 181.59375 81.3125 181.566406 81.492188 181.566406 C 81.683594 181.566406 81.773438 181.59375 81.925781 181.597656 L 81.953125 181.625 C 82.09375 181.625 82.078125 181.648438 82.1875 181.652344 C 82.308594 181.652344 82.300781 181.625 82.449219 181.625 L 82.5 181.59375 C 82.636719 181.585938 82.785156 181.480469 82.878906 181.421875 L 82.90625 181.394531 C 82.988281 181.351562 83.035156 181.3125 83.152344 181.308594 C 83.152344 181.265625 83.140625 181.28125 83.191406 181.28125 C 83.480469 181.28125 83.59375 181.289062 83.765625 181.164062 C 83.765625 181.125 83.753906 181.132812 83.796875 181.132812 L 83.828125 181.109375 L 83.855469 181.078125 C 83.976562 180.902344 84.003906 180.835938 84 180.535156 C 84 180.425781 84.003906 180.300781 84 180.191406 C 83.992188 180.054688 83.953125 180.003906 83.941406 179.878906 L 83.914062 179.847656 L 83.914062 179.828125 L 83.886719 179.792969 L 83.828125 179.679688 L 83.796875 179.648438 L 83.765625 179.621094 L 83.683594 179.535156 L 83.652344 179.507812 C 83.585938 179.460938 83.539062 179.414062 83.453125 179.390625 L 83.421875 179.363281 C 83.144531 179.300781 83.050781 179.289062 82.765625 179.363281 C 82.765625 179.402344 82.777344 179.390625 82.734375 179.390625 C 82.511719 179.410156 82.335938 179.472656 82.148438 179.339844 C 81.976562 179.214844 81.984375 179.101562 81.925781 178.886719 C 81.882812 178.886719 81.898438 178.894531 81.898438 178.847656 C 81.863281 178.785156 81.847656 178.761719 81.8125 178.707031 L 81.777344 178.679688 L 81.75 178.652344 L 81.722656 178.621094 L 81.636719 178.5625 L 81.609375 178.53125 C 81.503906 178.457031 81.578125 178.519531 81.539062 178.375 C 81.507812 178.28125 81.496094 178.261719 81.4375 178.21875 L 81.40625 178.191406 C 81.242188 178.109375 81.070312 178.164062 80.988281 178.289062 C 80.796875 178.574219 80.582031 178.703125 80.183594 178.601562 C 79.984375 178.550781 79.914062 178.515625 79.824219 178.367188 C 79.78125 178.367188 79.792969 178.378906 79.792969 178.332031 L 79.792969 178.300781 C 79.753906 178.25 79.777344 178.316406 79.765625 178.21875 C 79.761719 178.199219 79.765625 178.132812 79.765625 178.105469 C 79.703125 177.84375 79.511719 177.8125 79.304688 177.703125 L 79.273438 177.675781 C 79.183594 177.613281 79.144531 177.535156 79.015625 177.503906 L 78.988281 177.476562 C 78.894531 177.429688 78.777344 177.386719 78.640625 177.390625 L 78.382812 177.390625 C 78.242188 177.386719 78.261719 177.414062 78.148438 177.417969 C 78.019531 177.421875 78.058594 177.390625 77.921875 177.390625 C 77.84375 177.390625 77.734375 177.410156 77.699219 177.359375 C 77.574219 177.335938 77.59375 177.289062 77.480469 177.320312 C 77.472656 177.320312 77.386719 177.371094 77.386719 177.371094 C 77.324219 177.4375 77.359375 177.328125 77.34375 177.476562 L 77.34375 177.558594 C 77.355469 177.660156 77.367188 177.6875 77.375 177.816406 C 77.382812 177.945312 77.410156 177.992188 77.425781 178.082031 C 77.472656 178.375 77.332031 178.308594 77.230469 178.503906 L 77.203125 178.535156 C 77.203125 178.78125 77.195312 178.808594 77.363281 178.917969 C 77.476562 178.992188 77.582031 179.054688 77.621094 179.203125 C 77.710938 179.53125 77.382812 179.78125 77.203125 179.878906 L 77.171875 179.90625 C 76.96875 180.015625 76.796875 180.109375 76.828125 180.449219 C 76.839844 180.585938 76.882812 180.664062 76.886719 180.820312 C 76.890625 181.019531 76.863281 181.078125 76.828125 181.222656 L 76.796875 181.25 C 76.660156 181.460938 76.40625 181.515625 76.25 181.28125 L 76.222656 181.25 C 76.148438 181.113281 76.125 181.039062 76.082031 180.875 C 76.058594 180.773438 76.023438 180.523438 76.019531 180.414062 L 75.988281 180.363281 C 75.964844 180.246094 75.859375 180.082031 75.78125 180.003906 C 75.746094 179.96875 75.648438 179.902344 75.617188 179.878906 C 75.550781 179.835938 75.503906 179.800781 75.414062 179.792969 L 75.386719 179.765625 C 75.246094 179.765625 75.261719 179.738281 75.15625 179.738281 C 75.03125 179.734375 75.042969 179.765625 74.894531 179.765625 L 74.867188 179.792969 L 74.800781 179.792969 C 74.742188 179.84375 74.621094 179.835938 74.550781 179.792969 L 74.40625 179.792969 L 74.324219 179.765625 C 74.121094 179.765625 74.046875 179.707031 73.859375 179.707031 L 73.804688 179.679688 C 73.675781 179.667969 73.410156 179.558594 73.3125 179.503906 L 73.285156 179.476562 C 73.1875 179.414062 72.980469 179.148438 72.929688 179.03125 C 72.886719 178.933594 72.851562 178.832031 72.847656 178.703125 C 72.847656 178.527344 72.898438 178.480469 72.910156 178.332031 L 72.9375 178.300781 L 72.9375 178.277344 L 72.964844 178.246094 C 72.988281 178.207031 73 178.171875 73.023438 178.132812 C 73.058594 178.078125 73.074219 178.074219 73.109375 178.019531 C 73.109375 177.976562 73.097656 177.988281 73.140625 177.988281 C 73.1875 177.921875 73.203125 177.914062 73.226562 177.816406 C 73.226562 177.773438 73.214844 177.785156 73.253906 177.785156 L 73.253906 177.761719 L 73.285156 177.734375 C 73.308594 177.628906 73.316406 177.617188 73.394531 177.554688 C 73.445312 177.511719 73.507812 177.464844 73.570312 177.445312 L 73.601562 177.417969 L 73.625 177.417969 L 73.65625 177.390625 C 73.800781 177.378906 73.796875 177.332031 73.964844 177.332031 C 73.964844 177.289062 73.953125 177.304688 74.003906 177.304688 C 74.148438 177.300781 74.222656 177.246094 74.347656 177.21875 L 74.378906 177.191406 C 74.535156 177.152344 74.851562 176.957031 74.925781 176.847656 C 74.90625 176.761719 74.929688 176.804688 74.867188 176.761719 L 74.808594 176.761719 L 74.753906 176.757812 L 74.808594 176.730469 C 75.070312 176.507812 75.132812 176.269531 75.3125 176.234375 C 75.460938 176.207031 75.515625 176.34375 75.691406 176.292969 C 75.792969 176.261719 75.753906 176.230469 75.859375 176.199219 C 75.933594 176.175781 76.027344 176.1875 76.105469 176.1875 L 76.136719 176.160156 L 76.160156 176.160156 L 76.191406 176.128906 C 76.25 176.101562 76.246094 176.105469 76.300781 176.0625 C 76.375 176.007812 76.316406 176.015625 76.421875 175.988281 L 76.453125 175.960938 C 76.621094 175.917969 76.574219 175.734375 76.46875 175.65625 C 76.363281 175.570312 76.285156 175.476562 76.191406 175.414062 L 76.160156 175.386719 L 76.105469 175.386719 C 76.058594 175.386719 76.070312 175.398438 76.070312 175.359375 L 75.910156 175.359375 L 75.875 175.386719 C 75.761719 175.414062 75.757812 175.449219 75.640625 175.472656 L 75.589844 175.503906 C 75.289062 175.570312 75.621094 175.824219 75.234375 175.902344 L 75.183594 175.933594 C 74.972656 175.925781 75.003906 176.007812 74.78125 175.902344 C 74.867188 175.789062 74.910156 175.875 74.925781 175.699219 L 74.925781 175.671875 C 74.910156 175.496094 74.753906 175.511719 74.632812 175.550781 C 74.496094 175.59375 74.480469 175.660156 74.347656 175.730469 L 74.292969 175.671875 L 74.261719 175.644531 L 74.234375 175.617188 C 74.160156 175.554688 74.117188 175.523438 73.976562 175.527344 C 73.851562 175.53125 73.789062 175.558594 73.71875 175.621094 C 73.542969 175.78125 73.675781 175.875 73.398438 176.015625 L 73.226562 176.1875 L 73.195312 176.214844 C 73.148438 176.308594 73.117188 176.363281 73.023438 176.417969 C 72.882812 176.496094 72.863281 176.457031 72.707031 176.445312 C 72.664062 176.445312 72.675781 176.457031 72.675781 176.417969 C 72.519531 176.378906 72.542969 176.359375 72.332031 176.359375 L 72.246094 176.359375 C 71.890625 176.359375 71.871094 176.480469 71.636719 176.53125 L 71.582031 176.5625 C 71.464844 176.558594 71.367188 176.601562 71.261719 176.613281 C 71.144531 176.625 70.984375 176.617188 70.863281 176.617188 L 70.835938 176.644531 L 70.726562 176.644531 L 70.660156 176.675781 C 70.394531 176.695312 70.261719 176.875 70.027344 176.929688 L 70 176.960938 C 69.867188 176.992188 69.800781 177.042969 69.644531 177.046875 L 69.597656 177.078125 C 69.464844 177.074219 69.445312 177.105469 69.339844 177.132812 L 69.308594 177.160156 L 69.230469 177.160156 L 69.191406 177.1875 C 69.058594 177.191406 69 177.234375 68.875 177.246094 C 68.851562 177.246094 68.722656 177.25 68.703125 177.246094 L 68.695312 177.246094 C 67.050781 178.640625 65.644531 180.308594 64.546875 182.175781 C 64.585938 182.195312 64.628906 182.234375 64.671875 182.304688 L 64.695312 182.339844 C 64.71875 182.417969 64.738281 182.488281 64.757812 182.570312 L 64.785156 182.597656 C 64.796875 182.730469 64.839844 182.730469 64.871094 182.839844 C 64.914062 182.839844 64.898438 182.832031 64.898438 182.882812 L 65.042969 183.164062 C 65.085938 183.164062 65.074219 183.152344 65.074219 183.195312 C 65.101562 183.320312 65.175781 183.417969 65.1875 183.5625 L 65.214844 183.597656 C 65.222656 183.828125 65.304688 183.976562 65.273438 184.28125 C 65.261719 184.363281 65.230469 184.5 65.207031 184.585938 C 65.167969 184.722656 65.113281 184.757812 65.101562 184.886719 L 65.074219 184.914062 C 65.0625 185.039062 65.023438 185.046875 65.019531 185.171875 L 64.988281 185.25 L 64.992188 185.3125 L 64.957031 185.363281 C 64.957031 185.503906 64.933594 185.515625 64.929688 185.65625 C 64.921875 185.796875 64.898438 185.835938 64.898438 185.945312 L 64.957031 186.523438 L 64.992188 186.574219 L 64.988281 186.636719 L 65.015625 186.714844 C 65.023438 186.839844 65.0625 186.851562 65.074219 186.972656 L 65.101562 187.003906 C 65.113281 187.125 65.175781 187.191406 65.1875 187.335938 L 65.214844 187.375 C 65.21875 187.472656 65.230469 187.507812 65.242188 187.582031 C 65.253906 187.679688 65.253906 187.738281 65.257812 187.777344 C 65.277344 187.941406 65.320312 188.003906 65.449219 188.089844 L 65.476562 188.117188 C 65.695312 188.167969 66.003906 188.339844 66.023438 188.574219 C 66.039062 188.597656 66.039062 188.589844 66.050781 188.632812 C 66.054688 188.644531 66.050781 188.675781 66.050781 188.691406 C 66.054688 188.933594 66.082031 189.09375 66.160156 189.273438 C 66.210938 189.398438 66.226562 189.382812 66.304688 189.472656 C 66.367188 189.542969 66.414062 189.613281 66.457031 189.691406 L 66.484375 189.722656 C 66.550781 190.515625 66.511719 190.144531 66.808594 190.429688 C 66.902344 190.515625 66.917969 190.527344 66.976562 190.636719 L 67.003906 190.664062 C 67.027344 190.914062 67.117188 191.109375 67.257812 191.300781 L 67.320312 191.378906 L 67.519531 191.578125 C 67.5625 191.601562 67.546875 191.609375 67.601562 191.59375 C 67.722656 191.558594 67.636719 191.605469 67.667969 191.523438 L 67.667969 191.464844 C 67.613281 191.390625 67.542969 191.3125 67.492188 191.234375 L 67.464844 191.207031 L 67.464844 191.179688 L 67.433594 191.152344 C 67.40625 191.089844 67.386719 191.039062 67.378906 190.953125 L 67.347656 190.921875 L 67.347656 190.777344 L 67.320312 190.691406 C 67.3125 190.589844 67.285156 190.558594 67.261719 190.464844 L 67.234375 190.4375 L 67.234375 190.414062 L 67.207031 190.378906 C 67.164062 190.214844 66.984375 189.945312 66.859375 189.863281 L 66.832031 189.835938 L 66.800781 189.808594 C 66.761719 189.808594 66.769531 189.820312 66.769531 189.777344 C 66.722656 189.699219 66.640625 189.589844 66.628906 189.472656 C 66.585938 189.472656 66.597656 189.480469 66.597656 189.433594 C 66.597656 189.328125 66.5625 189.222656 66.554688 189.109375 C 66.550781 189.058594 66.550781 189.023438 66.566406 188.972656 C 66.597656 188.867188 66.582031 188.890625 66.652344 188.863281 C 66.660156 188.855469 66.722656 188.757812 66.722656 188.863281 C 66.820312 188.894531 66.855469 188.988281 66.859375 189.113281 L 66.886719 189.148438 L 66.886719 189.203125 L 66.917969 189.234375 L 66.976562 189.425781 C 67.015625 189.425781 67.003906 189.417969 67.003906 189.464844 C 67.027344 189.570312 67.148438 189.734375 67.207031 189.832031 C 67.246094 189.832031 67.234375 189.820312 67.234375 189.863281 C 67.304688 189.972656 67.320312 189.988281 67.414062 190.085938 C 67.464844 190.136719 67.554688 190.246094 67.589844 190.3125 C 67.753906 190.605469 67.507812 190.546875 67.898438 190.808594 L 68.15625 191.066406 L 68.1875 191.09375 C 68.246094 191.191406 68.328125 191.28125 68.394531 191.398438 C 68.453125 191.503906 68.535156 191.648438 68.558594 191.761719 L 68.59375 191.808594 C 68.59375 191.933594 68.640625 191.988281 68.644531 192.121094 L 68.675781 192.152344 C 68.675781 192.386719 68.78125 192.574219 68.898438 192.703125 C 69.003906 192.820312 69.191406 192.976562 69.367188 193.007812 L 69.417969 193.039062 C 69.480469 193.066406 69.585938 193.109375 69.652344 193.125 L 69.6875 193.152344 C 69.769531 193.175781 69.769531 193.191406 69.855469 193.214844 L 69.890625 193.238281 C 69.992188 193.265625 70.007812 193.300781 70.113281 193.324219 L 70.144531 193.355469 L 70.519531 193.527344 L 70.546875 193.554688 C 70.613281 193.589844 70.664062 193.617188 70.722656 193.664062 C 70.800781 193.726562 70.792969 193.738281 70.890625 193.785156 C 71.09375 193.878906 71.179688 193.828125 71.382812 193.78125 L 71.4375 193.753906 L 71.726562 193.753906 C 71.777344 193.753906 71.769531 193.742188 71.769531 193.78125 L 71.902344 193.839844 L 71.929688 193.867188 L 71.957031 193.898438 L 71.988281 193.925781 C 72.039062 194.027344 72.070312 194.09375 72.132812 194.183594 L 72.160156 194.210938 L 72.191406 194.238281 L 72.21875 194.269531 L 72.246094 194.296875 C 72.328125 194.351562 72.316406 194.367188 72.421875 194.410156 C 72.488281 194.4375 72.570312 194.464844 72.648438 194.472656 L 72.71875 194.5 L 72.765625 194.492188 L 72.8125 194.527344 C 72.964844 194.53125 73.019531 194.582031 73.167969 194.585938 L 73.195312 194.613281 C 73.386719 194.628906 73.523438 194.746094 73.6875 194.785156 L 73.714844 194.8125 C 73.789062 194.863281 73.796875 194.859375 73.855469 194.929688 C 73.910156 194.992188 73.921875 195.003906 73.945312 195.089844 C 73.988281 195.089844 73.976562 195.082031 73.976562 195.128906 C 73.996094 195.222656 74.035156 195.277344 74.0625 195.382812 L 74.089844 195.414062 C 74.101562 195.539062 74.132812 195.597656 74.195312 195.683594 C 74.257812 195.765625 74.300781 195.8125 74.40625 195.84375 L 74.4375 195.871094 L 74.464844 195.871094 L 74.492188 195.902344 C 74.550781 195.929688 74.5625 195.941406 74.636719 195.957031 L 74.664062 195.988281 C 74.824219 196.023438 74.914062 196.117188 75.070312 196.160156 L 75.097656 196.1875 C 75.164062 196.222656 75.214844 196.253906 75.300781 196.273438 L 75.328125 196.300781 C 75.425781 196.324219 75.574219 196.402344 75.664062 196.453125 C 75.789062 196.519531 75.828125 196.636719 75.960938 196.671875 L 76.019531 196.671875 C 76.125 196.644531 76.082031 196.640625 76.164062 196.585938 C 76.164062 196.355469 76.140625 196.210938 76.367188 196.1875 C 76.511719 196.171875 76.730469 196.246094 76.769531 196.386719 L 76.796875 196.414062 C 76.796875 196.515625 76.785156 196.558594 76.734375 196.609375 C 76.671875 196.675781 76.652344 196.660156 76.558594 196.695312 C 76.371094 196.761719 76.417969 196.867188 76.203125 196.875 L 76.136719 196.902344 C 76.015625 196.933594 75.964844 197.007812 75.964844 197.160156 L 75.933594 197.1875 C 75.914062 197.273438 75.882812 197.320312 75.847656 197.386719 L 75.820312 197.417969 C 75.746094 197.527344 75.667969 197.570312 75.589844 197.703125 C 75.53125 197.804688 75.441406 197.957031 75.453125 198.105469 L 75.414062 198.152344 L 75.414062 198.527344 L 75.445312 198.589844 L 75.453125 199.046875 L 75.414062 199.09375 L 75.414062 199.164062 C 75.414062 199.207031 75.425781 199.195312 75.386719 199.195312 C 75.371094 199.265625 75.359375 199.28125 75.328125 199.335938 L 75.300781 199.363281 C 75.214844 199.488281 75.105469 199.542969 75.019531 199.683594 C 75.003906 199.703125 74.972656 199.761719 74.964844 199.773438 C 74.867188 199.875 74.742188 199.78125 74.695312 199.964844 L 74.667969 199.992188 L 74.667969 200.101562 C 74.6875 200.132812 74.679688 200.101562 74.683594 200.15625 C 74.6875 200.199219 74.714844 200.191406 74.667969 200.191406 C 74.660156 200.492188 74.40625 200.507812 74.472656 200.753906 C 74.5 200.847656 74.539062 200.871094 74.636719 200.878906 L 74.667969 200.90625 L 74.695312 200.90625 L 74.726562 200.933594 L 74.753906 200.964844 C 74.746094 201.160156 74.625 201.179688 74.492188 201.25 L 74.464844 201.28125 C 74.425781 201.339844 74.367188 201.398438 74.421875 201.519531 C 74.476562 201.648438 74.519531 201.535156 74.523438 201.738281 L 74.492188 201.765625 L 74.492188 201.878906 L 74.578125 201.964844 C 74.65625 201.984375 74.664062 201.992188 74.722656 202.023438 L 74.753906 202.050781 C 74.902344 202.15625 75.046875 202.246094 75.160156 202.390625 C 75.25 202.5 75.378906 202.730469 75.414062 202.882812 L 75.445312 202.910156 C 75.46875 203.007812 75.566406 203.195312 75.617188 203.28125 C 75.652344 203.339844 75.695312 203.398438 75.730469 203.457031 C 75.777344 203.535156 75.804688 203.558594 75.847656 203.625 L 75.875 203.65625 C 76.097656 203.976562 76.390625 204.261719 76.710938 204.484375 L 76.742188 204.511719 C 76.867188 204.597656 76.910156 204.636719 77.058594 204.710938 L 77.085938 204.742188 L 77.316406 204.855469 C 77.367188 204.855469 77.359375 204.839844 77.359375 204.882812 C 77.453125 204.914062 77.472656 204.945312 77.574219 204.972656 L 77.605469 205 C 77.816406 205.050781 78.046875 205.359375 78.066406 205.609375 C 78.125 205.679688 78.09375 206.046875 78.09375 206.171875 L 78.078125 206.734375 C 78.074219 206.730469 78.070312 206.746094 78.066406 206.753906 L 78.066406 206.886719 L 78.035156 206.917969 C 78.035156 207.0625 77.992188 207.070312 77.976562 207.203125 L 77.949219 207.230469 C 77.929688 207.320312 77.914062 207.3125 77.894531 207.402344 L 77.863281 207.429688 C 77.828125 207.507812 77.78125 207.632812 77.777344 207.746094 L 77.777344 208.058594 C 77.777344 208.203125 77.804688 208.203125 77.808594 208.347656 C 77.8125 208.5 77.777344 208.539062 77.78125 208.660156 L 77.75 208.714844 C 77.710938 208.789062 77.683594 208.8125 77.660156 208.890625 L 77.632812 208.917969 C 77.609375 209.023438 77.585938 209 77.574219 209.117188 L 77.546875 209.183594 L 77.546875 209.261719 L 77.519531 209.316406 L 77.519531 209.632812 L 77.546875 209.691406 L 77.546875 209.765625 L 77.578125 209.835938 C 77.597656 209.925781 77.625 209.960938 77.632812 210.058594 L 77.660156 210.121094 C 77.664062 210.300781 77.695312 210.289062 77.667969 210.441406 C 77.652344 210.527344 77.636719 210.574219 77.617188 210.621094 C 78.214844 210.734375 78.824219 210.816406 79.441406 210.875 C 79.429688 210.773438 79.410156 210.824219 79.449219 210.664062 C 79.449219 210.613281 79.433594 210.621094 79.476562 210.621094 C 79.628906 210.46875 79.78125 210.242188 80.074219 210.234375 L 80.140625 210.207031 C 80.277344 210.203125 80.292969 210.195312 80.382812 210.132812 C 80.492188 210.058594 80.484375 210.054688 80.542969 209.949219 L 80.570312 209.921875 L 80.597656 209.863281 L 80.628906 209.835938 L 80.65625 209.804688 L 80.6875 209.777344 L 80.820312 209.71875 C 80.820312 209.675781 80.8125 209.691406 80.859375 209.691406 L 80.914062 209.691406 C 80.9375 209.679688 80.929688 209.675781 80.976562 209.667969 L 81.160156 209.679688 C 81.164062 209.675781 81.171875 209.6875 81.179688 209.691406 L 81.234375 209.691406 C 81.28125 209.691406 81.273438 209.675781 81.273438 209.71875 L 81.523438 209.71875 L 81.550781 209.691406 C 81.757812 209.675781 81.84375 209.507812 81.941406 209.363281 C 82.039062 209.226562 82.207031 209.105469 82.382812 209.0625 L 82.414062 209.035156 C 82.503906 209.011719 82.5 208.996094 82.585938 208.976562 L 82.617188 208.945312 C 82.722656 208.917969 82.652344 208.917969 82.761719 208.890625 L 82.789062 208.863281 C 82.867188 208.820312 82.917969 208.785156 82.992188 208.746094 L 83.019531 208.714844 C 83.3125 208.539062 83.636719 208.203125 83.828125 207.917969 L 83.855469 207.886719 L 83.882812 207.859375 C 83.929688 207.832031 83.953125 207.808594 84.003906 207.78125 C 84.066406 207.746094 84.085938 207.746094 84.144531 207.714844 L 84.171875 207.6875 C 84.28125 207.660156 84.289062 207.628906 84.320312 207.515625 L 84.347656 207.476562 L 84.34375 207.203125 L 84.375 207.171875 C 84.382812 207.078125 84.398438 207.066406 84.429688 207 L 84.460938 206.972656 L 84.605469 206.828125 L 84.660156 206.800781 L 84.691406 206.773438 L 84.714844 206.773438 L 84.75 206.746094 C 84.847656 206.722656 84.886719 206.6875 85.007812 206.6875 L 85.035156 206.660156 L 85.097656 206.660156 L 85.152344 206.628906 C 85.273438 206.621094 85.289062 206.582031 85.410156 206.574219 L 85.441406 206.542969 C 85.558594 206.515625 85.621094 206.460938 85.777344 206.457031 C 85.820312 206.4375 85.738281 206.453125 85.84375 206.433594 C 85.863281 206.429688 85.910156 206.429688 85.929688 206.429688 C 86.207031 206.425781 86.25 206.402344 86.417969 206.285156 L 86.449219 206.257812 L 86.476562 206.230469 L 86.503906 206.199219 L 86.535156 206.171875 C 86.589844 206.09375 86.640625 206.039062 86.648438 205.914062 C 86.648438 205.867188 86.636719 205.878906 86.679688 205.878906 C 86.695312 205.816406 86.710938 205.765625 86.738281 205.714844 C 86.738281 205.667969 86.722656 205.675781 86.765625 205.675781 C 86.820312 205.589844 86.859375 205.558594 86.910156 205.484375 L 86.9375 205.453125 C 86.976562 205.398438 87.015625 205.34375 87.054688 205.285156 C 87.054688 205.238281 87.042969 205.25 87.082031 205.25 C 87.136719 205.164062 87.257812 204.980469 87.285156 204.882812 C 87.285156 204.835938 87.269531 204.84375 87.3125 204.84375 C 87.335938 204.769531 87.351562 204.769531 87.371094 204.683594 C 87.371094 204.632812 87.355469 204.640625 87.398438 204.640625 L 87.398438 204.597656 L 87.429688 204.570312 C 87.449219 204.476562 87.476562 204.445312 87.484375 204.339844 L 87.515625 204.285156 C 87.527344 204.148438 87.570312 204.066406 87.574219 203.910156 C 87.574219 203.886719 87.574219 203.851562 87.578125 203.828125 C 87.585938 203.773438 87.585938 203.796875 87.601562 203.769531 L 87.601562 203.710938 L 87.628906 203.652344 C 87.644531 203.585938 87.660156 203.539062 87.6875 203.484375 L 87.714844 203.453125 L 87.746094 203.398438 L 87.769531 203.367188 L 87.804688 203.339844 L 87.832031 203.3125 C 87.96875 203.214844 88.019531 203.117188 88.1875 203.007812 C 88.398438 202.871094 88.40625 202.867188 88.523438 202.652344 L 88.550781 202.621094 C 88.582031 202.5 88.636719 202.421875 88.636719 202.28125 C 88.636719 202.144531 88.636719 202.226562 88.667969 202.191406 L 88.667969 201.722656 C 88.621094 201.722656 88.636719 201.730469 88.636719 201.679688 L 88.609375 201.625 L 88.519531 201.535156 C 88.484375 201.515625 88.492188 201.519531 88.4375 201.507812 C 88.367188 201.507812 88.277344 201.523438 88.242188 201.480469 C 88.003906 201.476562 87.9375 201.394531 87.792969 201.285156 C 87.695312 201.210938 87.492188 201.085938 87.339844 201.082031 L 87.289062 201.050781 C 87.144531 201.046875 87.023438 200.996094 86.878906 200.992188 L 86.820312 200.964844 L 86.765625 200.964844 C 86.71875 200.964844 86.726562 200.976562 86.726562 200.9375 C 86.585938 200.921875 86.257812 200.789062 86.140625 200.726562 C 85.980469 200.640625 85.789062 200.492188 85.613281 200.449219 C 85.566406 200.449219 85.574219 200.464844 85.574219 200.421875 L 85.382812 200.363281 C 85.335938 200.363281 85.347656 200.375 85.347656 200.335938 L 85.296875 200.335938 C 85.246094 200.335938 85.257812 200.347656 85.257812 200.304688 C 85.136719 200.296875 85.085938 200.25 84.949219 200.25 L 84.871094 200.222656 C 84.726562 200.21875 84.621094 200.191406 84.429688 200.191406 C 84.210938 200.195312 84.121094 200.234375 84.113281 200.019531 L 84.144531 199.992188 C 84.289062 199.703125 83.96875 199.71875 83.941406 199.425781 L 83.914062 199.390625 L 83.914062 199.363281 L 83.882812 199.304688 C 83.820312 199.023438 83.539062 198.773438 83.308594 198.644531 L 83.28125 198.617188 C 83.210938 198.582031 83.203125 198.570312 83.105469 198.5625 L 83.078125 198.53125 C 82.863281 198.515625 82.796875 198.445312 82.515625 198.492188 C 82.140625 198.554688 81.925781 198.492188 81.628906 198.199219 C 81.457031 198.023438 81.480469 197.933594 81.351562 197.847656 L 81.316406 197.816406 C 81.242188 197.777344 81.195312 197.742188 81.089844 197.730469 C 81.0625 197.730469 81.03125 197.730469 81.003906 197.726562 C 80.882812 197.710938 80.988281 197.730469 80.9375 197.703125 C 80.835938 197.699219 80.78125 197.675781 80.714844 197.648438 L 80.6875 197.617188 L 80.65625 197.589844 C 80.613281 197.492188 80.597656 197.375 80.503906 197.3125 C 80.460938 197.285156 80.230469 197.222656 80.167969 197.214844 L 80.140625 197.1875 C 80.082031 197.148438 80.050781 197.121094 79.964844 197.101562 L 79.9375 197.074219 C 79.808594 197.074219 79.664062 197.0625 79.554688 197.089844 C 79.367188 197.140625 79.410156 197.144531 79.21875 197.101562 L 79.1875 197.074219 C 79.128906 197.035156 79.113281 197.023438 79.042969 196.988281 C 79 196.988281 79.007812 197 79.007812 196.960938 C 78.953125 196.945312 78.8125 196.910156 78.757812 196.910156 C 78.675781 196.910156 78.597656 196.949219 78.496094 196.960938 C 78.46875 197.003906 78.496094 197.003906 78.46875 196.960938 C 78.335938 196.949219 78.335938 196.886719 78.238281 196.816406 C 78.164062 196.757812 78.074219 196.710938 77.949219 196.699219 C 77.675781 196.683594 77.550781 196.824219 77.460938 196.988281 L 77.433594 197.023438 L 77.433594 197.132812 L 77.402344 197.160156 L 77.402344 197.214844 L 77.433594 197.246094 L 77.433594 197.386719 C 77.363281 197.386719 77.300781 197.398438 77.214844 197.289062 C 77.175781 197.238281 77.191406 197.28125 77.171875 197.207031 L 77.140625 197.160156 C 77.148438 196.992188 77.113281 196.949219 77.113281 196.789062 C 77.113281 196.621094 77.089844 196.542969 77.085938 196.414062 L 77.058594 196.386719 C 77.039062 196.308594 77.011719 196.25 76.964844 196.191406 C 76.90625 196.109375 76.957031 196.167969 76.894531 196.117188 C 76.855469 196.082031 76.835938 196.070312 76.796875 196.042969 L 76.769531 196.015625 L 76.742188 196.015625 C 76.695312 196.015625 76.707031 196.027344 76.707031 195.988281 C 76.636719 195.96875 76.632812 195.960938 76.539062 195.957031 L 76.25 195.957031 C 76.128906 195.96875 76.15625 195.988281 76.046875 196.015625 L 76.019531 196.042969 C 75.804688 196.097656 75.730469 196.152344 75.5 196.042969 L 75.472656 196.015625 C 75.300781 195.898438 75.300781 195.902344 75.183594 195.730469 L 75.15625 195.699219 C 75.113281 195.621094 75.09375 195.570312 75.070312 195.472656 L 75.039062 195.441406 C 75.039062 195.234375 74.992188 195.152344 75.03125 194.917969 C 75.070312 194.695312 75.097656 194.65625 75.097656 194.390625 C 75.058594 194.390625 75.070312 194.398438 75.070312 194.355469 C 75.058594 194.242188 75.023438 194.195312 74.964844 194.117188 C 74.890625 194.019531 74.875 194.015625 74.78125 193.957031 L 74.753906 193.925781 C 74.632812 193.898438 74.671875 193.871094 74.523438 193.871094 L 73.917969 193.871094 C 73.875 193.867188 73.878906 193.871094 73.839844 193.859375 C 73.835938 193.859375 73.824219 193.859375 73.820312 193.851562 C 73.816406 193.84375 73.8125 193.84375 73.804688 193.839844 L 73.746094 193.839844 L 73.714844 193.8125 C 73.476562 193.757812 73.460938 193.542969 73.484375 193.242188 C 73.496094 193.144531 73.523438 192.996094 73.546875 192.902344 C 73.578125 192.792969 73.632812 192.6875 73.660156 192.582031 L 73.6875 192.550781 C 73.75 192.4375 73.78125 192.398438 73.863281 192.300781 C 73.957031 192.1875 73.984375 192.175781 73.945312 192.007812 C 73.667969 191.945312 73.382812 191.988281 73.132812 192.039062 L 73.082031 192.074219 C 72.9375 192.09375 72.855469 192.207031 72.824219 192.351562 C 72.824219 192.414062 72.839844 192.457031 72.792969 192.484375 C 72.785156 192.625 72.742188 192.726562 72.679688 192.8125 C 72.617188 192.894531 72.515625 192.972656 72.378906 192.980469 C 72.328125 193.027344 72.332031 193.011719 72.246094 193.011719 L 71.957031 193.011719 C 71.917969 193.011719 71.917969 193.011719 71.878906 193.003906 C 71.871094 193 71.859375 193.003906 71.855469 192.992188 C 71.851562 192.984375 71.84375 192.984375 71.835938 192.980469 C 71.496094 192.980469 71.199219 192.753906 71.066406 192.550781 L 71.039062 192.523438 C 70.972656 192.429688 70.925781 192.378906 70.863281 192.265625 L 70.835938 192.238281 L 70.71875 191.988281 C 70.675781 191.988281 70.691406 191.996094 70.691406 191.953125 C 70.667969 191.863281 70.640625 191.753906 70.632812 191.65625 L 70.597656 191.578125 L 70.605469 191.152344 L 70.632812 191.089844 C 70.660156 190.777344 70.914062 190.746094 70.921875 190.40625 C 70.921875 190.359375 70.90625 190.371094 70.949219 190.371094 L 70.949219 190.320312 L 70.980469 190.289062 L 71.007812 190.179688 L 71.035156 190.144531 L 71.039062 190.121094 L 71.066406 190.09375 C 71.183594 189.867188 71.359375 189.695312 71.582031 189.578125 L 71.613281 189.550781 C 71.703125 189.527344 71.695312 189.511719 71.789062 189.492188 L 71.8125 189.464844 L 71.839844 189.464844 L 71.902344 189.4375 C 72.066406 189.417969 72.128906 189.375 72.332031 189.375 C 72.492188 189.375 72.652344 189.378906 72.808594 189.378906 L 72.878906 189.347656 C 73.011719 189.347656 73.03125 189.316406 73.140625 189.292969 L 73.167969 189.265625 C 73.261719 189.242188 73.347656 189.191406 73.421875 189.148438 L 73.457031 189.121094 C 73.761719 188.957031 73.960938 188.921875 74.292969 189.089844 L 74.324219 189.121094 C 74.507812 189.25 74.527344 189.195312 74.753906 189.175781 L 74.78125 189.148438 L 74.984375 189.148438 L 75.011719 189.175781 C 75.121094 189.234375 75.179688 189.296875 75.214844 189.429688 L 75.242188 189.464844 C 75.277344 189.609375 75.300781 189.640625 75.300781 189.832031 L 75.328125 189.863281 L 75.328125 189.921875 L 75.355469 189.949219 C 75.367188 190.0625 75.457031 190.238281 75.5 190.320312 L 75.53125 190.351562 C 75.625 190.527344 75.710938 190.613281 75.875 190.722656 L 75.910156 190.75 C 76.035156 190.746094 76.0625 190.714844 76.136719 190.664062 L 76.136719 190.148438 L 76.105469 190.09375 L 76.105469 189.988281 L 76.078125 189.921875 C 76.074219 189.804688 76.042969 189.730469 76.019531 189.632812 L 75.992188 189.605469 C 75.984375 189.511719 75.9375 189.386719 75.90625 189.316406 L 75.875 189.261719 C 75.863281 189.117188 75.820312 189.125 75.820312 188.929688 L 75.792969 188.863281 L 75.792969 188.777344 C 75.792969 188.660156 75.796875 188.710938 75.820312 188.6875 C 75.820312 188.585938 75.84375 188.53125 75.875 188.460938 L 75.90625 188.433594 C 75.96875 188.34375 76.046875 188.25 76.140625 188.183594 C 76.222656 188.125 76.367188 188.046875 76.453125 188.003906 L 76.480469 187.976562 C 76.734375 187.804688 76.953125 187.605469 77.113281 187.347656 C 77.113281 187.304688 77.101562 187.316406 77.144531 187.316406 C 77.207031 187.199219 77.3125 187.054688 77.34375 186.917969 L 77.375 186.886719 C 77.402344 186.773438 77.457031 186.6875 77.453125 186.574219 Z M 74.753906 176.757812 C 74.714844 176.792969 74.71875 176.796875 74.65625 176.8125 C 74.519531 176.839844 74.5625 176.8125 74.574219 176.789062 L 74.609375 176.757812 L 74.753906 176.757812 " fill="#000000" class="color000 svgShape"></path></clipPath><radialGradient id="e" cx="0" cy="0" r="25.586" fx="0" fy="0" gradientTransform="matrix(1.0034 0 0 .9966 75.056 185.395)" gradientUnits="userSpaceOnUse" xlink:actuate="onLoad" xlink:show="other" xlink:type="simple"><stop offset="0" stop-color="#ffffff" class="stopColorFFF svgShape"></stop><stop offset=".016" stop-color="#ffffff" class="stopColorFEFEFE svgShape"></stop><stop offset=".02" stop-color="#ffffff" class="stopColorFDFDFD svgShape"></stop><stop offset=".031" stop-color="#ffffff" class="stopColorFDFDFD svgShape"></stop><stop offset=".043" stop-color="#ffffff" class="stopColorFCFCFC svgShape"></stop><stop offset=".055" stop-color="#ffffff" class="stopColorFCFCFC svgShape"></stop><stop offset=".066" stop-color="#ffffff" class="stopColorFBFBFB svgShape"></stop><stop offset=".07" stop-color="#ffffff" class="stopColorFBFBFB svgShape"></stop><stop offset=".074" stop-color="#ffffff" class="stopColorFAFAFA svgShape"></stop><stop offset=".086" stop-color="#ffffff" class="stopColorFAFAFA svgShape"></stop><stop offset=".098" stop-color="#ffffff" class="stopColorFAFAFA svgShape"></stop><stop offset=".102" stop-color="#ffffff" class="stopColorF9F9F9 svgShape"></stop><stop offset=".113" stop-color="#ffffff" class="stopColorF9F9F9 svgShape"></stop><stop offset=".125" stop-color="#ffffff" class="stopColorF8F8F8 svgShape"></stop><stop offset=".137" stop-color="#ffffff" class="stopColorF7F7F7 svgShape"></stop><stop offset=".148" stop-color="#ffffff" class="stopColorF7F7F7 svgShape"></stop><stop offset=".16" stop-color="#ffffff" class="stopColorF6F6F6 svgShape"></stop><stop offset=".172" stop-color="#ffffff" class="stopColorF6F6F6 svgShape"></stop><stop offset=".184" stop-color="#ffffff" class="stopColorF6F6F6 svgShape"></stop><stop offset=".188" stop-color="#ffffff" class="stopColorF5F5F5 svgShape"></stop><stop offset=".191" stop-color="#ffffff" class="stopColorF5F5F5 svgShape"></stop><stop offset=".215" stop-color="#ffffff" class="stopColorF4F4F4 svgShape"></stop><stop offset=".227" stop-color="#ffffff" class="stopColorF3F3F3 svgShape"></stop><stop offset=".238" stop-color="#ffffff" class="stopColorF2F2F2 svgShape"></stop><stop offset=".25" stop-color="#ffffff" class="stopColorF1F1F1 svgShape"></stop><stop offset=".262" stop-color="#ffffff" class="stopColorF1F1F1 svgShape"></stop><stop offset=".27" stop-color="#ffffff" class="stopColorF0F0F0 svgShape"></stop><stop offset=".277" stop-color="#ffffff" class="stopColorF0F0F0 svgShape"></stop><stop offset=".285" stop-color="#ffffff" class="stopColorF0F0F0 svgShape"></stop><stop offset=".293" stop-color="#ffffff" class="stopColorEFEFEF svgShape"></stop><stop offset=".301" stop-color="#ffffff" class="stopColorEFEFEF svgShape"></stop><stop offset=".309" stop-color="#ffffff" class="stopColorEEE svgShape"></stop><stop offset=".316" stop-color="#ffffff" class="stopColorEEE svgShape"></stop><stop offset=".324" stop-color="#ffffff" class="stopColorEDEDED svgShape"></stop><stop offset=".332" stop-color="#ffffff" class="stopColorEDEDED svgShape"></stop><stop offset=".34" stop-color="#ffffff" class="stopColorEDEDED svgShape"></stop><stop offset=".348" stop-color="#ffffff" class="stopColorECECEC svgShape"></stop><stop offset=".367" stop-color="#ffffff" class="stopColorEBEBEB svgShape"></stop><stop offset=".387" stop-color="#ffffff" class="stopColorEAEAEA svgShape"></stop><stop offset=".402" stop-color="#ffffff" class="stopColorEAEAEA svgShape"></stop><stop offset=".418" stop-color="#ffffff" class="stopColorE9E9E9 svgShape"></stop><stop offset=".426" stop-color="#ffffff" class="stopColorE9E9E9 svgShape"></stop><stop offset=".434" stop-color="#ffffff" class="stopColorE8E8E8 svgShape"></stop><stop offset=".441" stop-color="#ffffff" class="stopColorE8E8E8 svgShape"></stop><stop offset=".457" stop-color="#ffffff" class="stopColorE7E7E7 svgShape"></stop><stop offset=".473" stop-color="#ffffff" class="stopColorE6E6E6 svgShape"></stop><stop offset=".488" stop-color="#ffffff" class="stopColorE5E5E5 svgShape"></stop><stop offset=".504" stop-color="#ffffff" class="stopColorE4E4E4 svgShape"></stop><stop offset=".516" stop-color="#ffffff" class="stopColorE4E4E4 svgShape"></stop><stop offset=".527" stop-color="#ffffff" class="stopColorE3E3E3 svgShape"></stop><stop offset=".539" stop-color="#ffffff" class="stopColorE3E3E3 svgShape"></stop><stop offset=".551" stop-color="#ffffff" class="stopColorE2E2E2 svgShape"></stop><stop offset=".563" stop-color="#ffffff" class="stopColorE2E2E2 svgShape"></stop><stop offset=".566" stop-color="#ffffff" class="stopColorE1E1E1 svgShape"></stop><stop offset=".578" stop-color="#ffffff" class="stopColorE1E1E1 svgShape"></stop><stop offset=".59" stop-color="#ffffff" class="stopColorE0E0E0 svgShape"></stop><stop offset=".613" stop-color="#ffffff" class="stopColorDFDFDF svgShape"></stop><stop offset=".625" stop-color="#ffffff" class="stopColorDEDEDE svgShape"></stop><stop offset=".637" stop-color="#ffffff" class="stopColorDEDEDE svgShape"></stop><stop offset=".645" stop-color="#ffffff" class="stopColorDDD svgShape"></stop><stop offset=".652" stop-color="#ffffff" class="stopColorDDD svgShape"></stop><stop offset=".672" stop-color="#ffffff" class="stopColorDCDCDC svgShape"></stop><stop offset=".68" stop-color="#ffffff" class="stopColorDBDBDB svgShape"></stop><stop offset=".699" stop-color="#ffffff" class="stopColorDBDBDB svgShape"></stop><stop offset=".715" stop-color="#ffffff" class="stopColorDADADA svgShape"></stop><stop offset=".723" stop-color="#ffffff" class="stopColorDADADA svgShape"></stop><stop offset=".73" stop-color="#ffffff" class="stopColorD9D9D9 svgShape"></stop><stop offset=".738" stop-color="#ffffff" class="stopColorD8D8D8 svgShape"></stop><stop offset=".754" stop-color="#ffffff" class="stopColorD8D8D8 svgShape"></stop><stop offset=".766" stop-color="#ffffff" class="stopColorD8D8D8 svgShape"></stop><stop offset=".77" stop-color="#ffffff" class="stopColorD7D7D7 svgShape"></stop><stop offset=".773" stop-color="#ffffff" class="stopColorD7D7D7 svgShape"></stop><stop offset=".777" stop-color="#ffffff" class="stopColorD6D6D6 svgShape"></stop><stop offset=".789" stop-color="#ffffff" class="stopColorD5D5D5 svgShape"></stop><stop offset=".813" stop-color="#ffffff" class="stopColorD5D5D5 svgShape"></stop><stop offset=".816" stop-color="#ffffff" class="stopColorD4D4D4 svgShape"></stop><stop offset=".824" stop-color="#ffffff" class="stopColorD3D3D3 svgShape"></stop><stop offset=".844" stop-color="#ffffff" class="stopColorD3D3D3 svgShape"></stop><stop offset=".863" stop-color="#ffffff" class="stopColorD2D2D2 svgShape"></stop><stop offset=".879" stop-color="#ffffff" class="stopColorD2D2D2 svgShape"></stop><stop offset=".891" stop-color="#ffffff" class="stopColorD1D1D1 svgShape"></stop><stop offset=".902" stop-color="#ffffff" class="stopColorD1D1D1 svgShape"></stop><stop offset=".914" stop-color="#ffffff" class="stopColorD0D0D0 svgShape"></stop><stop offset=".934" stop-color="#ffffff" class="stopColorCFCFCF svgShape"></stop><stop offset=".941" stop-color="#ffffff" class="stopColorCECECE svgShape"></stop><stop offset=".953" stop-color="#ffffff" class="stopColorCDCDCD svgShape"></stop><stop offset=".965" stop-color="#ffffff" class="stopColorCCC svgShape"></stop><stop offset="1" stop-color="#ffffff" class="stopColorCCC svgShape"></stop></radialGradient></defs><g clip-path="url(#a)" fill="#000000" class="color000 svgShape"><path fill="#39b54a" d="M 95.515625 168.027344 C 96.105469 159.53125 87.976562 155.941406 87.976562 155.941406 C 83.601562 164.707031 89.625 170.761719 92.496094 173.007812 C 92.59375 173.105469 92.707031 173.195312 92.828125 173.269531 C 109.320312 183.449219 119.878906 168.390625 119.878906 168.390625 C 109.984375 160.839844 100.804688 164.476562 95.515625 168.027344 " class="color39B54A svgShape"></path></g><path fill="#231f20" d="M 101.480469 159.773438 L 101.480469 159.769531 L 101.484375 159.773438 Z M 101.480469 159.773438 " class="color231F20 svgShape"></path><g clip-path="url(#b)" fill="#000000" class="color000 svgShape"><path fill="#009245" fill-rule="evenodd" d="M 119.652344 168.21875 C 110.011719 161.023438 101.070312 164.390625 95.785156 167.855469 C 95.675781 167.929688 95.527344 167.84375 95.535156 167.714844 C 95.554688 167.238281 95.550781 166.777344 95.519531 166.335938 C 95.367188 164.867188 94.988281 163.328125 94.242188 161.84375 C 92.625 158.789062 89.929688 157.003906 88.667969 156.296875 C 88.527344 156.21875 88.382812 156.144531 88.234375 156.070312 C 88.101562 156.160156 88.132812 156.136719 87.996094 156.226562 C 88.324219 160.382812 90.542969 166.53125 92.359375 170.375 C 92.382812 170.429688 92.378906 170.492188 92.339844 170.542969 C 92.070312 170.890625 91.941406 171.308594 91.949219 171.726562 C 91.949219 171.800781 92.003906 171.863281 92.074219 171.878906 C 92.359375 171.945312 92.707031 171.996094 93.117188 172.039062 C 93.171875 172.046875 93.390625 172.058594 93.390625 172.058594 L 93.777344 172.113281 L 94.09375 172.128906 L 94.4375 172.144531 L 94.582031 172.144531 C 94.582031 172.144531 94.671875 172.144531 94.742188 172.144531 C 100.707031 172.359375 112.894531 171.25 119.617188 168.5 C 119.734375 168.453125 119.753906 168.292969 119.652344 168.21875 M 102.265625 191.839844 C 102.265625 203.496094 92.777344 212.941406 81.078125 212.941406 C 69.378906 212.941406 59.894531 203.496094 59.894531 191.839844 C 59.894531 180.1875 69.378906 170.742188 81.078125 170.742188 C 92.777344 170.742188 102.265625 180.1875 102.265625 191.839844 " class="color009245 svgShape"></path></g><path fill="#ffffff" d="M 95.542969 167.777344 C 95.535156 167.757812 95.535156 167.738281 95.535156 167.714844 C 95.554688 167.238281 95.550781 166.777344 95.519531 166.335938 C 95.519531 166.332031 95.519531 166.328125 95.519531 166.328125 C 95.507812 166.167969 95.492188 166.011719 95.476562 165.859375 C 95.480469 165.855469 95.484375 165.855469 95.488281 165.851562 C 95.554688 166.464844 95.578125 167.105469 95.542969 167.777344 " class="colorB2B2B2 svgShape"></path><path fill="#287e34" d="M 92.730469 173.175781 C 92.683594 173.148438 92.640625 173.117188 92.59375 173.082031 C 91.96875 172.597656 91.175781 171.921875 90.367188 171.066406 C 90.488281 170.347656 90.839844 169.679688 91.382812 169.152344 C 91.480469 169.058594 91.582031 168.964844 91.679688 168.871094 C 91.910156 169.402344 92.136719 169.90625 92.359375 170.375 C 92.375 170.410156 92.378906 170.445312 92.371094 170.480469 C 92.125 170.777344 91.992188 171.128906 91.957031 171.484375 C 91.949219 171.5625 91.949219 171.644531 91.949219 171.726562 C 91.949219 171.738281 91.949219 171.753906 91.953125 171.765625 C 91.988281 172.308594 92.253906 172.835938 92.730469 173.175781 M 95.519531 166.328125 C 95.503906 166.175781 95.484375 166.023438 95.464844 165.867188 C 95.46875 165.863281 95.472656 165.863281 95.476562 165.859375 C 95.492188 166.011719 95.507812 166.167969 95.519531 166.328125 " class="color287E34 svgShape"></path><path fill="#006630" d="M 91.953125 171.765625 C 91.949219 171.753906 91.949219 171.738281 91.949219 171.726562 C 91.949219 171.644531 91.949219 171.5625 91.957031 171.484375 C 91.949219 171.578125 91.949219 171.671875 91.953125 171.765625 M 92.371094 170.480469 C 92.378906 170.445312 92.375 170.410156 92.359375 170.375 C 92.136719 169.90625 91.910156 169.402344 91.679688 168.871094 C 92.90625 167.714844 94.167969 166.714844 95.464844 165.867188 C 95.484375 166.023438 95.503906 166.175781 95.519531 166.328125 C 95.519531 166.328125 95.519531 166.332031 95.519531 166.335938 C 95.550781 166.777344 95.554688 167.238281 95.535156 167.714844 C 95.535156 167.738281 95.535156 167.757812 95.542969 167.777344 C 95.542969 167.78125 95.542969 167.78125 95.542969 167.785156 C 94.539062 168.5 93.53125 169.34375 92.519531 170.320312 C 92.464844 170.371094 92.417969 170.425781 92.371094 170.480469 " class="color006630 svgShape"></path><g clip-path="url(#c)" fill="#000000" class="color000 svgShape"><g clip-path="url(#d)" fill="#000000" class="color000 svgShape"><path fill="url(#e)" d="M 64.546875 172.671875 L 64.546875 210.875 L 100.480469 210.875 L 100.480469 172.671875 Z M 64.546875 172.671875 "></path></g></g><path fill="#ffffff" d="M 1.25 -1.65625 C 1.695312 -1.664062 2.035156 -1.71875 2.265625 -1.8125 C 2.503906 -1.90625 2.691406 -2.097656 2.828125 -2.390625 C 2.960938 -2.691406 3.03125 -3.171875 3.03125 -3.828125 L 3.03125 -13.40625 C 3.03125 -14.332031 3.0625 -15.082031 3.125 -15.65625 L 1.25 -15.578125 L 1.25 -17.5 L 8.171875 -17.546875 C 10.171875 -17.566406 11.738281 -17.207031 12.875 -16.46875 C 14.007812 -15.738281 14.578125 -14.664062 14.578125 -13.25 C 14.578125 -12.4375 14.269531 -11.679688 13.65625 -10.984375 C 13.050781 -10.296875 12.15625 -9.789062 10.96875 -9.46875 L 10.96875 -9.453125 C 12.570312 -9.203125 13.78125 -8.664062 14.59375 -7.84375 C 15.414062 -7.03125 15.828125 -6.070312 15.828125 -4.96875 C 15.828125 -3.382812 15.265625 -2.160156 14.140625 -1.296875 C 13.015625 -0.429688 11.550781 0 9.75 0 L 1.25 0 Z M 7.953125 -9.84375 C 8.929688 -9.863281 9.640625 -10.175781 10.078125 -10.78125 C 10.523438 -11.394531 10.75 -12.203125 10.75 -13.203125 C 10.75 -14.097656 10.5 -14.753906 10 -15.171875 C 9.5 -15.585938 8.890625 -15.796875 8.171875 -15.796875 C 7.828125 -15.796875 7.550781 -15.753906 7.34375 -15.671875 C 7.132812 -15.585938 6.96875 -15.390625 6.84375 -15.078125 C 6.71875 -14.773438 6.65625 -14.316406 6.65625 -13.703125 L 6.65625 -9.828125 Z M 6.546875 -1.78125 C 7.648438 -1.78125 8.457031 -1.785156 8.96875 -1.796875 C 9.957031 -1.847656 10.691406 -2.160156 11.171875 -2.734375 C 11.660156 -3.304688 11.90625 -4.078125 11.90625 -5.046875 C 11.90625 -6.117188 11.59375 -6.890625 10.96875 -7.359375 C 10.351562 -7.835938 9.585938 -8.078125 8.671875 -8.078125 C 7.753906 -8.078125 7.082031 -8.066406 6.65625 -8.046875 L 6.65625 -3.96875 C 6.65625 -3.070312 6.617188 -2.34375 6.546875 -1.78125 Z M 6.546875 -1.78125 " transform="translate(124.245 193.5)" class="color008037 svgShape"></path><path fill="#ffffff" d="M 9.578125 0.40625 C 7.578125 0.40625 5.925781 -0.0351562 4.625 -0.921875 C 3.320312 -1.804688 2.367188 -2.941406 1.765625 -4.328125 C 1.171875 -5.710938 0.875 -7.1875 0.875 -8.75 C 0.875 -10.226562 1.207031 -11.664062 1.875 -13.0625 C 2.539062 -14.46875 3.535156 -15.625 4.859375 -16.53125 C 6.179688 -17.445312 7.78125 -17.90625 9.65625 -17.90625 C 11.570312 -17.90625 13.179688 -17.445312 14.484375 -16.53125 C 15.796875 -15.625 16.765625 -14.46875 17.390625 -13.0625 C 18.023438 -11.664062 18.34375 -10.226562 18.34375 -8.75 C 18.34375 -7.300781 18.007812 -5.867188 17.34375 -4.453125 C 16.675781 -3.046875 15.679688 -1.882812 14.359375 -0.96875 C 13.035156 -0.0507812 11.441406 0.40625 9.578125 0.40625 Z M 9.828125 -1.421875 C 10.910156 -1.421875 11.789062 -1.757812 12.46875 -2.4375 C 13.15625 -3.125 13.648438 -3.992188 13.953125 -5.046875 C 14.253906 -6.097656 14.40625 -7.191406 14.40625 -8.328125 C 14.40625 -10.691406 13.988281 -12.570312 13.15625 -13.96875 C 12.320312 -15.375 11.085938 -16.078125 9.453125 -16.078125 C 8.347656 -16.078125 7.445312 -15.722656 6.75 -15.015625 C 6.050781 -14.316406 5.550781 -13.4375 5.25 -12.375 C 4.945312 -11.3125 4.796875 -10.203125 4.796875 -9.046875 C 4.796875 -7.878906 4.960938 -6.710938 5.296875 -5.546875 C 5.628906 -4.378906 6.175781 -3.398438 6.9375 -2.609375 C 7.695312 -1.816406 8.660156 -1.421875 9.828125 -1.421875 Z M 9.828125 -1.421875 " transform="translate(140.768 193.5)" class="color008037 svgShape"></path><path fill="#ffffff" d="M 6.828125 -7.96875 C 6.578125 -8.550781 6.28125 -9.367188 5.9375 -10.421875 C 5.59375 -11.472656 5.304688 -12.539062 5.078125 -13.625 L 5.046875 -13.625 C 5.097656 -12.101562 5.125 -10.71875 5.125 -9.46875 L 5.125 -8.625 L 5.09375 -4.09375 C 5.09375 -3.0625 5.050781 -2.3125 4.96875 -1.84375 C 5.519531 -1.894531 6.15625 -1.921875 6.875 -1.921875 L 6.875 0 L 1.171875 0 L 1.171875 -1.65625 C 1.617188 -1.664062 1.957031 -1.71875 2.1875 -1.8125 C 2.425781 -1.90625 2.613281 -2.097656 2.75 -2.390625 C 2.882812 -2.691406 2.953125 -3.171875 2.953125 -3.828125 L 3.09375 -13.40625 C 3.132812 -14.613281 3.171875 -15.363281 3.203125 -15.65625 L 1.328125 -15.578125 L 1.328125 -17.5 L 6.84375 -17.5 L 10.625 -7.828125 C 10.875 -7.171875 11.140625 -6.453125 11.421875 -5.671875 C 11.703125 -4.890625 11.90625 -4.289062 12.03125 -3.875 L 12.046875 -3.875 C 12.117188 -4.039062 12.300781 -4.554688 12.59375 -5.421875 C 12.832031 -6.109375 13.039062 -6.691406 13.21875 -7.171875 L 17.09375 -17.5 L 22.875 -17.5 L 22.875 -15.84375 C 22.425781 -15.832031 22.078125 -15.78125 21.828125 -15.6875 C 21.578125 -15.59375 21.382812 -15.394531 21.25 -15.09375 C 21.113281 -14.800781 21.054688 -14.328125 21.078125 -13.671875 L 21.453125 -4.09375 C 21.503906 -3.25 21.46875 -2.5 21.34375 -1.84375 C 21.894531 -1.894531 22.53125 -1.921875 23.25 -1.921875 L 23.25 0 L 16.296875 0 L 16.296875 -1.65625 C 16.742188 -1.664062 17.085938 -1.71875 17.328125 -1.8125 C 17.578125 -1.90625 17.765625 -2.097656 17.890625 -2.390625 C 18.023438 -2.691406 18.085938 -3.171875 18.078125 -3.828125 L 17.875 -9.125 L 17.828125 -10.078125 C 17.742188 -11.691406 17.691406 -12.816406 17.671875 -13.453125 L 17.65625 -13.453125 L 12.53125 0.25 L 10.203125 0.25 Z M 6.828125 -7.96875 " transform="translate(159.99 193.5)" class="color008037 svgShape"></path><path fill="#ffffff" d="M 1.25 -1.65625 C 1.695312 -1.664062 2.035156 -1.71875 2.265625 -1.8125 C 2.503906 -1.90625 2.691406 -2.097656 2.828125 -2.390625 C 2.960938 -2.691406 3.03125 -3.171875 3.03125 -3.828125 L 3.03125 -13.40625 C 3.03125 -14.332031 3.0625 -15.082031 3.125 -15.65625 L 1.25 -15.578125 L 1.25 -17.5 L 8.171875 -17.546875 C 10.171875 -17.566406 11.738281 -17.207031 12.875 -16.46875 C 14.007812 -15.738281 14.578125 -14.664062 14.578125 -13.25 C 14.578125 -12.4375 14.269531 -11.679688 13.65625 -10.984375 C 13.050781 -10.296875 12.15625 -9.789062 10.96875 -9.46875 L 10.96875 -9.453125 C 12.570312 -9.203125 13.78125 -8.664062 14.59375 -7.84375 C 15.414062 -7.03125 15.828125 -6.070312 15.828125 -4.96875 C 15.828125 -3.382812 15.265625 -2.160156 14.140625 -1.296875 C 13.015625 -0.429688 11.550781 0 9.75 0 L 1.25 0 Z M 7.953125 -9.84375 C 8.929688 -9.863281 9.640625 -10.175781 10.078125 -10.78125 C 10.523438 -11.394531 10.75 -12.203125 10.75 -13.203125 C 10.75 -14.097656 10.5 -14.753906 10 -15.171875 C 9.5 -15.585938 8.890625 -15.796875 8.171875 -15.796875 C 7.828125 -15.796875 7.550781 -15.753906 7.34375 -15.671875 C 7.132812 -15.585938 6.96875 -15.390625 6.84375 -15.078125 C 6.71875 -14.773438 6.65625 -14.316406 6.65625 -13.703125 L 6.65625 -9.828125 Z M 6.546875 -1.78125 C 7.648438 -1.78125 8.457031 -1.785156 8.96875 -1.796875 C 9.957031 -1.847656 10.691406 -2.160156 11.171875 -2.734375 C 11.660156 -3.304688 11.90625 -4.078125 11.90625 -5.046875 C 11.90625 -6.117188 11.59375 -6.890625 10.96875 -7.359375 C 10.351562 -7.835938 9.585938 -8.078125 8.671875 -8.078125 C 7.753906 -8.078125 7.082031 -8.066406 6.65625 -8.046875 L 6.65625 -3.96875 C 6.65625 -3.070312 6.617188 -2.34375 6.546875 -1.78125 Z M 6.546875 -1.78125 " transform="translate(184.286 193.5)" class="color008037 svgShape"></path><path fill="#ffffff" d="M 1.4375 -11.421875 L 5 -11.421875 C 6.613281 -11.421875 7.785156 -11.191406 8.515625 -10.734375 C 9.253906 -10.273438 9.625 -9.539062 9.625 -8.53125 C 9.625 -7.851562 9.460938 -7.296875 9.140625 -6.859375 C 8.816406 -6.421875 8.390625 -6.15625 7.859375 -6.0625 L 7.859375 -5.984375 C 8.585938 -5.828125 9.109375 -5.523438 9.421875 -5.078125 C 9.742188 -4.640625 9.90625 -4.050781 9.90625 -3.3125 C 9.90625 -2.269531 9.53125 -1.457031 8.78125 -0.875 C 8.03125 -0.289062 7.007812 0 5.71875 0 L 1.4375 0 Z M 3.859375 -6.90625 L 5.265625 -6.90625 C 5.921875 -6.90625 6.394531 -7.003906 6.6875 -7.203125 C 6.988281 -7.410156 7.140625 -7.75 7.140625 -8.21875 C 7.140625 -8.65625 6.976562 -8.96875 6.65625 -9.15625 C 6.332031 -9.34375 5.828125 -9.4375 5.140625 -9.4375 L 3.859375 -9.4375 Z M 3.859375 -4.984375 L 3.859375 -2 L 5.4375 -2 C 6.101562 -2 6.59375 -2.125 6.90625 -2.375 C 7.226562 -2.632812 7.390625 -3.03125 7.390625 -3.5625 C 7.390625 -4.507812 6.710938 -4.984375 5.359375 -4.984375 Z M 3.859375 -4.984375 " transform="translate(105.158 210.161)" class="color008037 svgShape"></path><path fill="#ffffff" d="M 11.8125 -5.734375 C 11.8125 -3.835938 11.34375 -2.378906 10.40625 -1.359375 C 9.46875 -0.347656 8.125 0.15625 6.375 0.15625 C 4.625 0.15625 3.28125 -0.347656 2.34375 -1.359375 C 1.40625 -2.378906 0.9375 -3.84375 0.9375 -5.75 C 0.9375 -7.644531 1.40625 -9.09375 2.34375 -10.09375 C 3.28125 -11.101562 4.628906 -11.609375 6.390625 -11.609375 C 8.140625 -11.609375 9.476562 -11.101562 10.40625 -10.09375 C 11.34375 -9.082031 11.8125 -7.628906 11.8125 -5.734375 Z M 3.46875 -5.734375 C 3.46875 -4.453125 3.707031 -3.488281 4.1875 -2.84375 C 4.675781 -2.195312 5.40625 -1.875 6.375 -1.875 C 8.300781 -1.875 9.265625 -3.160156 9.265625 -5.734375 C 9.265625 -8.304688 8.304688 -9.59375 6.390625 -9.59375 C 5.421875 -9.59375 4.691406 -9.265625 4.203125 -8.609375 C 3.710938 -7.960938 3.46875 -7.003906 3.46875 -5.734375 Z M 3.46875 -5.734375 " transform="translate(118.082 210.161)" class="color008037 svgShape"></path><path fill="#ffffff" d="M 5.84375 0 L 3.421875 0 L 3.421875 -9.40625 L 0.328125 -9.40625 L 0.328125 -11.421875 L 8.953125 -11.421875 L 8.953125 -9.40625 L 5.84375 -9.40625 Z M 5.84375 0 " transform="translate(132.989 210.161)" class="color008037 svgShape"></path><path fill="#ffffff" d="M 8.4375 0 L 7.609375 -2.71875 L 3.4375 -2.71875 L 2.609375 0 L 0 0 L 4.03125 -11.46875 L 7 -11.46875 L 11.046875 0 Z M 7.03125 -4.75 C 6.257812 -7.21875 5.828125 -8.613281 5.734375 -8.9375 C 5.640625 -9.257812 5.570312 -9.515625 5.53125 -9.703125 C 5.351562 -9.035156 4.859375 -7.382812 4.046875 -4.75 Z M 7.03125 -4.75 " transform="translate(144.428 210.161)" class="color008037 svgShape"></path><path fill="#ffffff" d="M 11.578125 0 L 8.5 0 L 3.53125 -8.640625 L 3.453125 -8.640625 C 3.554688 -7.117188 3.609375 -6.03125 3.609375 -5.375 L 3.609375 0 L 1.4375 0 L 1.4375 -11.421875 L 4.5 -11.421875 L 9.453125 -2.875 L 9.515625 -2.875 C 9.429688 -4.351562 9.390625 -5.398438 9.390625 -6.015625 L 9.390625 -11.421875 L 11.578125 -11.421875 Z M 11.578125 0 " transform="translate(157.64 210.161)" class="color008037 svgShape"></path><path fill="#ffffff" d="M 1.4375 0 L 1.4375 -11.421875 L 3.859375 -11.421875 L 3.859375 0 Z M 1.4375 0 " transform="translate(172.821 210.161)" class="color008037 svgShape"></path><path fill="#ffffff" d="M 6.296875 -9.578125 C 5.378906 -9.578125 4.671875 -9.234375 4.171875 -8.546875 C 3.671875 -7.859375 3.421875 -6.90625 3.421875 -5.6875 C 3.421875 -3.132812 4.378906 -1.859375 6.296875 -1.859375 C 7.097656 -1.859375 8.066406 -2.0625 9.203125 -2.46875 L 9.203125 -0.4375 C 8.265625 -0.0390625 7.21875 0.15625 6.0625 0.15625 C 4.40625 0.15625 3.132812 -0.347656 2.25 -1.359375 C 1.375 -2.367188 0.9375 -3.816406 0.9375 -5.703125 C 0.9375 -6.890625 1.148438 -7.925781 1.578125 -8.8125 C 2.015625 -9.707031 2.632812 -10.394531 3.4375 -10.875 C 4.25 -11.351562 5.203125 -11.59375 6.296875 -11.59375 C 7.398438 -11.59375 8.515625 -11.320312 9.640625 -10.78125 L 8.859375 -8.8125 C 8.429688 -9.019531 8 -9.195312 7.5625 -9.34375 C 7.132812 -9.5 6.710938 -9.578125 6.296875 -9.578125 Z M 6.296875 -9.578125 " transform="translate(180.293 210.161)" class="color008037 svgShape"></path><path fill="#ffffff" d="M 8.4375 0 L 7.609375 -2.71875 L 3.4375 -2.71875 L 2.609375 0 L 0 0 L 4.03125 -11.46875 L 7 -11.46875 L 11.046875 0 Z M 7.03125 -4.75 C 6.257812 -7.21875 5.828125 -8.613281 5.734375 -8.9375 C 5.640625 -9.257812 5.570312 -9.515625 5.53125 -9.703125 C 5.351562 -9.035156 4.859375 -7.382812 4.046875 -4.75 Z M 7.03125 -4.75 " transform="translate(192.662 210.161)" class="color008037 svgShape"></path><path fill="#ffffff" d="M 1.4375 0 L 1.4375 -11.421875 L 3.859375 -11.421875 L 3.859375 -2 L 8.5 -2 L 8.5 0 Z M 1.4375 0 " transform="translate(205.874 210.161)" class="color008037 svgShape"></path><path fill="#ffffff" d="M 8.1875 -3.171875 C 8.1875 -2.140625 7.8125 -1.328125 7.0625 -0.734375 C 6.320312 -0.140625 5.289062 0.15625 3.96875 0.15625 C 2.75 0.15625 1.671875 -0.0703125 0.734375 -0.53125 L 0.734375 -2.78125 C 1.503906 -2.4375 2.15625 -2.191406 2.6875 -2.046875 C 3.226562 -1.910156 3.71875 -1.84375 4.15625 -1.84375 C 4.6875 -1.84375 5.09375 -1.941406 5.375 -2.140625 C 5.664062 -2.347656 5.8125 -2.65625 5.8125 -3.0625 C 5.8125 -3.28125 5.75 -3.476562 5.625 -3.65625 C 5.5 -3.832031 5.3125 -4 5.0625 -4.15625 C 4.820312 -4.320312 4.332031 -4.582031 3.59375 -4.9375 C 2.894531 -5.257812 2.367188 -5.570312 2.015625 -5.875 C 1.671875 -6.175781 1.394531 -6.523438 1.1875 -6.921875 C 0.976562 -7.328125 0.875 -7.800781 0.875 -8.34375 C 0.875 -9.351562 1.210938 -10.144531 1.890625 -10.71875 C 2.578125 -11.300781 3.523438 -11.59375 4.734375 -11.59375 C 5.328125 -11.59375 5.894531 -11.519531 6.4375 -11.375 C 6.976562 -11.238281 7.539062 -11.039062 8.125 -10.78125 L 7.34375 -8.90625 C 6.738281 -9.15625 6.234375 -9.328125 5.828125 -9.421875 C 5.429688 -9.523438 5.039062 -9.578125 4.65625 -9.578125 C 4.195312 -9.578125 3.84375 -9.46875 3.59375 -9.25 C 3.351562 -9.039062 3.234375 -8.765625 3.234375 -8.421875 C 3.234375 -8.203125 3.28125 -8.015625 3.375 -7.859375 C 3.476562 -7.703125 3.640625 -7.546875 3.859375 -7.390625 C 4.078125 -7.242188 4.585938 -6.976562 5.390625 -6.59375 C 6.460938 -6.082031 7.195312 -5.570312 7.59375 -5.0625 C 7.988281 -4.550781 8.1875 -3.921875 8.1875 -3.171875 Z M 8.1875 -3.171875 " transform="translate(217.087 210.161)" class="color008037 svgShape"></path></svg></g></svg>