<svg xmlns="http://www.w3.org/2000/svg" xmlns:xlink="http://www.w3.org/1999/xlink" zoomAndPan="magnify" preserveAspectRatio="xMidYMid meet" version="1.0" viewBox="128.57 134.23 118.68 103.81"><defs><g><g id="id1"/></g><clipPath id="id2"><path d="M 184 134.226562 L 217.554688 134.226562 L 217.554688 156 L 184 156 Z M 184 134.226562 " clip-rule="nonzero"/></clipPath><clipPath id="id3"><path d="M 157.554688 134.226562 L 217.554688 134.226562 L 217.554688 191.226562 L 157.554688 191.226562 Z M 157.554688 134.226562 " clip-rule="nonzero"/></clipPath><clipPath id="id4"><path d="M 162.214844 150.957031 L 198.148438 150.957031 L 198.148438 189.160156 L 162.214844 189.160156 Z M 162.214844 150.957031 " clip-rule="nonzero"/></clipPath><clipPath id="id5"><path d="M 178.09375 171.238281 C 177.949219 171.253906 177.894531 171.316406 177.953125 171.441406 L 177.980469 171.46875 C 178.058594 171.503906 178.097656 171.484375 178.203125 171.460938 L 178.328125 171.441406 C 178.441406 171.410156 178.382812 171.492188 178.414062 171.382812 L 178.414062 171.355469 L 178.382812 171.296875 C 178.359375 171.296875 178.324219 171.296875 178.300781 171.292969 C 178.242188 171.285156 178.269531 171.285156 178.242188 171.269531 L 178.125 171.265625 Z M 175.648438 170.667969 C 175.617188 170.566406 175.523438 170.59375 175.246094 170.523438 C 175 170.457031 175.140625 170.359375 174.871094 170.351562 L 174.800781 170.324219 L 174.753906 170.320312 L 174.726562 170.296875 C 174.613281 170.222656 174.652344 170.175781 174.558594 170.117188 C 174.496094 170.082031 174.34375 170.054688 174.265625 170.035156 L 174.238281 170.007812 C 174.148438 169.988281 174.152344 169.972656 174.0625 169.949219 L 174.03125 169.921875 C 173.90625 169.894531 173.8125 169.804688 173.710938 169.785156 C 173.636719 169.773438 173.566406 169.785156 173.488281 169.777344 C 173.375 169.761719 173.414062 169.734375 173.285156 169.722656 C 173.199219 169.714844 173.1875 169.726562 173.109375 169.722656 L 172.988281 169.695312 L 172.941406 169.695312 L 172.910156 169.722656 C 172.839844 169.742188 172.839844 169.734375 172.765625 169.75 C 172.632812 169.777344 172.726562 169.75 172.621094 169.804688 C 172.53125 169.855469 172.449219 169.878906 172.386719 169.953125 L 172.363281 169.980469 C 172.300781 170.113281 172.328125 170.269531 172.5625 170.125 L 172.582031 170.113281 L 172.855469 169.953125 L 172.882812 169.921875 C 173.078125 169.878906 172.984375 169.867188 173.121094 169.972656 C 173.320312 170.121094 173.179688 169.910156 173.683594 170.15625 C 173.789062 170.210938 173.792969 170.234375 173.976562 170.238281 C 174 170.238281 174.035156 170.238281 174.0625 170.242188 C 174.117188 170.25 174.09375 170.25 174.121094 170.265625 C 174.324219 170.375 174.222656 170.410156 174.367188 170.480469 C 174.425781 170.507812 174.460938 170.503906 174.535156 170.542969 C 174.609375 170.582031 174.605469 170.597656 174.667969 170.640625 C 174.621094 170.710938 174.398438 170.890625 174.6875 170.894531 L 174.726562 170.871094 C 174.832031 170.773438 175.097656 170.808594 175.324219 170.808594 C 175.347656 170.796875 175.277344 170.78125 175.414062 170.785156 C 175.53125 170.785156 175.441406 170.773438 175.476562 170.808594 L 175.589844 170.808594 L 175.617188 170.785156 L 175.648438 170.722656 Z M 177.152344 170.976562 C 177.078125 170.90625 177.101562 170.894531 177 170.867188 L 176.949219 170.839844 L 176.859375 170.839844 C 176.855469 170.84375 176.792969 170.933594 176.792969 170.839844 C 176.574219 170.820312 176.730469 170.742188 176.433594 170.820312 C 176.265625 170.867188 176.171875 170.796875 176.023438 170.78125 L 175.992188 170.78125 C 175.9375 170.796875 175.945312 170.789062 175.90625 170.808594 C 175.914062 171.125 176.078125 170.859375 176.136719 171.0625 L 176.164062 171.097656 L 176.164062 171.195312 C 176.074219 171.277344 175.820312 171.238281 175.703125 171.210938 L 175.648438 171.210938 C 175.597656 171.246094 175.542969 171.3125 175.613281 171.382812 C 175.660156 171.429688 175.792969 171.414062 175.878906 171.410156 L 176.394531 171.441406 L 176.394531 171.523438 C 176.417969 171.617188 176.496094 171.667969 176.605469 171.625 C 176.710938 171.582031 176.699219 171.5 176.742188 171.410156 C 177.15625 171.410156 176.9375 171.355469 177.261719 171.355469 L 177.289062 171.328125 C 177.3125 171.339844 177.3125 171.335938 177.34375 171.355469 C 177.363281 171.367188 177.410156 171.40625 177.414062 171.40625 C 177.503906 171.460938 177.488281 171.464844 177.550781 171.382812 L 177.550781 171.296875 C 177.507812 171.234375 177.5 171.222656 177.460938 171.152344 L 177.433594 171.125 C 177.375 171.097656 177.402344 171.105469 177.316406 171.09375 L 177.292969 171.066406 C 177.203125 171.023438 177.226562 171.046875 177.152344 170.976562 Z M 195.148438 163.742188 L 194.917969 163.742188 C 194.890625 163.761719 194.910156 163.753906 194.859375 163.769531 C 194.851562 163.773438 194.820312 163.769531 194.804688 163.773438 C 194.691406 163.773438 194.554688 163.824219 194.46875 163.867188 C 194.347656 163.925781 194.304688 163.996094 194.171875 164.03125 L 194.140625 164.058594 C 194.046875 164.058594 194.011719 164.066406 193.929688 164.039062 C 193.808594 164.003906 193.878906 164.003906 193.765625 163.972656 L 193.738281 163.941406 C 193.609375 163.914062 193.558594 163.914062 193.449219 163.859375 L 193.421875 163.828125 L 193.390625 163.800781 C 193.265625 163.738281 193.195312 163.757812 193.164062 163.886719 L 193.164062 164.113281 L 193.132812 164.144531 C 193.109375 164.230469 193.109375 164.210938 193.042969 164.253906 C 192.980469 164.296875 192.984375 164.285156 192.925781 164.335938 C 192.847656 164.402344 192.785156 164.464844 192.730469 164.542969 L 192.703125 164.574219 C 192.625 164.683594 192.527344 164.875 192.53125 165.058594 L 192.53125 165.34375 L 192.527344 165.488281 C 192.433594 165.511719 192.429688 165.542969 192.363281 165.609375 C 192.300781 165.671875 192.257812 165.707031 192.210938 165.773438 L 192.183594 165.804688 L 192.09375 165.917969 L 192.066406 165.945312 C 192.023438 166.011719 191.96875 166.078125 191.921875 166.148438 L 191.894531 166.183594 C 191.828125 166.289062 191.777344 166.386719 191.707031 166.503906 C 191.628906 166.628906 191.5625 166.722656 191.492188 166.832031 L 191.460938 166.863281 C 191.382812 166.980469 191.246094 167.101562 191.175781 167.207031 C 191.175781 167.25 191.1875 167.242188 191.144531 167.242188 C 191.109375 167.289062 191.082031 167.308594 191.039062 167.355469 C 191 167.402344 190.972656 167.445312 190.945312 167.492188 L 190.914062 167.519531 C 190.882812 167.578125 190.875 167.589844 190.859375 167.664062 L 190.828125 167.691406 C 190.800781 167.8125 190.753906 167.964844 190.742188 168.09375 C 190.730469 168.277344 190.789062 168.371094 190.800781 168.523438 L 190.828125 168.550781 C 190.859375 168.671875 190.9375 168.800781 191 168.890625 L 191.03125 168.921875 L 191.03125 168.949219 L 191.058594 168.980469 C 191.085938 169.089844 191.113281 169.105469 191.117188 169.242188 C 191.144531 169.28125 191.179688 169.328125 191.117188 169.375 C 191.117188 169.535156 191.070312 169.613281 191.058594 169.75 L 191.03125 169.78125 L 191.03125 169.808594 L 191 169.839844 C 190.925781 169.945312 190.839844 169.953125 190.828125 170.09375 L 190.828125 170.179688 C 190.839844 170.324219 190.929688 170.328125 191 170.4375 C 190.972656 170.542969 190.972656 170.476562 190.945312 170.582031 L 190.914062 170.609375 C 190.894531 170.878906 190.867188 170.894531 191.050781 171.074219 C 191.171875 171.191406 191.269531 171.292969 191.347656 171.441406 L 191.378906 171.46875 C 191.441406 171.59375 191.480469 171.652344 191.558594 171.773438 C 191.601562 171.832031 191.625 171.875 191.664062 171.925781 C 191.707031 171.988281 191.738281 172.007812 191.777344 172.066406 L 191.8125 172.097656 L 191.835938 172.125 L 191.894531 172.183594 L 191.925781 172.210938 L 191.953125 172.238281 L 191.980469 172.269531 L 192.007812 172.296875 L 192.042969 172.324219 L 192.066406 172.355469 L 192.097656 172.382812 C 192.1875 172.445312 192.296875 172.542969 192.386719 172.613281 C 192.488281 172.691406 192.566406 172.78125 192.664062 172.878906 C 192.714844 172.925781 192.746094 172.957031 192.796875 173.003906 C 193.074219 173.292969 192.875 173.253906 193.332031 173.214844 L 193.394531 173.183594 C 193.542969 173.183594 193.660156 173.140625 193.796875 173.128906 C 193.945312 173.117188 194.132812 173.128906 194.285156 173.128906 C 194.3125 173.113281 194.296875 173.117188 194.34375 173.101562 C 194.355469 173.101562 194.386719 173.101562 194.402344 173.101562 L 194.511719 173.097656 C 194.554688 173.070312 194.472656 173.101562 194.574219 173.070312 C 194.582031 173.070312 194.613281 173.070312 194.632812 173.070312 C 194.769531 173.066406 194.820312 173.023438 194.941406 173.011719 C 194.941406 172.972656 194.933594 172.984375 194.976562 172.984375 C 195.082031 172.976562 195.113281 172.949219 195.207031 172.925781 L 195.234375 172.898438 C 195.449219 172.851562 195.542969 172.769531 195.753906 172.871094 L 195.8125 172.925781 C 195.890625 172.96875 195.894531 172.980469 196.015625 172.984375 C 196.058594 172.984375 196.050781 172.972656 196.050781 173.011719 C 196.164062 173.042969 196.230469 173.101562 196.285156 173.203125 C 196.355469 173.324219 196.332031 173.441406 196.332031 173.613281 L 196.300781 173.644531 C 196.277344 173.75 196.253906 173.722656 196.246094 173.84375 L 196.214844 173.871094 L 196.214844 173.929688 L 196.1875 173.960938 C 196.1875 174.101562 196.160156 174.113281 196.160156 174.214844 C 196.15625 174.332031 196.1875 174.351562 196.1875 174.5 L 196.214844 174.53125 L 196.214844 174.589844 L 196.246094 174.644531 L 196.273438 174.753906 L 196.300781 174.789062 L 196.386719 175.070312 L 196.417969 175.101562 L 196.417969 175.175781 L 196.445312 175.214844 C 196.457031 175.355469 196.503906 175.398438 196.503906 175.558594 L 196.53125 175.589844 L 196.53125 175.691406 C 196.550781 175.726562 196.539062 175.660156 196.558594 175.761719 C 196.5625 175.777344 196.5625 175.824219 196.5625 175.847656 L 196.5625 176.277344 C 196.5625 176.316406 196.5625 176.3125 196.554688 176.351562 L 196.542969 176.371094 C 196.542969 176.367188 196.535156 176.382812 196.53125 176.386719 L 196.539062 176.476562 L 196.503906 176.527344 C 196.496094 176.636719 196.46875 176.664062 196.445312 176.761719 L 196.417969 176.792969 C 196.394531 176.886719 196.34375 176.96875 196.300781 177.046875 C 196.300781 177.089844 196.3125 177.082031 196.273438 177.082031 C 196.199219 177.203125 196.050781 177.5 196.011719 177.648438 L 195.984375 177.675781 C 195.964844 177.769531 195.9375 177.800781 195.929688 177.90625 C 195.929688 177.949219 195.941406 177.941406 195.898438 177.941406 C 195.871094 178.046875 195.824219 178.191406 195.8125 178.304688 L 195.785156 178.363281 C 195.777344 178.574219 195.699219 178.734375 195.699219 178.992188 C 195.699219 179.113281 195.691406 179.058594 195.667969 179.085938 C 195.667969 179.28125 195.640625 179.367188 195.640625 179.546875 C 197.234375 176.757812 198.148438 173.53125 198.148438 170.09375 C 198.148438 168.539062 197.960938 167.023438 197.609375 165.574219 C 197.601562 165.578125 197.59375 165.585938 197.585938 165.589844 C 197.578125 165.59375 197.453125 165.652344 197.445312 165.652344 C 197.324219 165.703125 197.3125 165.664062 197.195312 165.601562 L 197.164062 165.574219 C 197.085938 165.519531 197.046875 165.460938 196.96875 165.398438 C 196.890625 165.335938 196.8125 165.285156 196.734375 165.230469 L 196.707031 165.203125 C 196.535156 165.113281 196.441406 164.984375 196.332031 164.832031 C 196.289062 164.832031 196.300781 164.84375 196.300781 164.800781 C 196.25 164.699219 196.210938 164.5625 196.160156 164.460938 L 196.128906 164.429688 C 196.089844 164.28125 195.917969 164.105469 195.804688 164.007812 C 195.683594 163.90625 195.460938 163.792969 195.265625 163.769531 C 195.226562 163.769531 195.222656 163.769531 195.1875 163.761719 C 195.179688 163.761719 195.167969 163.761719 195.164062 163.753906 C 195.164062 163.746094 195.152344 163.746094 195.148438 163.742188 Z M 193.824219 159.824219 C 193.675781 159.828125 193.667969 159.855469 193.574219 159.917969 C 193.460938 159.996094 193.417969 159.964844 193.25 159.96875 L 193.21875 159.9375 C 193.113281 159.914062 193.023438 159.835938 192.925781 159.933594 C 192.828125 160.027344 192.910156 160.117188 192.960938 160.195312 L 193.105469 160.195312 L 193.132812 160.222656 C 193.253906 160.25 193.351562 160.339844 193.417969 160.429688 C 193.488281 160.519531 193.570312 160.609375 193.628906 160.703125 C 193.722656 160.851562 193.929688 161.277344 193.742188 161.425781 L 193.710938 161.453125 C 193.464844 161.511719 193.457031 161.449219 193.25 161.457031 L 193.195312 161.425781 C 193.109375 161.40625 193.152344 161.433594 193.105469 161.375 C 193.0625 161.375 193.074219 161.382812 193.074219 161.339844 C 193.042969 161.21875 193.027344 161.226562 192.882812 161.226562 C 192.882812 161.265625 192.890625 161.253906 192.84375 161.253906 C 192.761719 161.292969 192.761719 161.273438 192.671875 161.253906 C 192.625 161.253906 192.632812 161.269531 192.632812 161.226562 L 192.585938 161.226562 L 192.554688 161.195312 C 192.394531 161.117188 192.339844 161.214844 192.238281 161.285156 C 192.238281 161.515625 192.296875 161.460938 192.3125 161.605469 C 192.328125 161.75 192.261719 161.71875 192.34375 161.925781 C 192.476562 162.253906 192.28125 162.398438 192.238281 162.542969 L 192.238281 162.65625 L 192.382812 162.828125 L 192.410156 162.855469 L 192.414062 162.878906 C 192.453125 162.878906 192.441406 162.871094 192.441406 162.914062 L 192.441406 163.085938 C 192.441406 163.136719 192.457031 163.128906 192.414062 163.128906 C 192.414062 163.285156 192.429688 163.34375 192.558594 163.367188 C 192.617188 163.378906 192.675781 163.375 192.742188 163.386719 C 192.828125 163.402344 192.863281 163.414062 192.933594 163.429688 C 192.980469 163.429688 192.972656 163.414062 192.972656 163.457031 C 193.109375 163.503906 193.144531 163.691406 193.320312 163.648438 C 193.476562 163.609375 193.425781 163.46875 193.738281 163.453125 L 193.789062 163.484375 L 194.027344 163.484375 L 194.054688 163.457031 C 194.203125 163.421875 194.195312 163.398438 194.257812 163.285156 L 194.285156 163.253906 C 194.300781 163.097656 194.296875 163.140625 194.292969 162.996094 C 194.289062 162.890625 194.335938 162.828125 194.34375 162.714844 L 194.371094 162.65625 C 194.378906 162.359375 194.664062 162.480469 194.757812 162.238281 C 194.8125 162.09375 194.714844 161.949219 194.839844 161.914062 C 194.949219 161.886719 194.96875 162.019531 195.0625 162.085938 L 195.097656 162.113281 C 195.433594 162.113281 195.242188 161.964844 195.503906 161.914062 C 195.515625 161.894531 195.558594 161.824219 195.558594 161.914062 C 195.722656 161.960938 195.746094 162.171875 195.785156 162.339844 L 195.8125 162.371094 C 195.832031 162.445312 195.839844 162.453125 195.871094 162.511719 L 195.898438 162.542969 C 195.980469 162.691406 196.101562 162.785156 196.222656 162.90625 C 196.359375 163.042969 196.425781 163.128906 196.53125 163.285156 L 196.5625 163.3125 C 196.582031 163.355469 196.59375 163.382812 196.621094 163.421875 C 196.660156 163.421875 196.648438 163.410156 196.648438 163.457031 C 196.664062 163.523438 196.675781 163.539062 196.691406 163.613281 C 196.722656 163.757812 196.664062 163.746094 196.761719 163.773438 L 196.792969 163.773438 C 196.886719 163.753906 196.832031 163.808594 196.851562 163.714844 C 196.851562 163.589844 196.835938 163.585938 196.878906 163.507812 C 196.9375 163.5 196.929688 163.503906 196.96875 163.492188 C 196.949219 163.429688 196.925781 163.367188 196.902344 163.308594 L 196.820312 163.230469 L 196.792969 163.199219 L 196.761719 163.171875 C 196.738281 163.070312 196.644531 162.964844 196.589844 162.882812 L 196.5625 162.859375 L 196.535156 162.828125 C 196.40625 162.644531 196.285156 162.613281 196.160156 162.371094 L 196.128906 162.339844 C 196.097656 162.285156 196.082031 162.265625 196.070312 162.183594 C 196.027344 162.183594 196.042969 162.191406 196.042969 162.140625 L 196.042969 162.113281 C 196.074219 162.066406 196.042969 162.066406 196.074219 162.113281 C 196.160156 162.171875 196.238281 162.292969 196.3125 162.386719 C 196.386719 162.480469 196.523438 162.578125 196.660156 162.703125 C 196.136719 161.46875 195.488281 160.296875 194.730469 159.210938 C 194.714844 159.234375 194.6875 159.261719 194.6875 159.195312 C 194.542969 159.183594 194.648438 159.171875 194.515625 159.136719 L 194.488281 159.109375 L 194.257812 159.109375 C 194.210938 159.300781 194.199219 159.226562 194.3125 159.355469 L 194.339844 159.394531 L 194.339844 159.453125 L 194.3125 159.484375 C 194.203125 159.527344 194.082031 159.449219 193.953125 159.519531 C 193.851562 159.574219 193.777344 159.722656 193.824219 159.824219 Z M 192.269531 158.652344 C 192.269531 158.265625 192.222656 158.480469 192.164062 158.296875 C 192.097656 158.109375 192.167969 157.832031 191.808594 157.820312 L 191.777344 157.792969 L 191.75 157.761719 C 191.539062 157.769531 191.554688 157.847656 191.636719 157.964844 C 191.394531 157.964844 191.542969 157.921875 191.375 157.878906 C 191.332031 157.941406 191.339844 157.910156 191.320312 157.992188 L 191.347656 158.023438 L 191.375 158.050781 C 191.390625 158.230469 191.441406 158.164062 191.492188 158.304688 C 191.542969 158.449219 191.488281 158.507812 191.503906 158.613281 C 191.523438 158.710938 191.613281 158.78125 191.699219 158.789062 C 191.835938 158.800781 191.738281 158.730469 192.039062 158.738281 L 192.097656 158.738281 C 192.230469 158.722656 192.175781 158.710938 192.269531 158.652344 Z M 192.613281 158.621094 L 192.613281 158.746094 C 192.644531 158.78125 192.628906 158.699219 192.636719 158.796875 C 192.644531 158.914062 192.652344 158.820312 192.613281 158.859375 L 192.613281 159.105469 L 192.640625 159.136719 C 192.667969 159.21875 192.65625 159.1875 192.703125 159.253906 L 192.726562 159.28125 L 192.789062 159.335938 C 192.929688 159.410156 192.960938 159.414062 193.113281 159.402344 C 193.289062 159.386719 193.285156 159.449219 193.480469 159.453125 L 193.511719 159.480469 L 193.535156 159.480469 L 193.566406 159.507812 C 193.730469 159.507812 193.796875 159.460938 193.738281 159.335938 L 193.710938 159.308594 C 193.703125 158.929688 193.578125 159.046875 193.460938 158.867188 C 193.421875 158.808594 193.390625 158.707031 193.355469 158.632812 C 193.304688 158.53125 193.273438 158.476562 193.21875 158.390625 L 193.191406 158.363281 C 193.007812 158.039062 192.726562 157.945312 192.648438 157.699219 C 192.605469 157.554688 192.625 157.492188 192.472656 157.445312 L 192.445312 157.421875 C 192.132812 157.414062 192.421875 157.234375 192.238281 157.105469 L 192.203125 157.078125 C 192.101562 157.078125 192.089844 157.085938 192.011719 157.105469 C 191.988281 157.191406 191.980469 157.195312 191.980469 157.308594 L 192.007812 157.335938 L 192.011719 157.390625 L 191.980469 157.441406 L 191.980469 157.554688 L 192.007812 157.589844 C 192.109375 157.734375 192.109375 157.625 192.210938 157.757812 L 192.238281 157.792969 C 192.359375 157.960938 192.25 158.007812 192.390625 158.101562 C 192.488281 158.164062 192.484375 158.105469 192.566406 158.183594 C 192.613281 158.226562 192.585938 158.246094 192.671875 158.308594 L 192.699219 158.335938 C 192.789062 158.382812 192.757812 158.402344 192.757812 158.535156 C 192.703125 158.574219 192.679688 158.589844 192.613281 158.621094 Z M 181.007812 153.613281 C 181.09375 153.746094 181.273438 153.839844 181.410156 153.929688 L 181.4375 153.957031 C 181.550781 154.035156 181.5625 154.082031 181.640625 154.183594 L 181.667969 154.214844 C 181.695312 154.320312 181.695312 154.253906 181.726562 154.359375 L 181.753906 154.386719 L 181.753906 154.40625 C 181.796875 154.40625 181.785156 154.398438 181.785156 154.445312 L 181.839844 154.558594 L 181.871094 154.589844 C 181.996094 154.777344 182.140625 154.9375 182.335938 155.070312 C 182.488281 155.171875 182.789062 155.355469 183.023438 155.359375 L 183.082031 155.386719 L 183.195312 155.382812 L 183.246094 155.417969 L 183.625 155.417969 L 183.683594 155.390625 L 183.808594 155.386719 C 183.855469 155.347656 184.015625 155.339844 184.054688 155.386719 L 184.144531 155.386719 L 184.175781 155.417969 C 184.300781 155.445312 184.332031 155.496094 184.414062 155.582031 C 184.484375 155.65625 184.519531 155.738281 184.605469 155.789062 C 184.757812 155.886719 185.019531 155.902344 185.152344 155.648438 L 185.183594 155.617188 C 185.269531 155.238281 185.289062 155.015625 185.097656 154.730469 L 185.066406 154.703125 L 185.070312 154.671875 L 185.097656 154.648438 C 185.226562 154.640625 185.242188 154.632812 185.300781 154.558594 L 185.328125 154.527344 C 185.359375 154.398438 185.359375 154.460938 185.328125 154.335938 C 185.285156 154.335938 185.296875 154.347656 185.296875 154.300781 C 185.253906 154.207031 185.269531 154.121094 185.269531 153.988281 L 185.296875 153.957031 L 185.414062 153.84375 L 185.441406 153.816406 L 185.457031 153.816406 C 185.457031 153.773438 185.449219 153.785156 185.5 153.785156 C 185.609375 153.777344 185.636719 153.761719 185.789062 153.757812 C 185.9375 153.757812 185.949219 153.734375 186.070312 153.730469 C 186.070312 153.6875 186.058594 153.699219 186.105469 153.699219 C 186.363281 153.640625 186.539062 153.421875 186.652344 153.214844 L 186.679688 153.1875 C 186.734375 153.140625 186.746094 153.109375 186.839844 153.101562 C 186.863281 153.085938 186.84375 153.089844 186.910156 153.074219 C 186.921875 153.070312 186.953125 153.074219 186.96875 153.074219 C 187.175781 153.0625 187.199219 152.933594 187.273438 152.859375 C 184.867188 151.703125 182.183594 151.023438 179.34375 150.957031 L 179.417969 150.984375 L 179.480469 150.984375 L 179.507812 151.011719 C 179.613281 151.019531 179.644531 151.046875 179.738281 151.070312 C 179.789062 151.070312 179.777344 151.054688 179.777344 151.097656 L 179.824219 151.097656 L 179.851562 151.125 C 179.980469 151.15625 180.136719 151.25 180.230469 151.320312 C 180.539062 151.546875 180.707031 152.023438 181.292969 152.007812 L 181.34375 152.042969 C 181.40625 152.050781 181.394531 152.046875 181.4375 152.070312 L 181.46875 152.097656 L 181.5 152.183594 L 181.433594 152.183594 C 181.375 152.226562 181.332031 152.238281 181.269531 152.183594 C 181.046875 152.183594 180.832031 152.105469 180.636719 152.214844 L 180.601562 152.242188 C 180.5625 152.300781 180.53125 152.320312 180.542969 152.4375 C 180.550781 152.511719 180.585938 152.570312 180.640625 152.605469 C 180.789062 152.703125 180.890625 152.589844 181.066406 152.585938 L 181.121094 152.554688 L 181.25 152.554688 C 181.292969 152.515625 181.304688 152.523438 181.378906 152.523438 C 181.460938 152.523438 181.488281 152.515625 181.523438 152.554688 L 181.550781 152.585938 L 181.523438 152.613281 L 181.457031 152.613281 L 181.378906 152.644531 C 181.191406 152.648438 180.984375 152.820312 180.949219 152.984375 L 180.917969 153.015625 L 180.917969 153.042969 C 180.917969 153.089844 180.933594 153.082031 180.890625 153.082031 L 180.890625 153.414062 L 180.917969 153.445312 C 180.9375 153.519531 180.945312 153.527344 180.976562 153.582031 Z M 178.796875 155.191406 C 178.75 155.175781 178.722656 155.195312 178.757812 155.160156 C 178.792969 155.125 178.863281 155.207031 178.796875 155.191406 Z M 176.710938 153.929688 L 176.570312 154.070312 C 176.488281 154.125 176.496094 154.160156 176.40625 154.1875 L 176.339844 154.214844 C 176.207031 154.230469 176.199219 154.277344 176.195312 154.417969 C 176.242188 154.464844 176.257812 154.484375 176.339844 154.5 C 176.316406 154.589844 176.34375 154.546875 176.273438 154.589844 L 176.195312 154.617188 L 176.042969 154.617188 L 175.992188 154.644531 C 175.8125 154.644531 175.867188 154.671875 175.730469 154.703125 L 175.707031 154.703125 C 175.574219 154.691406 175.601562 154.652344 175.5 154.648438 C 175.398438 154.644531 175.402344 154.679688 175.300781 154.703125 L 175.273438 154.730469 C 175.164062 154.757812 175.152344 154.792969 175.042969 154.816406 C 175.042969 155.089844 175.175781 155.007812 175.425781 155.039062 C 175.671875 155.070312 175.722656 154.941406 175.878906 154.902344 L 175.90625 154.875 L 175.957031 154.875 L 175.992188 154.847656 C 176.152344 154.828125 176.054688 154.839844 176.222656 154.847656 L 176.25 154.875 C 176.480469 154.980469 176.28125 154.84375 176.742188 155.101562 C 176.917969 155.199219 176.800781 155.222656 176.914062 155.363281 L 176.945312 155.386719 L 177.375 155.390625 L 177.402344 155.417969 L 177.433594 155.445312 L 177.457031 155.476562 C 177.492188 155.574219 177.476562 155.5625 177.578125 155.589844 L 177.894531 155.589844 L 177.945312 155.617188 C 178.089844 155.652344 177.976562 155.671875 178.183594 155.675781 L 178.214844 155.703125 L 178.269531 155.734375 L 178.300781 155.761719 C 178.363281 155.792969 178.421875 155.804688 178.460938 155.71875 C 178.507812 155.605469 178.433594 155.570312 178.382812 155.535156 C 178.253906 155.441406 178.1875 155.378906 178.007812 155.328125 L 177.980469 155.304688 C 177.894531 155.300781 177.871094 155.296875 177.808594 155.273438 C 177.738281 155.242188 177.714844 155.21875 177.691406 155.160156 L 177.835938 155.164062 L 177.941406 155.1875 L 178.039062 155.191406 L 178.066406 155.21875 C 178.1875 155.226562 178.203125 155.261719 178.328125 155.277344 L 178.355469 155.304688 C 178.414062 155.316406 178.46875 155.324219 178.542969 155.34375 C 178.640625 155.371094 178.644531 155.386719 178.757812 155.386719 C 178.820312 155.296875 178.804688 155.367188 178.816406 155.246094 C 178.90625 155.308594 178.835938 155.292969 178.960938 155.304688 C 179.003906 155.109375 178.972656 155.070312 178.816406 154.988281 L 178.785156 154.960938 L 178.757812 154.929688 L 178.730469 154.902344 C 178.65625 154.851562 178.671875 154.835938 178.574219 154.800781 C 178.5 154.773438 178.449219 154.769531 178.375 154.738281 C 178.21875 154.675781 178.15625 154.613281 178.039062 154.527344 L 178.011719 154.5 C 177.914062 154.476562 177.953125 154.492188 177.894531 154.429688 L 177.867188 154.386719 C 177.890625 154.277344 177.878906 154.292969 177.953125 154.25 L 177.976562 154.359375 C 178.011719 154.394531 177.929688 154.390625 178.039062 154.382812 C 178.101562 154.378906 178.0625 154.382812 178.097656 154.359375 C 178.097656 154.332031 178.09375 154.300781 178.097656 154.273438 C 178.117188 154.152344 178.097656 154.257812 178.125 154.203125 L 178.125 154.160156 C 178.210938 154.179688 178.210938 154.195312 178.296875 154.21875 L 178.351562 154.246094 C 178.480469 154.308594 178.476562 154.328125 178.671875 154.332031 L 178.699219 154.359375 L 178.699219 154.417969 C 178.738281 154.554688 178.769531 154.527344 178.929688 154.535156 L 178.960938 154.558594 C 179.023438 154.625 179.03125 154.640625 179.160156 154.644531 C 179.207031 154.554688 179.171875 154.527344 179.214844 154.445312 C 179.214844 154.445312 179.277344 154.347656 179.277344 154.445312 L 179.421875 154.445312 C 179.648438 154.421875 179.863281 154.023438 179.574219 154.03125 C 179.285156 154.035156 179.445312 153.992188 179.261719 153.945312 C 179.046875 153.894531 179.332031 154.011719 178.902344 153.898438 L 178.875 153.871094 L 178.84375 153.84375 C 178.804688 153.84375 178.8125 153.855469 178.8125 153.816406 L 178.757812 153.785156 L 178.730469 153.757812 C 178.625 153.734375 178.421875 153.703125 178.296875 153.695312 L 178.265625 153.671875 C 178.066406 153.5625 178.210938 153.613281 177.949219 153.585938 C 177.746094 153.566406 177.863281 153.488281 177.894531 153.359375 L 177.921875 153.328125 C 177.9375 153.15625 178 153.214844 178.097656 153.15625 L 178.097656 153.070312 L 178.058594 153.042969 L 178.007812 153.039062 L 177.984375 153.015625 L 177.628906 153.042969 L 177.578125 153.070312 L 177.515625 153.054688 C 177.578125 152.941406 177.535156 152.851562 177.394531 152.886719 C 177.230469 152.921875 177.523438 152.964844 177.105469 152.855469 C 176.894531 152.800781 176.980469 152.757812 176.859375 152.691406 C 176.730469 152.621094 176.675781 152.71875 176.542969 152.726562 C 176.539062 152.734375 176.476562 152.824219 176.476562 152.726562 L 176.40625 152.726562 C 176.402344 152.730469 176.394531 152.738281 176.386719 152.742188 L 176.367188 152.75 C 176.347656 152.757812 176.335938 152.753906 176.308594 152.753906 L 176.195312 152.753906 L 176.136719 152.726562 L 176.050781 152.726562 L 176.050781 152.640625 C 176.140625 152.640625 176.214844 152.648438 176.191406 152.539062 C 176.171875 152.460938 176.097656 152.453125 176.023438 152.410156 L 175.996094 152.386719 C 175.875 152.386719 175.882812 152.390625 175.796875 152.414062 L 175.761719 152.441406 C 175.585938 152.449219 175.648438 152.496094 175.476562 152.5 L 175.445312 152.527344 C 175.226562 152.550781 175.316406 152.726562 175.070312 152.726562 L 175.042969 152.699219 C 174.898438 152.515625 174.765625 152.667969 174.597656 152.699219 C 174.585938 152.722656 174.546875 152.78125 174.546875 152.699219 C 174.480469 152.5625 174.652344 152.386719 174.4375 152.324219 L 174.320312 152.324219 C 174.222656 152.355469 174.257812 152.347656 174.191406 152.414062 C 174.171875 152.425781 174.175781 152.429688 174.132812 152.429688 C 174.09375 152.433594 174.097656 152.449219 174.097656 152.414062 L 174.035156 152.414062 L 174.003906 152.386719 C 173.890625 152.386719 173.886719 152.394531 173.804688 152.414062 L 173.773438 152.441406 C 173.609375 152.53125 173.691406 152.492188 173.601562 152.640625 C 173.550781 152.726562 173.488281 152.757812 173.429688 152.84375 C 173.449219 152.917969 173.425781 152.867188 173.457031 152.929688 L 173.511719 152.984375 C 173.546875 153.027344 173.542969 152.921875 173.542969 153.070312 C 173.527344 153.082031 173.449219 153.144531 173.371094 153.105469 C 173.367188 153.097656 173.273438 153.035156 173.371094 153.035156 C 173.359375 152.984375 173.363281 152.992188 173.34375 152.957031 L 173.308594 152.929688 C 172.980469 152.898438 173.398438 152.3125 172.988281 152.546875 C 172.964844 152.558594 172.960938 152.597656 172.765625 152.613281 L 172.738281 152.640625 C 172.589844 152.675781 172.542969 152.632812 172.503906 152.757812 L 172.476562 152.785156 C 172.390625 152.902344 172.40625 152.78125 172.359375 152.929688 L 172.335938 152.953125 C 172.285156 153.035156 172.253906 153.050781 172.304688 153.15625 L 172.332031 153.1875 C 172.371094 153.207031 172.363281 153.203125 172.421875 153.214844 L 172.449219 153.1875 L 172.566406 153.1875 L 172.601562 153.214844 L 172.738281 153.214844 L 172.765625 153.1875 L 172.851562 153.183594 L 172.828125 153.242188 L 172.765625 153.269531 L 172.738281 153.269531 L 172.628906 153.242188 C 172.246094 153.242188 172.386719 153.476562 172.527344 153.464844 L 172.996094 153.386719 L 173.035156 153.414062 L 173.21875 153.414062 L 173.257812 153.386719 L 173.3125 153.386719 L 173.351562 153.414062 L 173.441406 153.414062 L 173.488281 153.382812 L 173.660156 153.386719 L 173.691406 153.414062 L 173.804688 153.414062 L 173.832031 153.386719 C 173.980469 153.382812 174.167969 153.394531 174.269531 153.363281 C 174.445312 153.308594 174.402344 153.230469 174.574219 153.1875 L 174.777344 153.1875 L 174.8125 153.160156 L 174.980469 153.007812 C 175.019531 153.136719 175.09375 153.117188 175.214844 153.15625 C 175.363281 153.207031 175.328125 153.265625 175.503906 153.273438 C 175.609375 153.277344 175.558594 153.265625 175.613281 153.300781 C 175.703125 153.304688 175.804688 153.402344 176.023438 153.5 C 176.089844 153.53125 176.109375 153.554688 176.167969 153.585938 C 176.441406 153.742188 176.445312 153.601562 176.683594 153.894531 Z M 175.15625 164.808594 C 175.164062 164.558594 175.242188 164.3125 175.328125 164.144531 L 175.359375 164.117188 L 175.417969 164.058594 C 175.476562 164.03125 175.519531 164.015625 175.589844 164 L 175.617188 163.972656 C 175.816406 163.835938 175.753906 163.78125 175.871094 163.59375 C 175.96875 163.441406 176.050781 163.378906 176.195312 163.285156 L 176.222656 163.257812 C 176.429688 163.117188 176.601562 162.945312 176.742188 162.742188 L 176.769531 162.710938 C 176.878906 162.519531 176.964844 162.347656 177.144531 162.226562 L 177.175781 162.199219 C 177.277344 162.144531 177.441406 162.039062 177.578125 162.027344 L 177.605469 161.996094 L 177.671875 161.996094 L 177.722656 161.964844 C 177.941406 161.976562 178.097656 161.949219 178.238281 161.882812 L 178.269531 161.855469 C 178.398438 161.820312 178.449219 161.726562 178.613281 161.710938 L 178.644531 161.683594 L 178.671875 161.683594 L 178.699219 161.65625 C 178.875 161.640625 178.785156 161.640625 178.960938 161.65625 C 178.929688 161.765625 178.847656 161.796875 178.738281 161.828125 C 178.738281 161.867188 178.746094 161.855469 178.699219 161.855469 C 178.523438 161.898438 178.359375 161.984375 178.355469 162.199219 L 178.382812 162.226562 C 178.429688 162.402344 178.65625 162.421875 178.761719 162.285156 C 178.800781 162.230469 178.824219 162.171875 178.878906 162.117188 C 178.953125 162.046875 178.988281 162.042969 179.078125 161.996094 L 179.105469 161.972656 C 179.207031 161.945312 179.1875 161.921875 179.304688 161.914062 C 179.304688 161.871094 179.292969 161.882812 179.335938 161.882812 L 179.414062 161.882812 L 179.480469 161.855469 C 179.679688 161.855469 179.75 161.835938 179.910156 161.796875 C 179.929688 161.714844 179.941406 161.710938 179.941406 161.597656 L 179.851562 161.539062 L 179.824219 161.511719 L 179.6875 161.511719 C 179.617188 161.550781 179.570312 161.550781 179.484375 161.53125 L 179.441406 161.511719 C 179.230469 161.511719 179.03125 161.375 178.945312 161.238281 C 178.886719 161.144531 178.882812 161.074219 178.820312 160.992188 C 178.746094 160.890625 178.691406 160.882812 178.585938 160.824219 L 178.558594 160.796875 L 178.648438 160.738281 C 178.675781 160.722656 178.652344 160.726562 178.703125 160.714844 C 178.726562 160.707031 178.765625 160.710938 178.789062 160.710938 C 178.921875 160.699219 178.867188 160.6875 178.960938 160.625 C 178.960938 160.574219 178.964844 160.472656 178.957031 160.429688 C 178.933594 160.332031 178.925781 160.351562 178.84375 160.308594 C 178.71875 160.308594 178.789062 160.308594 178.761719 160.28125 L 178.625 160.28125 C 178.605469 160.292969 178.601562 160.300781 178.554688 160.308594 C 178.546875 160.308594 178.511719 160.3125 178.5 160.3125 C 178.472656 160.3125 178.417969 160.308594 178.382812 160.308594 C 178.191406 160.308594 178.160156 160.355469 178.011719 160.367188 L 177.980469 160.394531 C 177.816406 160.410156 177.554688 160.554688 177.453125 160.644531 C 177.324219 160.761719 177.214844 160.953125 177.03125 160.996094 L 177.03125 160.910156 L 177.058594 160.878906 C 177.128906 160.78125 177.214844 160.703125 177.324219 160.628906 C 177.390625 160.585938 177.566406 160.449219 177.605469 160.394531 L 177.632812 160.363281 L 177.664062 160.339844 C 177.808594 160.242188 177.925781 160.15625 178.125 160.109375 L 178.152344 160.082031 C 178.273438 160.070312 178.355469 160.023438 178.46875 159.996094 L 178.5 159.96875 C 178.554688 159.9375 178.613281 159.917969 178.691406 159.910156 C 178.691406 159.867188 178.683594 159.878906 178.730469 159.878906 C 178.863281 159.878906 178.980469 159.851562 179.160156 159.851562 C 179.351562 159.851562 179.441406 159.878906 179.59375 159.882812 L 179.621094 159.910156 C 179.761719 159.910156 179.746094 159.933594 179.855469 159.9375 C 179.976562 159.941406 179.972656 159.910156 180.117188 159.910156 L 180.167969 159.878906 C 180.304688 159.871094 180.453125 159.769531 180.546875 159.710938 L 180.574219 159.679688 C 180.65625 159.636719 180.703125 159.597656 180.820312 159.59375 C 180.820312 159.550781 180.8125 159.566406 180.863281 159.566406 C 181.148438 159.566406 181.265625 159.574219 181.433594 159.453125 C 181.433594 159.410156 181.421875 159.417969 181.464844 159.417969 L 181.496094 159.394531 L 181.523438 159.363281 C 181.644531 159.1875 181.671875 159.121094 181.667969 158.824219 C 181.667969 158.710938 181.671875 158.585938 181.667969 158.476562 C 181.660156 158.339844 181.621094 158.289062 181.609375 158.164062 L 181.582031 158.136719 L 181.582031 158.113281 L 181.554688 158.078125 L 181.496094 157.964844 L 181.464844 157.933594 L 181.433594 157.90625 L 181.351562 157.820312 L 181.320312 157.792969 C 181.253906 157.746094 181.207031 157.699219 181.121094 157.679688 L 181.089844 157.648438 C 180.816406 157.585938 180.71875 157.578125 180.433594 157.648438 C 180.433594 157.691406 180.445312 157.679688 180.402344 157.679688 C 180.179688 157.695312 180.003906 157.757812 179.820312 157.625 C 179.644531 157.5 179.652344 157.386719 179.59375 157.171875 C 179.550781 157.171875 179.566406 157.179688 179.566406 157.132812 C 179.53125 157.070312 179.515625 157.046875 179.480469 156.992188 L 179.445312 156.964844 L 179.417969 156.9375 L 179.390625 156.90625 L 179.304688 156.851562 L 179.277344 156.820312 C 179.171875 156.742188 179.246094 156.804688 179.207031 156.660156 C 179.175781 156.570312 179.164062 156.546875 179.105469 156.503906 L 179.074219 156.476562 C 178.910156 156.394531 178.738281 156.449219 178.65625 156.574219 C 178.464844 156.859375 178.25 156.988281 177.855469 156.886719 C 177.652344 156.835938 177.582031 156.800781 177.492188 156.65625 C 177.449219 156.65625 177.460938 156.664062 177.460938 156.617188 L 177.460938 156.585938 C 177.421875 156.535156 177.445312 156.601562 177.433594 156.503906 C 177.429688 156.484375 177.433594 156.417969 177.433594 156.390625 C 177.371094 156.128906 177.183594 156.097656 176.972656 155.988281 L 176.941406 155.960938 C 176.851562 155.898438 176.8125 155.824219 176.683594 155.789062 L 176.65625 155.761719 C 176.5625 155.71875 176.445312 155.675781 176.308594 155.675781 L 176.050781 155.675781 C 175.910156 155.675781 175.929688 155.699219 175.816406 155.703125 C 175.6875 155.707031 175.726562 155.675781 175.589844 155.675781 C 175.511719 155.675781 175.402344 155.695312 175.367188 155.648438 C 175.242188 155.621094 175.261719 155.574219 175.148438 155.605469 C 175.140625 155.605469 175.054688 155.65625 175.054688 155.65625 C 174.992188 155.722656 175.027344 155.613281 175.011719 155.761719 L 175.011719 155.847656 C 175.023438 155.945312 175.035156 155.972656 175.042969 156.105469 C 175.050781 156.230469 175.078125 156.277344 175.09375 156.371094 C 175.140625 156.664062 175.003906 156.59375 174.898438 156.789062 L 174.871094 156.820312 C 174.871094 157.066406 174.863281 157.09375 175.03125 157.203125 C 175.144531 157.277344 175.25 157.34375 175.289062 157.488281 C 175.378906 157.820312 175.050781 158.066406 174.871094 158.164062 L 174.839844 158.191406 C 174.636719 158.300781 174.464844 158.394531 174.496094 158.734375 C 174.507812 158.871094 174.550781 158.953125 174.554688 159.109375 C 174.558594 159.304688 174.53125 159.363281 174.496094 159.507812 L 174.464844 159.535156 C 174.328125 159.746094 174.074219 159.800781 173.917969 159.566406 L 173.890625 159.539062 C 173.816406 159.398438 173.792969 159.324219 173.75 159.160156 C 173.726562 159.058594 173.691406 158.8125 173.6875 158.699219 L 173.65625 158.652344 C 173.632812 158.535156 173.527344 158.367188 173.449219 158.289062 C 173.414062 158.253906 173.316406 158.1875 173.285156 158.164062 C 173.21875 158.125 173.171875 158.085938 173.082031 158.078125 L 173.054688 158.050781 C 172.914062 158.050781 172.929688 158.027344 172.824219 158.023438 C 172.699219 158.019531 172.710938 158.050781 172.5625 158.050781 L 172.535156 158.078125 L 172.46875 158.078125 C 172.410156 158.128906 172.289062 158.125 172.21875 158.078125 L 172.074219 158.078125 L 171.992188 158.050781 C 171.789062 158.050781 171.714844 157.992188 171.527344 157.992188 L 171.472656 157.964844 C 171.34375 157.953125 171.078125 157.84375 170.980469 157.792969 L 170.953125 157.761719 C 170.855469 157.699219 170.648438 157.433594 170.597656 157.316406 C 170.554688 157.21875 170.519531 157.117188 170.515625 156.992188 C 170.515625 156.8125 170.566406 156.765625 170.578125 156.617188 L 170.605469 156.585938 L 170.605469 156.5625 L 170.632812 156.53125 C 170.65625 156.496094 170.667969 156.457031 170.695312 156.421875 C 170.726562 156.363281 170.742188 156.359375 170.777344 156.304688 C 170.777344 156.261719 170.765625 156.273438 170.808594 156.273438 C 170.855469 156.207031 170.871094 156.199219 170.894531 156.105469 C 170.894531 156.0625 170.882812 156.070312 170.921875 156.070312 L 170.921875 156.046875 L 170.953125 156.019531 C 170.976562 155.914062 170.984375 155.902344 171.0625 155.839844 C 171.113281 155.796875 171.175781 155.75 171.238281 155.730469 L 171.269531 155.703125 L 171.292969 155.703125 L 171.324219 155.675781 C 171.46875 155.664062 171.464844 155.617188 171.632812 155.617188 C 171.632812 155.574219 171.621094 155.589844 171.671875 155.589844 C 171.816406 155.585938 171.890625 155.53125 172.015625 155.503906 L 172.046875 155.476562 C 172.203125 155.4375 172.519531 155.242188 172.59375 155.132812 C 172.574219 155.046875 172.597656 155.089844 172.535156 155.046875 L 172.421875 155.046875 L 172.476562 155.015625 C 172.738281 154.792969 172.804688 154.554688 172.980469 154.519531 C 173.128906 154.492188 173.183594 154.628906 173.359375 154.578125 C 173.460938 154.546875 173.421875 154.515625 173.527344 154.484375 C 173.601562 154.460938 173.695312 154.472656 173.773438 154.472656 L 173.804688 154.445312 L 173.828125 154.445312 L 173.859375 154.417969 C 173.917969 154.386719 173.914062 154.390625 173.96875 154.351562 C 174.042969 154.292969 173.984375 154.300781 174.089844 154.273438 L 174.121094 154.246094 C 174.289062 154.203125 174.242188 154.023438 174.136719 153.941406 C 174.03125 153.855469 173.953125 153.761719 173.859375 153.699219 L 173.828125 153.671875 L 173.773438 153.671875 C 173.726562 153.671875 173.738281 153.683594 173.738281 153.644531 L 173.578125 153.644531 L 173.542969 153.671875 C 173.433594 153.699219 173.425781 153.734375 173.308594 153.757812 L 173.257812 153.789062 C 172.957031 153.855469 173.289062 154.109375 172.902344 154.1875 L 172.851562 154.21875 C 172.640625 154.210938 172.671875 154.292969 172.449219 154.1875 C 172.535156 154.074219 172.578125 154.160156 172.59375 153.988281 L 172.59375 153.957031 C 172.578125 153.78125 172.421875 153.796875 172.300781 153.835938 C 172.164062 153.882812 172.148438 153.949219 172.015625 154.015625 L 171.960938 153.957031 L 171.929688 153.929688 L 171.902344 153.902344 C 171.832031 153.839844 171.785156 153.808594 171.644531 153.8125 C 171.519531 153.816406 171.457031 153.84375 171.386719 153.90625 C 171.210938 154.070312 171.34375 154.160156 171.066406 154.300781 L 170.921875 154.445312 L 170.894531 154.476562 L 170.863281 154.5 C 170.816406 154.59375 170.785156 154.652344 170.691406 154.703125 C 170.550781 154.78125 170.53125 154.742188 170.375 154.730469 C 170.332031 154.730469 170.34375 154.742188 170.34375 154.703125 C 170.1875 154.664062 170.210938 154.644531 170 154.644531 L 169.914062 154.644531 C 169.558594 154.644531 169.539062 154.765625 169.304688 154.816406 L 169.25 154.847656 C 169.132812 154.84375 169.035156 154.886719 168.929688 154.898438 C 168.8125 154.910156 168.652344 154.902344 168.53125 154.902344 L 168.503906 154.929688 L 168.394531 154.929688 L 168.328125 154.960938 C 168.0625 154.980469 167.929688 155.164062 167.695312 155.21875 L 167.667969 155.246094 C 167.535156 155.277344 167.46875 155.328125 167.3125 155.332031 L 167.265625 155.367188 C 167.132812 155.359375 167.113281 155.390625 167.007812 155.417969 L 166.976562 155.445312 L 166.898438 155.445312 L 166.859375 155.472656 C 166.726562 155.480469 166.667969 155.519531 166.542969 155.53125 C 166.523438 155.535156 166.390625 155.535156 166.371094 155.53125 L 166.363281 155.53125 C 164.71875 156.925781 163.3125 158.59375 162.214844 160.460938 C 162.253906 160.480469 162.296875 160.519531 162.339844 160.589844 L 162.363281 160.625 C 162.386719 160.707031 162.40625 160.773438 162.425781 160.855469 L 162.453125 160.882812 C 162.464844 161.015625 162.507812 161.015625 162.539062 161.128906 C 162.582031 161.128906 162.570312 161.117188 162.570312 161.167969 L 162.710938 161.449219 C 162.753906 161.449219 162.742188 161.441406 162.742188 161.484375 C 162.769531 161.605469 162.84375 161.703125 162.855469 161.847656 L 162.882812 161.882812 C 162.894531 162.113281 162.972656 162.265625 162.941406 162.566406 C 162.929688 162.648438 162.898438 162.785156 162.875 162.875 C 162.835938 163.007812 162.78125 163.042969 162.769531 163.171875 L 162.742188 163.199219 C 162.730469 163.324219 162.691406 163.332031 162.6875 163.457031 L 162.65625 163.535156 L 162.660156 163.601562 L 162.625 163.648438 C 162.625 163.789062 162.605469 163.800781 162.597656 163.945312 C 162.589844 164.082031 162.566406 164.121094 162.566406 164.230469 L 162.625 164.808594 L 162.660156 164.859375 L 162.65625 164.921875 L 162.683594 165.003906 C 162.691406 165.125 162.730469 165.136719 162.742188 165.261719 L 162.769531 165.289062 C 162.78125 165.410156 162.84375 165.476562 162.855469 165.625 L 162.882812 165.660156 C 162.886719 165.757812 162.898438 165.792969 162.910156 165.867188 C 162.921875 165.964844 162.921875 166.023438 162.925781 166.0625 C 162.945312 166.226562 162.988281 166.292969 163.117188 166.375 L 163.144531 166.40625 C 163.363281 166.457031 163.671875 166.625 163.691406 166.859375 C 163.707031 166.882812 163.707031 166.875 163.71875 166.921875 C 163.722656 166.929688 163.71875 166.960938 163.71875 166.976562 C 163.722656 167.21875 163.75 167.378906 163.828125 167.558594 C 163.878906 167.683594 163.894531 167.667969 163.972656 167.757812 C 164.035156 167.828125 164.082031 167.898438 164.125 167.976562 L 164.152344 168.007812 C 164.21875 168.804688 164.179688 168.429688 164.476562 168.714844 C 164.570312 168.800781 164.585938 168.8125 164.644531 168.921875 L 164.671875 168.949219 C 164.695312 169.199219 164.789062 169.394531 164.925781 169.585938 L 164.988281 169.664062 L 165.019531 169.695312 L 165.160156 169.839844 L 165.191406 169.867188 C 165.230469 169.886719 165.214844 169.894531 165.269531 169.878906 C 165.390625 169.84375 165.304688 169.890625 165.335938 169.808594 L 165.335938 169.75 C 165.28125 169.675781 165.210938 169.597656 165.160156 169.523438 L 165.132812 169.496094 L 165.132812 169.464844 L 165.105469 169.4375 C 165.074219 169.375 165.054688 169.324219 165.046875 169.242188 L 165.015625 169.207031 L 165.015625 169.0625 L 164.988281 168.980469 C 164.980469 168.875 164.953125 168.84375 164.929688 168.75 L 164.902344 168.722656 L 164.902344 168.699219 L 164.875 168.664062 C 164.832031 168.5 164.652344 168.230469 164.527344 168.148438 L 164.5 168.121094 L 164.46875 168.09375 C 164.429688 168.09375 164.4375 168.105469 164.4375 168.0625 C 164.390625 167.984375 164.308594 167.875 164.296875 167.757812 C 164.253906 167.757812 164.265625 167.769531 164.265625 167.71875 C 164.265625 167.613281 164.230469 167.507812 164.222656 167.394531 C 164.21875 167.34375 164.21875 167.308594 164.234375 167.261719 C 164.265625 167.152344 164.25 167.175781 164.320312 167.148438 C 164.328125 167.140625 164.390625 167.046875 164.390625 167.148438 C 164.488281 167.179688 164.523438 167.273438 164.527344 167.398438 L 164.554688 167.433594 L 164.554688 167.488281 L 164.585938 167.519531 L 164.644531 167.710938 C 164.683594 167.710938 164.671875 167.703125 164.671875 167.75 C 164.695312 167.855469 164.816406 168.019531 164.875 168.117188 C 164.914062 168.117188 164.902344 168.109375 164.902344 168.148438 C 164.972656 168.257812 164.988281 168.277344 165.082031 168.371094 C 165.132812 168.421875 165.222656 168.53125 165.257812 168.597656 C 165.421875 168.890625 165.175781 168.835938 165.566406 169.09375 L 165.59375 169.121094 L 165.621094 169.152344 L 165.796875 169.320312 L 165.824219 169.351562 L 165.855469 169.378906 C 165.917969 169.480469 165.996094 169.566406 166.0625 169.683594 C 166.121094 169.789062 166.203125 169.933594 166.226562 170.046875 L 166.261719 170.09375 C 166.261719 170.21875 166.308594 170.273438 166.3125 170.410156 L 166.34375 170.4375 C 166.34375 170.671875 166.449219 170.859375 166.566406 170.988281 C 166.671875 171.105469 166.859375 171.265625 167.035156 171.292969 L 167.085938 171.324219 C 167.148438 171.351562 167.253906 171.394531 167.320312 171.410156 L 167.355469 171.441406 C 167.4375 171.460938 167.4375 171.476562 167.523438 171.5 L 167.558594 171.523438 C 167.660156 171.550781 167.675781 171.585938 167.78125 171.609375 L 167.8125 171.640625 L 168.1875 171.8125 L 168.214844 171.839844 C 168.28125 171.875 168.332031 171.902344 168.390625 171.949219 C 168.46875 172.011719 168.460938 172.023438 168.558594 172.070312 C 168.761719 172.167969 168.847656 172.117188 169.050781 172.070312 L 169.109375 172.042969 L 169.394531 172.042969 C 169.445312 172.042969 169.4375 172.027344 169.4375 172.070312 L 169.570312 172.125 L 169.597656 172.15625 L 169.625 172.183594 L 169.65625 172.210938 C 169.707031 172.3125 169.738281 172.378906 169.800781 172.46875 L 169.828125 172.5 L 169.859375 172.523438 L 169.914062 172.585938 C 169.996094 172.640625 169.984375 172.652344 170.089844 172.695312 C 170.15625 172.722656 170.238281 172.75 170.316406 172.757812 L 170.386719 172.785156 L 170.433594 172.777344 L 170.480469 172.8125 C 170.632812 172.816406 170.6875 172.867188 170.835938 172.871094 L 170.863281 172.898438 C 171.054688 172.914062 171.191406 173.035156 171.355469 173.070312 L 171.382812 173.097656 C 171.457031 173.148438 171.464844 173.148438 171.523438 173.21875 C 171.578125 173.277344 171.589844 173.289062 171.613281 173.375 C 171.65625 173.375 171.644531 173.367188 171.644531 173.414062 C 171.664062 173.511719 171.703125 173.5625 171.730469 173.671875 L 171.757812 173.699219 C 171.769531 173.824219 171.800781 173.882812 171.863281 173.96875 C 171.925781 174.050781 171.96875 174.101562 172.074219 174.128906 L 172.105469 174.15625 L 172.132812 174.160156 L 172.160156 174.1875 C 172.21875 174.21875 172.230469 174.226562 172.304688 174.246094 L 172.332031 174.273438 C 172.492188 174.308594 172.582031 174.40625 172.738281 174.445312 L 172.765625 174.472656 C 172.832031 174.507812 172.882812 174.539062 172.96875 174.558594 L 172.996094 174.585938 C 173.09375 174.609375 173.242188 174.691406 173.335938 174.738281 C 173.457031 174.804688 173.496094 174.921875 173.628906 174.957031 L 173.6875 174.957031 C 173.792969 174.929688 173.75 174.929688 173.832031 174.875 C 173.832031 174.640625 173.808594 174.5 174.039062 174.472656 C 174.179688 174.457031 174.398438 174.535156 174.4375 174.671875 L 174.464844 174.703125 C 174.464844 174.800781 174.453125 174.84375 174.402344 174.898438 C 174.339844 174.964844 174.320312 174.945312 174.226562 174.980469 C 174.039062 175.046875 174.085938 175.152344 173.871094 175.160156 L 173.804688 175.1875 C 173.683594 175.21875 173.632812 175.296875 173.632812 175.445312 L 173.601562 175.476562 C 173.582031 175.558594 173.550781 175.605469 173.515625 175.675781 L 173.488281 175.703125 C 173.414062 175.8125 173.335938 175.855469 173.257812 175.988281 C 173.199219 176.089844 173.109375 176.242188 173.121094 176.390625 L 173.082031 176.4375 L 173.082031 176.8125 L 173.113281 176.875 L 173.121094 177.332031 L 173.082031 177.378906 L 173.082031 177.449219 C 173.082031 177.492188 173.09375 177.480469 173.054688 177.480469 C 173.039062 177.550781 173.027344 177.566406 172.996094 177.621094 L 172.96875 177.648438 C 172.882812 177.773438 172.773438 177.828125 172.6875 177.96875 C 172.671875 177.992188 172.640625 178.046875 172.632812 178.058594 C 172.535156 178.160156 172.410156 178.066406 172.363281 178.25 L 172.335938 178.28125 L 172.335938 178.386719 C 172.355469 178.421875 172.347656 178.390625 172.351562 178.441406 C 172.355469 178.484375 172.382812 178.476562 172.335938 178.476562 C 172.328125 178.777344 172.074219 178.796875 172.140625 179.039062 C 172.167969 179.132812 172.207031 179.15625 172.304688 179.164062 L 172.335938 179.191406 L 172.363281 179.195312 L 172.394531 179.21875 L 172.421875 179.25 C 172.414062 179.445312 172.292969 179.46875 172.160156 179.535156 L 172.132812 179.566406 C 172.09375 179.625 172.035156 179.683594 172.089844 179.808594 C 172.144531 179.933594 172.1875 179.820312 172.191406 180.023438 L 172.160156 180.050781 L 172.160156 180.164062 L 172.191406 180.195312 L 172.21875 180.226562 L 172.246094 180.25 C 172.324219 180.269531 172.332031 180.277344 172.390625 180.308594 L 172.421875 180.339844 C 172.570312 180.441406 172.714844 180.535156 172.828125 180.675781 C 172.917969 180.785156 173.046875 181.015625 173.082031 181.167969 L 173.113281 181.195312 C 173.136719 181.292969 173.234375 181.480469 173.285156 181.566406 C 173.320312 181.625 173.363281 181.683594 173.398438 181.742188 C 173.445312 181.820312 173.472656 181.84375 173.515625 181.914062 L 173.542969 181.941406 C 173.765625 182.261719 174.058594 182.550781 174.378906 182.769531 L 174.410156 182.796875 C 174.535156 182.882812 174.578125 182.921875 174.726562 182.996094 L 174.753906 183.027344 L 174.984375 183.140625 C 175.035156 183.140625 175.027344 183.128906 175.027344 183.171875 C 175.121094 183.199219 175.140625 183.230469 175.242188 183.257812 L 175.277344 183.285156 C 175.484375 183.335938 175.714844 183.644531 175.734375 183.894531 C 175.792969 183.964844 175.761719 184.332031 175.761719 184.457031 L 175.746094 185.019531 C 175.742188 185.015625 175.738281 185.035156 175.734375 185.039062 L 175.734375 185.171875 L 175.703125 185.203125 C 175.703125 185.347656 175.660156 185.355469 175.644531 185.488281 L 175.617188 185.515625 C 175.597656 185.605469 175.582031 185.597656 175.5625 185.6875 L 175.53125 185.714844 C 175.496094 185.792969 175.449219 185.917969 175.445312 186.03125 L 175.445312 186.347656 C 175.445312 186.488281 175.472656 186.488281 175.476562 186.632812 C 175.480469 186.785156 175.445312 186.824219 175.449219 186.945312 L 175.417969 187 C 175.378906 187.074219 175.351562 187.101562 175.328125 187.175781 L 175.300781 187.203125 C 175.277344 187.308594 175.253906 187.285156 175.242188 187.40625 L 175.214844 187.46875 L 175.214844 187.546875 L 175.1875 187.601562 L 175.1875 187.921875 L 175.214844 187.976562 L 175.214844 188.054688 L 175.246094 188.121094 C 175.265625 188.210938 175.292969 188.246094 175.300781 188.34375 L 175.328125 188.40625 C 175.332031 188.585938 175.363281 188.574219 175.335938 188.726562 C 175.324219 188.8125 175.304688 188.859375 175.285156 188.90625 C 175.882812 189.019531 176.492188 189.105469 177.109375 189.160156 C 177.097656 189.058594 177.078125 189.109375 177.117188 188.949219 C 177.117188 188.898438 177.101562 188.90625 177.144531 188.90625 C 177.296875 188.753906 177.449219 188.527344 177.742188 188.519531 L 177.808594 188.492188 C 177.945312 188.492188 177.960938 188.480469 178.050781 188.417969 C 178.160156 188.34375 178.152344 188.34375 178.210938 188.234375 L 178.238281 188.207031 L 178.265625 188.148438 L 178.328125 188.09375 L 178.355469 188.0625 L 178.488281 188.003906 C 178.488281 187.964844 178.480469 187.976562 178.527344 187.976562 L 178.582031 187.976562 C 178.605469 187.964844 178.597656 187.960938 178.644531 187.953125 L 178.828125 187.96875 C 178.832031 187.960938 178.839844 187.972656 178.847656 187.976562 L 178.902344 187.976562 C 178.949219 187.976562 178.941406 187.964844 178.941406 188.003906 L 179.191406 188.003906 L 179.21875 187.976562 C 179.425781 187.960938 179.511719 187.792969 179.609375 187.648438 C 179.707031 187.511719 179.875 187.390625 180.050781 187.347656 L 180.082031 187.320312 C 180.171875 187.296875 180.167969 187.28125 180.253906 187.261719 L 180.285156 187.234375 C 180.394531 187.203125 180.320312 187.203125 180.429688 187.175781 L 180.457031 187.148438 C 180.535156 187.105469 180.585938 187.074219 180.660156 187.03125 L 180.6875 187.003906 C 180.980469 186.824219 181.304688 186.488281 181.496094 186.203125 L 181.523438 186.171875 L 181.550781 186.144531 C 181.597656 186.117188 181.621094 186.09375 181.671875 186.066406 C 181.734375 186.03125 181.753906 186.03125 181.8125 186.003906 L 181.839844 185.972656 C 181.949219 185.945312 181.957031 185.914062 181.988281 185.800781 L 182.015625 185.761719 L 182.011719 185.488281 L 182.042969 185.457031 C 182.050781 185.363281 182.066406 185.351562 182.101562 185.289062 L 182.128906 185.257812 L 182.246094 185.144531 L 182.273438 185.113281 L 182.328125 185.085938 L 182.359375 185.058594 L 182.382812 185.058594 L 182.417969 185.03125 C 182.515625 185.007812 182.554688 184.976562 182.675781 184.972656 L 182.707031 184.945312 L 182.765625 184.945312 L 182.820312 184.914062 C 182.945312 184.90625 182.957031 184.867188 183.078125 184.859375 L 183.109375 184.828125 C 183.226562 184.804688 183.289062 184.746094 183.445312 184.742188 C 183.488281 184.722656 183.40625 184.742188 183.511719 184.71875 C 183.53125 184.714844 183.578125 184.714844 183.597656 184.714844 C 183.875 184.710938 183.917969 184.6875 184.085938 184.570312 L 184.117188 184.542969 L 184.144531 184.515625 L 184.171875 184.484375 L 184.203125 184.457031 C 184.257812 184.378906 184.308594 184.324219 184.316406 184.199219 C 184.316406 184.15625 184.304688 184.164062 184.347656 184.164062 C 184.363281 184.101562 184.378906 184.050781 184.40625 184 C 184.40625 183.953125 184.390625 183.960938 184.433594 183.960938 C 184.488281 183.878906 184.527344 183.84375 184.578125 183.773438 L 184.605469 183.742188 C 184.644531 183.683594 184.683594 183.628906 184.722656 183.570312 C 184.722656 183.527344 184.710938 183.535156 184.75 183.535156 C 184.804688 183.449219 184.925781 183.265625 184.953125 183.171875 C 184.953125 183.121094 184.9375 183.128906 184.980469 183.128906 C 185.003906 183.054688 185.019531 183.054688 185.039062 182.96875 C 185.039062 182.917969 185.023438 182.929688 185.066406 182.929688 L 185.066406 182.882812 L 185.097656 182.855469 C 185.117188 182.761719 185.144531 182.730469 185.152344 182.628906 L 185.183594 182.570312 C 185.195312 182.4375 185.238281 182.351562 185.242188 182.199219 C 185.242188 182.171875 185.242188 182.136719 185.246094 182.113281 C 185.253906 182.058594 185.253906 182.082031 185.269531 182.054688 L 185.269531 181.996094 L 185.296875 181.9375 C 185.3125 181.871094 185.328125 181.824219 185.355469 181.769531 L 185.382812 181.738281 L 185.414062 181.683594 L 185.441406 181.652344 L 185.472656 181.625 L 185.5 181.597656 C 185.636719 181.5 185.6875 181.402344 185.855469 181.292969 C 186.066406 181.15625 186.074219 181.152344 186.191406 180.9375 L 186.21875 180.90625 C 186.25 180.785156 186.304688 180.710938 186.304688 180.566406 C 186.304688 180.429688 186.304688 180.511719 186.335938 180.480469 L 186.335938 180.007812 C 186.289062 180.007812 186.304688 180.015625 186.304688 179.964844 L 186.277344 179.910156 L 186.21875 179.851562 L 186.1875 179.824219 C 186.152344 179.800781 186.160156 179.804688 186.105469 179.792969 C 186.035156 179.792969 185.945312 179.8125 185.910156 179.765625 C 185.671875 179.761719 185.605469 179.679688 185.460938 179.574219 C 185.363281 179.496094 185.160156 179.375 185.007812 179.367188 L 184.957031 179.335938 C 184.8125 179.332031 184.691406 179.285156 184.550781 179.277344 L 184.488281 179.25 L 184.433594 179.25 C 184.386719 179.25 184.394531 179.265625 184.394531 179.222656 C 184.253906 179.207031 183.925781 179.074219 183.808594 179.011719 C 183.648438 178.925781 183.457031 178.777344 183.28125 178.734375 C 183.234375 178.734375 183.242188 178.75 183.242188 178.707031 L 183.050781 178.648438 C 183.003906 178.648438 183.015625 178.664062 183.015625 178.621094 L 182.964844 178.621094 C 182.914062 178.621094 182.925781 178.636719 182.925781 178.59375 C 182.804688 178.582031 182.753906 178.535156 182.617188 178.539062 L 182.539062 178.507812 C 182.394531 178.503906 182.289062 178.476562 182.101562 178.476562 C 181.878906 178.480469 181.789062 178.523438 181.78125 178.304688 L 181.8125 178.277344 C 181.957031 177.988281 181.636719 178.003906 181.609375 177.710938 L 181.582031 177.675781 L 181.582031 177.648438 L 181.550781 177.589844 C 181.488281 177.308594 181.207031 177.058594 180.976562 176.933594 L 180.949219 176.90625 C 180.878906 176.867188 180.871094 176.855469 180.773438 176.847656 L 180.746094 176.820312 C 180.53125 176.800781 180.464844 176.730469 180.183594 176.777344 C 179.808594 176.839844 179.59375 176.777344 179.296875 176.484375 C 179.125 176.3125 179.148438 176.21875 179.019531 176.132812 L 178.988281 176.105469 C 178.910156 176.0625 178.863281 176.027344 178.757812 176.015625 C 178.730469 176.015625 178.699219 176.019531 178.671875 176.015625 C 178.550781 175.996094 178.65625 176.015625 178.605469 175.988281 C 178.503906 175.988281 178.449219 175.964844 178.382812 175.933594 L 178.355469 175.90625 L 178.328125 175.875 C 178.28125 175.777344 178.265625 175.660156 178.171875 175.597656 C 178.128906 175.570312 177.898438 175.507812 177.835938 175.503906 L 177.808594 175.472656 C 177.75 175.433594 177.71875 175.410156 177.636719 175.386719 L 177.605469 175.359375 C 177.476562 175.359375 177.332031 175.347656 177.222656 175.378906 C 177.035156 175.425781 177.078125 175.433594 176.886719 175.386719 L 176.855469 175.359375 C 176.796875 175.320312 176.78125 175.308594 176.710938 175.273438 C 176.667969 175.273438 176.679688 175.285156 176.679688 175.246094 C 176.621094 175.230469 176.480469 175.195312 176.425781 175.195312 C 176.34375 175.195312 176.265625 175.238281 176.164062 175.246094 C 176.136719 175.289062 176.164062 175.289062 176.136719 175.246094 C 176.003906 175.234375 176.003906 175.171875 175.90625 175.101562 C 175.832031 175.046875 175.742188 174.996094 175.617188 174.988281 C 175.34375 174.96875 175.21875 175.109375 175.128906 175.273438 L 175.101562 175.308594 L 175.101562 175.417969 L 175.070312 175.445312 L 175.070312 175.5 L 175.101562 175.53125 L 175.101562 175.675781 C 175.03125 175.671875 174.96875 175.683594 174.882812 175.574219 C 174.84375 175.527344 174.859375 175.570312 174.839844 175.492188 L 174.808594 175.445312 C 174.816406 175.277344 174.785156 175.234375 174.78125 175.074219 C 174.78125 174.90625 174.757812 174.828125 174.753906 174.703125 L 174.726562 174.671875 C 174.707031 174.59375 174.679688 174.535156 174.632812 174.476562 C 174.574219 174.398438 174.625 174.457031 174.566406 174.402344 C 174.523438 174.367188 174.503906 174.355469 174.464844 174.328125 L 174.4375 174.300781 L 174.410156 174.300781 C 174.363281 174.300781 174.375 174.3125 174.375 174.273438 C 174.304688 174.253906 174.300781 174.246094 174.207031 174.242188 L 173.917969 174.242188 C 173.796875 174.253906 173.824219 174.277344 173.714844 174.300781 L 173.6875 174.328125 C 173.472656 174.382812 173.398438 174.4375 173.167969 174.328125 L 173.140625 174.300781 C 172.96875 174.183594 172.96875 174.1875 172.851562 174.015625 L 172.824219 173.988281 C 172.78125 173.90625 172.761719 173.855469 172.738281 173.757812 L 172.707031 173.730469 C 172.707031 173.519531 172.660156 173.4375 172.699219 173.203125 C 172.738281 172.980469 172.765625 172.941406 172.765625 172.675781 C 172.726562 172.675781 172.738281 172.683594 172.738281 172.640625 C 172.726562 172.527344 172.691406 172.480469 172.632812 172.402344 C 172.558594 172.304688 172.542969 172.304688 172.449219 172.242188 L 172.421875 172.210938 C 172.300781 172.183594 172.339844 172.160156 172.191406 172.15625 L 171.585938 172.15625 C 171.542969 172.15625 171.546875 172.15625 171.507812 172.144531 C 171.503906 172.144531 171.492188 172.144531 171.488281 172.136719 C 171.488281 172.128906 171.480469 172.128906 171.472656 172.125 L 171.414062 172.125 L 171.382812 172.097656 C 171.144531 172.042969 171.128906 171.828125 171.15625 171.527344 C 171.164062 171.429688 171.191406 171.28125 171.214844 171.1875 C 171.246094 171.078125 171.300781 170.972656 171.328125 170.867188 L 171.355469 170.839844 C 171.417969 170.722656 171.449219 170.683594 171.53125 170.585938 C 171.625 170.472656 171.652344 170.460938 171.613281 170.296875 C 171.335938 170.230469 171.050781 170.273438 170.800781 170.324219 L 170.75 170.359375 C 170.605469 170.378906 170.523438 170.496094 170.492188 170.640625 C 170.492188 170.703125 170.507812 170.742188 170.460938 170.769531 C 170.453125 170.910156 170.410156 171.015625 170.347656 171.097656 C 170.285156 171.183594 170.183594 171.257812 170.046875 171.269531 C 169.996094 171.3125 170 171.296875 169.914062 171.296875 L 169.625 171.296875 C 169.585938 171.296875 169.585938 171.296875 169.546875 171.289062 C 169.539062 171.289062 169.527344 171.289062 169.523438 171.28125 C 169.519531 171.269531 169.511719 171.273438 169.503906 171.269531 C 169.164062 171.269531 168.867188 171.042969 168.734375 170.839844 L 168.707031 170.808594 C 168.640625 170.714844 168.59375 170.667969 168.53125 170.554688 L 168.503906 170.523438 L 168.386719 170.273438 C 168.347656 170.273438 168.359375 170.285156 168.359375 170.238281 C 168.335938 170.148438 168.308594 170.042969 168.300781 169.941406 L 168.265625 169.867188 L 168.273438 169.4375 L 168.300781 169.375 C 168.328125 169.0625 168.582031 169.03125 168.589844 168.691406 C 168.589844 168.648438 168.574219 168.65625 168.617188 168.65625 L 168.617188 168.609375 L 168.648438 168.574219 L 168.675781 168.464844 L 168.703125 168.433594 L 168.707031 168.40625 L 168.734375 168.378906 C 168.851562 168.152344 169.027344 167.980469 169.25 167.863281 L 169.28125 167.835938 C 169.371094 167.8125 169.363281 167.796875 169.457031 167.777344 L 169.480469 167.75 L 169.507812 167.75 L 169.570312 167.722656 C 169.734375 167.703125 169.796875 167.660156 170 167.660156 C 170.160156 167.660156 170.320312 167.664062 170.476562 167.664062 L 170.546875 167.636719 C 170.679688 167.632812 170.699219 167.601562 170.808594 167.578125 L 170.835938 167.550781 C 170.929688 167.527344 171.015625 167.476562 171.089844 167.433594 L 171.125 167.40625 C 171.429688 167.242188 171.628906 167.210938 171.960938 167.375 L 171.992188 167.40625 C 172.175781 167.535156 172.195312 167.480469 172.421875 167.464844 L 172.449219 167.433594 L 172.652344 167.433594 L 172.679688 167.464844 C 172.789062 167.519531 172.847656 167.582031 172.882812 167.714844 L 172.910156 167.75 C 172.945312 167.894531 172.96875 167.929688 172.96875 168.117188 L 172.996094 168.148438 L 172.996094 168.207031 L 173.023438 168.234375 C 173.035156 168.347656 173.125 168.523438 173.167969 168.605469 L 173.199219 168.636719 C 173.292969 168.816406 173.378906 168.898438 173.542969 169.007812 L 173.578125 169.035156 C 173.703125 169.035156 173.730469 169 173.804688 168.949219 L 173.804688 168.433594 L 173.773438 168.378906 L 173.773438 168.273438 L 173.746094 168.207031 C 173.742188 168.089844 173.710938 168.019531 173.6875 167.917969 L 173.660156 167.890625 C 173.652344 167.800781 173.605469 167.671875 173.574219 167.601562 L 173.542969 167.546875 C 173.535156 167.402344 173.488281 167.410156 173.488281 167.21875 L 173.460938 167.148438 L 173.460938 167.0625 C 173.460938 166.945312 173.464844 166.996094 173.488281 166.972656 C 173.488281 166.871094 173.511719 166.816406 173.542969 166.746094 L 173.574219 166.71875 C 173.636719 166.628906 173.714844 166.535156 173.808594 166.46875 C 173.890625 166.410156 174.035156 166.335938 174.121094 166.289062 L 174.148438 166.261719 C 174.402344 166.089844 174.621094 165.890625 174.78125 165.632812 C 174.78125 165.589844 174.769531 165.601562 174.8125 165.601562 C 174.875 165.484375 174.980469 165.34375 175.011719 165.203125 L 175.042969 165.171875 C 175.070312 165.0625 175.125 164.976562 175.121094 164.859375 Z M 172.421875 155.046875 C 172.382812 155.078125 172.386719 155.085938 172.324219 155.097656 C 172.1875 155.125 172.234375 155.097656 172.242188 155.074219 L 172.277344 155.046875 L 172.421875 155.046875 " clip-rule="nonzero"/></clipPath><radialGradient gradientTransform="matrix(1.003404, 0, 0, 0.996596, 172.72406, 163.681276)" gradientUnits="userSpaceOnUse" xlink:type="simple" r="25.585991" xlink:actuate="onLoad" cx="0" id="id6" cy="0" xlink:show="other" fx="0" fy="0"><stop stop-opacity="1" stop-color="rgb(99.804688%, 99.804688%, 99.804688%)" offset="0"/><stop stop-opacity="1" stop-color="rgb(99.539185%, 99.539185%, 99.539185%)" offset="0.015625"/><stop stop-opacity="1" stop-color="rgb(99.334717%, 99.334717%, 99.334717%)" offset="0.0195312"/><stop stop-opacity="1" stop-color="rgb(99.133301%, 99.133301%, 99.133301%)" offset="0.03125"/><stop stop-opacity="1" stop-color="rgb(98.933411%, 98.933411%, 98.933411%)" offset="0.0429688"/><stop stop-opacity="1" stop-color="rgb(98.736572%, 98.736572%, 98.736572%)" offset="0.0546875"/><stop stop-opacity="1" stop-color="rgb(98.603821%, 98.603821%, 98.603821%)" offset="0.0664062"/><stop stop-opacity="1" stop-color="rgb(98.461914%, 98.461914%, 98.461914%)" offset="0.0703125"/><stop stop-opacity="1" stop-color="rgb(98.196411%, 98.196411%, 98.196411%)" offset="0.0742188"/><stop stop-opacity="1" stop-color="rgb(97.999573%, 97.999573%, 97.999573%)" offset="0.0859375"/><stop stop-opacity="1" stop-color="rgb(97.93396%, 97.93396%, 97.93396%)" offset="0.0976562"/><stop stop-opacity="1" stop-color="rgb(97.73407%, 97.73407%, 97.73407%)" offset="0.101562"/><stop stop-opacity="1" stop-color="rgb(97.549438%, 97.549438%, 97.549438%)" offset="0.113281"/><stop stop-opacity="1" stop-color="rgb(97.337341%, 97.337341%, 97.337341%)" offset="0.125"/><stop stop-opacity="1" stop-color="rgb(97.036743%, 97.036743%, 97.036743%)" offset="0.136719"/><stop stop-opacity="1" stop-color="rgb(96.829224%, 96.829224%, 96.829224%)" offset="0.148438"/><stop stop-opacity="1" stop-color="rgb(96.629333%, 96.629333%, 96.629333%)" offset="0.160156"/><stop stop-opacity="1" stop-color="rgb(96.434021%, 96.434021%, 96.434021%)" offset="0.171875"/><stop stop-opacity="1" stop-color="rgb(96.296692%, 96.296692%, 96.296692%)" offset="0.183594"/><stop stop-opacity="1" stop-color="rgb(96.156311%, 96.156311%, 96.156311%)" offset="0.1875"/><stop stop-opacity="1" stop-color="rgb(95.892334%, 95.892334%, 95.892334%)" offset="0.191406"/><stop stop-opacity="1" stop-color="rgb(95.506287%, 95.506287%, 95.506287%)" offset="0.214844"/><stop stop-opacity="1" stop-color="rgb(95.301819%, 95.301819%, 95.301819%)" offset="0.226562"/><stop stop-opacity="1" stop-color="rgb(95.094299%, 95.094299%, 95.094299%)" offset="0.238281"/><stop stop-opacity="1" stop-color="rgb(94.703674%, 94.703674%, 94.703674%)" offset="0.25"/><stop stop-opacity="1" stop-color="rgb(94.424438%, 94.424438%, 94.424438%)" offset="0.261719"/><stop stop-opacity="1" stop-color="rgb(94.258118%, 94.258118%, 94.258118%)" offset="0.269531"/><stop stop-opacity="1" stop-color="rgb(94.094849%, 94.094849%, 94.094849%)" offset="0.277344"/><stop stop-opacity="1" stop-color="rgb(93.937683%, 93.937683%, 93.937683%)" offset="0.285156"/><stop stop-opacity="1" stop-color="rgb(93.782043%, 93.782043%, 93.782043%)" offset="0.292969"/><stop stop-opacity="1" stop-color="rgb(93.621826%, 93.621826%, 93.621826%)" offset="0.300781"/><stop stop-opacity="1" stop-color="rgb(93.457031%, 93.457031%, 93.457031%)" offset="0.308594"/><stop stop-opacity="1" stop-color="rgb(93.293762%, 93.293762%, 93.293762%)" offset="0.316406"/><stop stop-opacity="1" stop-color="rgb(93.136597%, 93.136597%, 93.136597%)" offset="0.324219"/><stop stop-opacity="1" stop-color="rgb(92.979431%, 92.979431%, 92.979431%)" offset="0.332031"/><stop stop-opacity="1" stop-color="rgb(92.819214%, 92.819214%, 92.819214%)" offset="0.339844"/><stop stop-opacity="1" stop-color="rgb(92.556763%, 92.556763%, 92.556763%)" offset="0.347656"/><stop stop-opacity="1" stop-color="rgb(92.190552%, 92.190552%, 92.190552%)" offset="0.367188"/><stop stop-opacity="1" stop-color="rgb(91.902161%, 91.902161%, 91.902161%)" offset="0.386719"/><stop stop-opacity="1" stop-color="rgb(91.699219%, 91.699219%, 91.699219%)" offset="0.402344"/><stop stop-opacity="1" stop-color="rgb(91.50238%, 91.50238%, 91.50238%)" offset="0.417969"/><stop stop-opacity="1" stop-color="rgb(91.300964%, 91.300964%, 91.300964%)" offset="0.425781"/><stop stop-opacity="1" stop-color="rgb(91.093445%, 91.093445%, 91.093445%)" offset="0.433594"/><stop stop-opacity="1" stop-color="rgb(90.794373%, 90.794373%, 90.794373%)" offset="0.441406"/><stop stop-opacity="1" stop-color="rgb(90.403748%, 90.403748%, 90.403748%)" offset="0.457031"/><stop stop-opacity="1" stop-color="rgb(90.19928%, 90.19928%, 90.19928%)" offset="0.472656"/><stop stop-opacity="1" stop-color="rgb(89.996338%, 89.996338%, 89.996338%)" offset="0.488281"/><stop stop-opacity="1" stop-color="rgb(89.605713%, 89.605713%, 89.605713%)" offset="0.503906"/><stop stop-opacity="1" stop-color="rgb(89.399719%, 89.399719%, 89.399719%)" offset="0.515625"/><stop stop-opacity="1" stop-color="rgb(89.193726%, 89.193726%, 89.193726%)" offset="0.527344"/><stop stop-opacity="1" stop-color="rgb(88.999939%, 88.999939%, 88.999939%)" offset="0.539062"/><stop stop-opacity="1" stop-color="rgb(88.807678%, 88.807678%, 88.807678%)" offset="0.550781"/><stop stop-opacity="1" stop-color="rgb(88.545227%, 88.545227%, 88.545227%)" offset="0.5625"/><stop stop-opacity="1" stop-color="rgb(88.336182%, 88.336182%, 88.336182%)" offset="0.566406"/><stop stop-opacity="1" stop-color="rgb(88.134766%, 88.134766%, 88.134766%)" offset="0.578125"/><stop stop-opacity="1" stop-color="rgb(87.88147%, 87.88147%, 87.88147%)" offset="0.589844"/><stop stop-opacity="1" stop-color="rgb(87.528992%, 87.528992%, 87.528992%)" offset="0.613281"/><stop stop-opacity="1" stop-color="rgb(87.193298%, 87.193298%, 87.193298%)" offset="0.625"/><stop stop-opacity="1" stop-color="rgb(86.938477%, 86.938477%, 86.938477%)" offset="0.636719"/><stop stop-opacity="1" stop-color="rgb(86.773682%, 86.773682%, 86.773682%)" offset="0.644531"/><stop stop-opacity="1" stop-color="rgb(86.497498%, 86.497498%, 86.497498%)" offset="0.652344"/><stop stop-opacity="1" stop-color="rgb(86.219788%, 86.219788%, 86.219788%)" offset="0.671875"/><stop stop-opacity="1" stop-color="rgb(86.018372%, 86.018372%, 86.018372%)" offset="0.679688"/><stop stop-opacity="1" stop-color="rgb(85.800171%, 85.800171%, 85.800171%)" offset="0.699219"/><stop stop-opacity="1" stop-color="rgb(85.604858%, 85.604858%, 85.604858%)" offset="0.714844"/><stop stop-opacity="1" stop-color="rgb(85.403442%, 85.403442%, 85.403442%)" offset="0.722656"/><stop stop-opacity="1" stop-color="rgb(85.195923%, 85.195923%, 85.195923%)" offset="0.730469"/><stop stop-opacity="1" stop-color="rgb(84.896851%, 84.896851%, 84.896851%)" offset="0.738281"/><stop stop-opacity="1" stop-color="rgb(84.700012%, 84.700012%, 84.700012%)" offset="0.753906"/><stop stop-opacity="1" stop-color="rgb(84.634399%, 84.634399%, 84.634399%)" offset="0.765625"/><stop stop-opacity="1" stop-color="rgb(84.498596%, 84.498596%, 84.498596%)" offset="0.769531"/><stop stop-opacity="1" stop-color="rgb(84.358215%, 84.358215%, 84.358215%)" offset="0.773438"/><stop stop-opacity="1" stop-color="rgb(84.092712%, 84.092712%, 84.092712%)" offset="0.777344"/><stop stop-opacity="1" stop-color="rgb(83.706665%, 83.706665%, 83.706665%)" offset="0.789062"/><stop stop-opacity="1" stop-color="rgb(83.44574%, 83.44574%, 83.44574%)" offset="0.8125"/><stop stop-opacity="1" stop-color="rgb(83.235168%, 83.235168%, 83.235168%)" offset="0.816406"/><stop stop-opacity="1" stop-color="rgb(82.899475%, 82.899475%, 82.899475%)" offset="0.824219"/><stop stop-opacity="1" stop-color="rgb(82.698059%, 82.698059%, 82.698059%)" offset="0.84375"/><stop stop-opacity="1" stop-color="rgb(82.546997%, 82.546997%, 82.546997%)" offset="0.863281"/><stop stop-opacity="1" stop-color="rgb(82.2052%, 82.2052%, 82.2052%)" offset="0.878906"/><stop stop-opacity="1" stop-color="rgb(81.999207%, 81.999207%, 81.999207%)" offset="0.890625"/><stop stop-opacity="1" stop-color="rgb(81.793213%, 81.793213%, 81.793213%)" offset="0.902344"/><stop stop-opacity="1" stop-color="rgb(81.402588%, 81.402588%, 81.402588%)" offset="0.914062"/><stop stop-opacity="1" stop-color="rgb(81.103516%, 81.103516%, 81.103516%)" offset="0.933594"/><stop stop-opacity="1" stop-color="rgb(80.830383%, 80.830383%, 80.830383%)" offset="0.941406"/><stop stop-opacity="1" stop-color="rgb(80.488586%, 80.488586%, 80.488586%)" offset="0.953125"/><stop stop-opacity="1" stop-color="rgb(80.157471%, 80.157471%, 80.157471%)" offset="0.964844"/><stop stop-opacity="1" stop-color="rgb(79.998779%, 79.998779%, 79.998779%)" offset="1"/></radialGradient></defs><g clip-path="url(#id2)"><path fill="rgb(22.349548%, 70.979309%, 29.019165%)" d="M 193.183594 146.3125 C 193.773438 137.816406 185.644531 134.226562 185.644531 134.226562 C 181.269531 142.992188 187.292969 149.046875 190.164062 151.292969 C 190.261719 151.390625 190.375 151.480469 190.496094 151.554688 C 206.988281 161.734375 217.546875 146.675781 217.546875 146.675781 C 207.652344 139.125 198.472656 142.761719 193.183594 146.3125 " fill-opacity="1" fill-rule="nonzero"/></g><path fill="rgb(13.729858%, 12.159729%, 12.548828%)" d="M 199.148438 138.058594 L 199.148438 138.054688 L 199.152344 138.058594 Z M 199.148438 138.058594 " fill-opacity="1" fill-rule="nonzero"/><g clip-path="url(#id3)"><path fill="rgb(0%, 57.249451%, 27.059937%)" d="M 217.320312 146.503906 C 207.679688 139.308594 198.738281 142.675781 193.453125 146.140625 C 193.34375 146.214844 193.195312 146.132812 193.203125 146 C 193.222656 145.523438 193.21875 145.0625 193.1875 144.621094 C 193.035156 143.152344 192.65625 141.617188 191.910156 140.132812 C 190.292969 137.074219 187.597656 135.289062 186.335938 134.582031 C 186.195312 134.503906 186.050781 134.429688 185.902344 134.355469 C 185.769531 134.445312 185.800781 134.421875 185.664062 134.511719 C 185.992188 138.667969 188.210938 144.816406 190.027344 148.660156 C 190.054688 148.714844 190.046875 148.78125 190.007812 148.828125 C 189.738281 149.175781 189.609375 149.59375 189.617188 150.011719 C 189.617188 150.085938 189.671875 150.148438 189.746094 150.167969 C 190.027344 150.230469 190.375 150.285156 190.785156 150.324219 C 190.839844 150.332031 191.058594 150.34375 191.058594 150.34375 L 191.445312 150.402344 L 191.761719 150.417969 L 192.109375 150.433594 L 192.25 150.433594 C 192.25 150.433594 192.339844 150.429688 192.410156 150.433594 C 198.375 150.644531 210.5625 149.535156 217.285156 146.785156 C 217.402344 146.738281 217.421875 146.582031 217.320312 146.503906 M 199.933594 170.128906 C 199.933594 181.78125 190.445312 191.226562 178.746094 191.226562 C 167.046875 191.226562 157.5625 181.78125 157.5625 170.128906 C 157.5625 158.472656 167.046875 149.027344 178.746094 149.027344 C 190.445312 149.027344 199.933594 158.472656 199.933594 170.128906 " fill-opacity="1" fill-rule="evenodd"/></g><path fill="rgb(69.799805%, 69.799805%, 69.799805%)" d="M 193.210938 146.0625 C 193.203125 146.042969 193.203125 146.023438 193.203125 146 C 193.222656 145.523438 193.21875 145.0625 193.1875 144.621094 C 193.1875 144.617188 193.1875 144.617188 193.1875 144.613281 C 193.175781 144.457031 193.160156 144.300781 193.144531 144.144531 C 193.148438 144.144531 193.152344 144.140625 193.15625 144.136719 C 193.222656 144.75 193.246094 145.390625 193.210938 146.0625 " fill-opacity="1" fill-rule="nonzero"/><path fill="rgb(15.689087%, 49.409485%, 20.388794%)" d="M 190.398438 151.460938 C 190.351562 151.433594 190.308594 151.402344 190.261719 151.371094 C 189.636719 150.882812 188.84375 150.207031 188.035156 149.351562 C 188.160156 148.632812 188.507812 147.964844 189.050781 147.4375 C 189.148438 147.34375 189.25 147.25 189.347656 147.15625 C 189.578125 147.6875 189.804688 148.191406 190.027344 148.660156 C 190.042969 148.695312 190.046875 148.730469 190.039062 148.765625 C 189.792969 149.0625 189.660156 149.414062 189.628906 149.769531 C 189.617188 149.851562 189.617188 149.929688 189.617188 150.011719 C 189.617188 150.023438 189.617188 150.039062 189.621094 150.050781 C 189.65625 150.59375 189.921875 151.121094 190.398438 151.460938 M 193.1875 144.613281 C 193.171875 144.460938 193.152344 144.308594 193.132812 144.152344 C 193.136719 144.152344 193.140625 144.148438 193.144531 144.144531 C 193.160156 144.300781 193.175781 144.457031 193.1875 144.613281 " fill-opacity="1" fill-rule="nonzero"/><path fill="rgb(0%, 39.99939%, 18.818665%)" d="M 189.621094 150.050781 C 189.617188 150.039062 189.617188 150.023438 189.617188 150.011719 C 189.617188 149.929688 189.617188 149.851562 189.628906 149.769531 C 189.617188 149.863281 189.617188 149.957031 189.621094 150.050781 M 190.039062 148.765625 C 190.046875 148.730469 190.042969 148.695312 190.027344 148.660156 C 189.804688 148.191406 189.578125 147.6875 189.347656 147.15625 C 190.574219 146.003906 191.835938 145 193.132812 144.152344 C 193.152344 144.308594 193.171875 144.460938 193.1875 144.613281 C 193.1875 144.617188 193.1875 144.617188 193.1875 144.621094 C 193.21875 145.0625 193.222656 145.523438 193.203125 146 C 193.203125 146.023438 193.203125 146.042969 193.210938 146.0625 C 193.210938 146.066406 193.210938 146.066406 193.210938 146.070312 C 192.207031 146.789062 191.199219 147.628906 190.1875 148.605469 C 190.132812 148.65625 190.085938 148.710938 190.039062 148.765625 " fill-opacity="1" fill-rule="nonzero"/><g clip-path="url(#id4)"><g clip-path="url(#id5)"><path fill="url(#id6)" d="M 162.214844 150.957031 L 162.214844 189.160156 L 198.148438 189.160156 L 198.148438 150.957031 Z M 162.214844 150.957031 " fill-rule="nonzero"/></g></g><g fill="rgb(24.708557%, 24.708557%, 27.059937%)" fill-opacity="1"><g transform="translate(132.890621, 221.80037)"><g><path d="M 6.078125 0 L 13.753906 0 C 20.175781 0 23.40625 -3.496094 23.40625 -7.902344 C 23.40625 -10.980469 21.769531 -13.261719 18.199219 -13.601562 L 18.199219 -13.753906 C 20.859375 -14.628906 22.683594 -16.984375 22.683594 -20.367188 C 22.683594 -24.164062 20.214844 -26.332031 12.996094 -26.332031 L 6.15625 -26.332031 C 4.066406 -26.332031 2.925781 -25.152344 2.925781 -22.988281 C 2.925781 -12.726562 2.886719 -6.6875 2.851562 -3.230469 C 2.851562 -1.140625 3.988281 0 6.078125 0 Z M 9.613281 -15.730469 C 9.613281 -18.464844 9.613281 -20.175781 9.652344 -21.769531 L 11.816406 -21.769531 C 14.550781 -21.769531 15.957031 -21.011719 15.957031 -19.1875 C 15.957031 -17.324219 14.703125 -15.730469 10.789062 -15.730469 Z M 9.652344 -4.519531 C 9.613281 -6.117188 9.613281 -7.714844 9.613281 -9.308594 L 9.613281 -12.195312 L 12.386719 -12.195312 C 15.386719 -12.195312 16.832031 -10.714844 16.832031 -8.511719 C 16.832031 -5.964844 15.007812 -4.519531 11.816406 -4.519531 Z M 9.652344 -4.519531 "/></g></g></g><g fill="rgb(24.708557%, 24.708557%, 27.059937%)" fill-opacity="1"><g transform="translate(158.003489, 221.80037)"><g><path d="M 13.070312 0.378906 C 20.515625 0.378906 24.203125 -4.140625 24.203125 -13.183594 C 24.203125 -22.1875 20.515625 -26.710938 13.070312 -26.710938 C 5.625 -26.710938 1.898438 -22.1875 1.898438 -13.183594 C 1.898438 -4.140625 5.625 0.378906 13.070312 0.378906 Z M 13.070312 -4.75 C 10.070312 -4.75 9.15625 -6.726562 9.15625 -13.183594 C 9.15625 -19.605469 10.070312 -21.582031 13.070312 -21.582031 C 16.070312 -21.582031 16.945312 -19.605469 16.945312 -13.183594 C 16.945312 -6.726562 16.070312 -4.75 13.070312 -4.75 Z M 13.070312 -4.75 "/></g></g></g><g fill="rgb(24.708557%, 24.708557%, 27.059937%)" fill-opacity="1"><g transform="translate(184.142147, 221.80037)"><g><path d="M 26.785156 -26.332031 L 22.910156 -26.332031 C 21.011719 -26.332031 19.832031 -25.457031 19.261719 -23.671875 L 16.527344 -15.160156 L 13.261719 -23.785156 C 12.613281 -25.53125 11.4375 -26.332031 9.574219 -26.332031 L 6.078125 -26.332031 C 3.988281 -26.332031 2.851562 -25.191406 2.886719 -23.101562 C 2.925781 -16.453125 2.925781 -9.878906 2.886719 -3.230469 C 2.851562 -1.140625 3.988281 0 6.003906 0 C 8.015625 0 9.117188 -1.140625 9.042969 -3.265625 C 8.890625 -7.21875 8.816406 -11.285156 8.738281 -18.199219 L 8.929688 -18.199219 L 12.917969 -5.699219 C 13.488281 -3.914062 14.363281 -3.039062 15.652344 -3.039062 C 16.90625 -3.039062 17.820312 -3.914062 18.425781 -5.660156 L 22.757812 -18.199219 L 22.910156 -18.199219 L 22.949219 -13.183594 C 22.949219 -9.839844 22.910156 -6.535156 22.871094 -3.230469 C 22.871094 -1.140625 24.011719 0 26.101562 0 L 26.785156 0 C 28.875 0 30.015625 -1.140625 30.015625 -3.230469 C 30.015625 -6.535156 29.976562 -9.839844 29.976562 -13.183594 C 29.976562 -16.488281 30.015625 -19.796875 30.015625 -23.101562 C 30.015625 -25.191406 28.875 -26.332031 26.785156 -26.332031 Z M 26.785156 -26.332031 "/></g></g></g><g fill="rgb(24.708557%, 24.708557%, 27.059937%)" fill-opacity="1"><g transform="translate(217.005434, 221.80037)"><g><path d="M 6.078125 0 L 13.753906 0 C 20.175781 0 23.40625 -3.496094 23.40625 -7.902344 C 23.40625 -10.980469 21.769531 -13.261719 18.199219 -13.601562 L 18.199219 -13.753906 C 20.859375 -14.628906 22.683594 -16.984375 22.683594 -20.367188 C 22.683594 -24.164062 20.214844 -26.332031 12.996094 -26.332031 L 6.15625 -26.332031 C 4.066406 -26.332031 2.925781 -25.152344 2.925781 -22.988281 C 2.925781 -12.726562 2.886719 -6.6875 2.851562 -3.230469 C 2.851562 -1.140625 3.988281 0 6.078125 0 Z M 9.613281 -15.730469 C 9.613281 -18.464844 9.613281 -20.175781 9.652344 -21.769531 L 11.816406 -21.769531 C 14.550781 -21.769531 15.957031 -21.011719 15.957031 -19.1875 C 15.957031 -17.324219 14.703125 -15.730469 10.789062 -15.730469 Z M 9.652344 -4.519531 C 9.613281 -6.117188 9.613281 -7.714844 9.613281 -9.308594 L 9.613281 -12.195312 L 12.386719 -12.195312 C 15.386719 -12.195312 16.832031 -10.714844 16.832031 -8.511719 C 16.832031 -5.964844 15.007812 -4.519531 11.816406 -4.519531 Z M 9.652344 -4.519531 "/></g></g></g><g fill="rgb(0%, 50.19989%, 21.569824%)" fill-opacity="1"><g transform="translate(127.127625, 237.87536)"><g><path d="M 1.4375 -11.421875 L 5 -11.421875 C 6.613281 -11.421875 7.785156 -11.191406 8.515625 -10.734375 C 9.253906 -10.273438 9.625 -9.539062 9.625 -8.53125 C 9.625 -7.851562 9.460938 -7.296875 9.140625 -6.859375 C 8.816406 -6.421875 8.390625 -6.15625 7.859375 -6.0625 L 7.859375 -5.984375 C 8.585938 -5.828125 9.109375 -5.523438 9.421875 -5.078125 C 9.742188 -4.640625 9.90625 -4.050781 9.90625 -3.3125 C 9.90625 -2.269531 9.53125 -1.457031 8.78125 -0.875 C 8.03125 -0.289062 7.007812 0 5.71875 0 L 1.4375 0 Z M 3.859375 -6.90625 L 5.265625 -6.90625 C 5.921875 -6.90625 6.394531 -7.003906 6.6875 -7.203125 C 6.988281 -7.410156 7.140625 -7.75 7.140625 -8.21875 C 7.140625 -8.65625 6.976562 -8.96875 6.65625 -9.15625 C 6.332031 -9.34375 5.828125 -9.4375 5.140625 -9.4375 L 3.859375 -9.4375 Z M 3.859375 -4.984375 L 3.859375 -2 L 5.4375 -2 C 6.101562 -2 6.59375 -2.125 6.90625 -2.375 C 7.226562 -2.632812 7.390625 -3.03125 7.390625 -3.5625 C 7.390625 -4.507812 6.710938 -4.984375 5.359375 -4.984375 Z M 3.859375 -4.984375 "/></g></g></g><g fill="rgb(0%, 50.19989%, 21.569824%)" fill-opacity="1"><g transform="translate(140.051016, 237.87536)"><g><path d="M 11.8125 -5.734375 C 11.8125 -3.835938 11.34375 -2.378906 10.40625 -1.359375 C 9.46875 -0.347656 8.125 0.15625 6.375 0.15625 C 4.625 0.15625 3.28125 -0.347656 2.34375 -1.359375 C 1.40625 -2.378906 0.9375 -3.84375 0.9375 -5.75 C 0.9375 -7.644531 1.40625 -9.09375 2.34375 -10.09375 C 3.28125 -11.101562 4.628906 -11.609375 6.390625 -11.609375 C 8.140625 -11.609375 9.476562 -11.101562 10.40625 -10.09375 C 11.34375 -9.082031 11.8125 -7.628906 11.8125 -5.734375 Z M 3.46875 -5.734375 C 3.46875 -4.453125 3.707031 -3.488281 4.1875 -2.84375 C 4.675781 -2.195312 5.40625 -1.875 6.375 -1.875 C 8.300781 -1.875 9.265625 -3.160156 9.265625 -5.734375 C 9.265625 -8.304688 8.304688 -9.59375 6.390625 -9.59375 C 5.421875 -9.59375 4.691406 -9.265625 4.203125 -8.609375 C 3.710938 -7.960938 3.46875 -7.003906 3.46875 -5.734375 Z M 3.46875 -5.734375 "/></g></g></g><g fill="rgb(0%, 50.19989%, 21.569824%)" fill-opacity="1"><g transform="translate(154.958298, 237.87536)"><g><path d="M 5.84375 0 L 3.421875 0 L 3.421875 -9.40625 L 0.328125 -9.40625 L 0.328125 -11.421875 L 8.953125 -11.421875 L 8.953125 -9.40625 L 5.84375 -9.40625 Z M 5.84375 0 "/></g></g></g><g fill="rgb(0%, 50.19989%, 21.569824%)" fill-opacity="1"><g transform="translate(166.397677, 237.87536)"><g><path d="M 8.4375 0 L 7.609375 -2.71875 L 3.4375 -2.71875 L 2.609375 0 L 0 0 L 4.03125 -11.46875 L 7 -11.46875 L 11.046875 0 Z M 7.03125 -4.75 C 6.257812 -7.21875 5.828125 -8.613281 5.734375 -8.9375 C 5.640625 -9.257812 5.570312 -9.515625 5.53125 -9.703125 C 5.351562 -9.035156 4.859375 -7.382812 4.046875 -4.75 Z M 7.03125 -4.75 "/></g></g></g><g fill="rgb(0%, 50.19989%, 21.569824%)" fill-opacity="1"><g transform="translate(179.610066, 237.87536)"><g><path d="M 11.578125 0 L 8.5 0 L 3.53125 -8.640625 L 3.453125 -8.640625 C 3.554688 -7.117188 3.609375 -6.03125 3.609375 -5.375 L 3.609375 0 L 1.4375 0 L 1.4375 -11.421875 L 4.5 -11.421875 L 9.453125 -2.875 L 9.515625 -2.875 C 9.429688 -4.351562 9.390625 -5.398438 9.390625 -6.015625 L 9.390625 -11.421875 L 11.578125 -11.421875 Z M 11.578125 0 "/></g></g></g><g fill="rgb(0%, 50.19989%, 21.569824%)" fill-opacity="1"><g transform="translate(194.790721, 237.87536)"><g><path d="M 1.4375 0 L 1.4375 -11.421875 L 3.859375 -11.421875 L 3.859375 0 Z M 1.4375 0 "/></g></g></g><g fill="rgb(0%, 50.19989%, 21.569824%)" fill-opacity="1"><g transform="translate(202.262317, 237.87536)"><g><path d="M 6.296875 -9.578125 C 5.378906 -9.578125 4.671875 -9.234375 4.171875 -8.546875 C 3.671875 -7.859375 3.421875 -6.90625 3.421875 -5.6875 C 3.421875 -3.132812 4.378906 -1.859375 6.296875 -1.859375 C 7.097656 -1.859375 8.066406 -2.0625 9.203125 -2.46875 L 9.203125 -0.4375 C 8.265625 -0.0390625 7.21875 0.15625 6.0625 0.15625 C 4.40625 0.15625 3.132812 -0.347656 2.25 -1.359375 C 1.375 -2.367188 0.9375 -3.816406 0.9375 -5.703125 C 0.9375 -6.890625 1.148438 -7.925781 1.578125 -8.8125 C 2.015625 -9.707031 2.632812 -10.394531 3.4375 -10.875 C 4.25 -11.351562 5.203125 -11.59375 6.296875 -11.59375 C 7.398438 -11.59375 8.515625 -11.320312 9.640625 -10.78125 L 8.859375 -8.8125 C 8.429688 -9.019531 8 -9.195312 7.5625 -9.34375 C 7.132812 -9.5 6.710938 -9.578125 6.296875 -9.578125 Z M 6.296875 -9.578125 "/></g></g></g><g fill="rgb(0%, 50.19989%, 21.569824%)" fill-opacity="1"><g transform="translate(214.631159, 237.87536)"><g><path d="M 8.4375 0 L 7.609375 -2.71875 L 3.4375 -2.71875 L 2.609375 0 L 0 0 L 4.03125 -11.46875 L 7 -11.46875 L 11.046875 0 Z M 7.03125 -4.75 C 6.257812 -7.21875 5.828125 -8.613281 5.734375 -8.9375 C 5.640625 -9.257812 5.570312 -9.515625 5.53125 -9.703125 C 5.351562 -9.035156 4.859375 -7.382812 4.046875 -4.75 Z M 7.03125 -4.75 "/></g></g></g><g fill="rgb(0%, 50.19989%, 21.569824%)" fill-opacity="1"><g transform="translate(227.843545, 237.87536)"><g><path d="M 1.4375 0 L 1.4375 -11.421875 L 3.859375 -11.421875 L 3.859375 -2 L 8.5 -2 L 8.5 0 Z M 1.4375 0 "/></g></g></g><g fill="rgb(0%, 50.19989%, 21.569824%)" fill-opacity="1"><g transform="translate(239.05642, 237.87536)"><g><path d="M 8.1875 -3.171875 C 8.1875 -2.140625 7.8125 -1.328125 7.0625 -0.734375 C 6.320312 -0.140625 5.289062 0.15625 3.96875 0.15625 C 2.75 0.15625 1.671875 -0.0703125 0.734375 -0.53125 L 0.734375 -2.78125 C 1.503906 -2.4375 2.15625 -2.191406 2.6875 -2.046875 C 3.226562 -1.910156 3.71875 -1.84375 4.15625 -1.84375 C 4.6875 -1.84375 5.09375 -1.941406 5.375 -2.140625 C 5.664062 -2.347656 5.8125 -2.65625 5.8125 -3.0625 C 5.8125 -3.28125 5.75 -3.476562 5.625 -3.65625 C 5.5 -3.832031 5.3125 -4 5.0625 -4.15625 C 4.820312 -4.320312 4.332031 -4.582031 3.59375 -4.9375 C 2.894531 -5.257812 2.367188 -5.570312 2.015625 -5.875 C 1.671875 -6.175781 1.394531 -6.523438 1.1875 -6.921875 C 0.976562 -7.328125 0.875 -7.800781 0.875 -8.34375 C 0.875 -9.351562 1.210938 -10.144531 1.890625 -10.71875 C 2.578125 -11.300781 3.523438 -11.59375 4.734375 -11.59375 C 5.328125 -11.59375 5.894531 -11.519531 6.4375 -11.375 C 6.976562 -11.238281 7.539062 -11.039062 8.125 -10.78125 L 7.34375 -8.90625 C 6.738281 -9.15625 6.234375 -9.328125 5.828125 -9.421875 C 5.429688 -9.523438 5.039062 -9.578125 4.65625 -9.578125 C 4.195312 -9.578125 3.84375 -9.46875 3.59375 -9.25 C 3.351562 -9.039062 3.234375 -8.765625 3.234375 -8.421875 C 3.234375 -8.203125 3.28125 -8.015625 3.375 -7.859375 C 3.476562 -7.703125 3.640625 -7.546875 3.859375 -7.390625 C 4.078125 -7.242188 4.585938 -6.976562 5.390625 -6.59375 C 6.460938 -6.082031 7.195312 -5.570312 7.59375 -5.0625 C 7.988281 -4.550781 8.1875 -3.921875 8.1875 -3.171875 Z M 8.1875 -3.171875 "/></g></g></g></svg>