<?xml version="1.0" encoding="iso-8859-1"?>
<!-- Generator: Adobe Illustrator 19.0.0, SVG Export Plug-In . SVG Version: 6.00 Build 0)  -->
<svg version="1.1" id="Layer_1" xmlns="http://www.w3.org/2000/svg" xmlns:xlink="http://www.w3.org/1999/xlink" x="0px" y="0px"
	 viewBox="0 0 325.18 325.18" style="enable-background:new 0 0 325.18 325.18;" xml:space="preserve">
<path id="XMLID_88_" d="M325.18,50.356c0-13.45-5.238-26.095-14.748-35.606c-9.511-9.511-22.156-14.749-35.606-14.749
	c-13.45,0-26.096,5.238-35.607,14.749l-44.216,44.215l-24.394-24.394c-5.857-5.858-15.355-5.858-21.213,0l-50,50
	c-5.858,5.858-5.858,15.355,0,21.213l24.393,24.393L4.393,249.572C1.58,252.385,0,256.201,0,260.179l0.002,49.999
	c0,8.284,6.716,15,15,15L65,325.179c3.979,0,7.794-1.581,10.606-4.394l119.396-119.395l24.394,24.394
	c2.929,2.929,6.768,4.394,10.606,4.394c3.839,0,7.678-1.464,10.606-4.394l50-50c5.858-5.858,5.858-15.355,0-21.213l-24.394-24.393
	l44.215-44.214C319.942,76.453,325.181,63.808,325.18,50.356z M58.787,295.179l-28.786-0.001L30,266.392L145.001,151.39
	l28.788,28.788L58.787,295.179z M230.002,193.964l-98.787-98.787l28.787-28.787l24.388,24.388c0.002,0.002,0.004,0.004,0.006,0.006
	c0.002,0.002,0.005,0.004,0.007,0.006l74.387,74.387L230.002,193.964z M289.218,64.749l-44.216,44.215l-28.787-28.787l44.216-44.215
	c3.845-3.845,8.957-5.962,14.395-5.962c5.436,0,10.548,2.117,14.392,5.962c3.846,3.845,5.963,8.957,5.963,14.395
	C295.18,55.794,293.063,60.905,289.218,64.749z"/>
<g>
</g>
<g>
</g>
<g>
</g>
<g>
</g>
<g>
</g>
<g>
</g>
<g>
</g>
<g>
</g>
<g>
</g>
<g>
</g>
<g>
</g>
<g>
</g>
<g>
</g>
<g>
</g>
<g>
</g>
</svg>
