<svg xmlns="http://www.w3.org/2000/svg" viewBox="0 -0.61 999.61 706.48"><defs><clipPath id="a" clipPathUnits="userSpaceOnUse"><path d="M174.115 705.859c-.089-.05-.053-.39-.053-.47a.13.13 0 01.107-.075l1.352-.006a.116.116 0 00.077-.065l-.018-21.497c-.036-.136-.525-.091-.554-.065l-.227.215c-.544.555-1.22.812-1.995.973-.609.126-1.132.209-1.883.303l-2.824.287c-.406.08-.828.13-1.133.423-.143.136-.202.322-.136.504.107.247.428.314.72.334.292.045.489-.106.709-.202.482-.227.937-.279 1.532-.228 1.889.226 3.151 1.925 3.628 3.314.31.993.53 2.015.501 3.123-.007 1.531-.366 2.836-1.116 4.106a6.282 6.282 0 01-1.022 1.299c-.029.933.157 1.881.544 2.528.086.143.251.371.482.337.075-.01.128-.057.125-.105-.013-.29.011-.492.072-.709.073-.258.369-.549.738-.592.363-.053.651-.004.957.234.467.362.527.893.445 1.425-.084.537-.736.938-1.295.938-.707 0-1.025-.129-1.484-.466-.97-.857-1.227-1.945-1.245-3.133-.012-.036-.02-.115-.084-.081-.334.176-.467.238-.929.301-1.359.184-2.55-.411-3.342-1.332-1.418-1.678-1.823-3.606-1.633-5.802.185-1.652.656-3.214 2.026-4.443.035-.02.041-.066 0-.086a3.397 3.397 0 01-.912-.327c-.687-.377-.953-.796-.953-1.37 0-1.201.943-1.758 1.932-2.101.018-.025-.007-.05-.03-.065-.44-.192-.882-.394-1.299-.64-1.126-.726-1.788-1.604-1.794-2.788 0 0 .006-.337.047-.478.215-1.38 1.67-2.392 3.166-2.865.899-.252 1.751-.352 2.897-.307 1.254.049 2.089.312 2.93.756 1.21.638 1.913 1.496 2.361 2.609.452 1.121.327 2.433-.203 3.486.025.04 4.111.025 4.111.025l.048.05c.006.101.053.454-.054.515l-1.375.005c-.042.004-.09.025-.095.065l-.007 6.367.024 3.352c.046 1.598.062 2.79 1.014 3.943.283.351.824.651 1.451.651 1.378 0 1.633-1.267 1.633-2.918l-.011-2.024-.025-3.83v-5.43a.16.16 0 00-.083-.181h-1.412l-.041-.03c-.012-.096-.036-.454.024-.539l5.343-.011.054.02c.017.096.077.474-.031.544l-1.185.005c-.089 0-.185.006-.226.076l-.018 4.347-.006 2.881-.006 3.307c0 3.941-1.74 4.599-3.572 4.599-.994 0-1.719-.386-2.194-.901-.299-.324-.443-.598-.637-.993-.011-.023-.048.005-.066.019v6.854l.006-.005.006 1.9c-.006.049-.012.115-.078.126l-3.52.025zm-5.997-18.162c-.325.678-.5 1.852-.5 3.84l.001 1.491c0 4.351.64 5.289 1.925 5.289 1.399 0 1.891-.926 1.891-5.161 0-.66.004-1.258.004-1.502 0-.871-.026-1.607-.09-2.222-.191-1.844-.713-2.593-1.832-2.593-.599 0-1.074.181-1.399.858m1.464-10.938c-.817.018-1.637.168-2.25.505-1.318.727-1.564 1.614-1.503 2.924.029 1.33 1.059 2.553 2.596 3.032 1.049-.132 1.954-.164 2.991-.315.618-.11 1.281-.224 1.865-.509.722-.354 1.072-.848 1.226-1.543.185-.833.036-1.411-.394-2.123-.383-.636-1.147-1.323-2.293-1.684-.562-.178-1.308-.289-2.068-.289-.057 0-.113 0-.17.002"/></clipPath><clipPath id="p" clipPathUnits="userSpaceOnUse"><path d="M0 50.4v-51h246.84v51"/></clipPath><clipPath id="o" clipPathUnits="userSpaceOnUse"><path d="M0 50.4v-51h246.84v51"/></clipPath><clipPath id="n" clipPathUnits="userSpaceOnUse"><path d="M0 50.4v-51h246.84v51"/></clipPath><clipPath id="m" clipPathUnits="userSpaceOnUse"><path d="M0 50.4v-51h246.84v51"/></clipPath><clipPath id="l" clipPathUnits="userSpaceOnUse"><path d="M0 50.4v-51h246.84v51"/></clipPath><clipPath id="k" clipPathUnits="userSpaceOnUse"><path d="M0 50.4v-51h246.84v51"/></clipPath><clipPath id="j" clipPathUnits="userSpaceOnUse"><path d="M0 50.4v-51h246.84v51"/></clipPath><clipPath id="i" clipPathUnits="userSpaceOnUse"><path d="M0 50.4v-51h246.84v51"/></clipPath><clipPath id="h" clipPathUnits="userSpaceOnUse"><path d="M0 50.4v-51h246.84v51"/></clipPath><clipPath id="g" clipPathUnits="userSpaceOnUse"><path d="M0 50.4v-51h246.84v51"/></clipPath><clipPath id="f" clipPathUnits="userSpaceOnUse"><path d="M0 50.4v-51h246.84v51"/></clipPath><clipPath id="e" clipPathUnits="userSpaceOnUse"><path d="M0 50.4v-51h246.84v51"/></clipPath><clipPath id="d" clipPathUnits="userSpaceOnUse"><path d="M0 50.4v-51h246.84v51"/></clipPath><clipPath id="c" clipPathUnits="userSpaceOnUse"><path d="M0 50.4v-51h246.84v51"/></clipPath><clipPath id="b" clipPathUnits="userSpaceOnUse"><path clip-rule="evenodd" d="M0 50.4v-51h246.84v51"/></clipPath></defs><g clip-path="url(#a)" transform="matrix(1.25 0 0 -1.25 -417.673 865.353)"><path d="M383.889 644.75c1.911-.34 3.962-.692 5.763-1.573 2.236-1.095 3.316-2.619 3.793-4.769.571-2.574.111-4.36-1.219-6.564-1.184-1.962-3.545-4.086-7.087-5.204-3.735-1.18-10.082-1.41-13.869.676-4.078 2.244-4.835 4.99-4.65 9.037.091 4.111 3.275 7.891 8.025 9.37 3.241-.405 6.041-.505 9.244-.973m.06 31.685c0-2.04.014-3.887.014-4.64 0-10.77-1.33-14.884-5.944-14.884-3.698 0-5.87 2.232-5.87 14.52 0 .524.004 3.048.004 4.608 0 13.451 1.981 16.348 5.95 16.348 4.326 0 5.846-2.863 5.846-15.952" fill="#ed1c24"/></g><g clip-path="url(#b)" transform="matrix(4.04716 0 0 -4.09429 0 206.352)"><path d="M0 50.55V.225h17.932v8.188H8.928V23.66h7.128v8.263H8.928v10.44h9.004v8.187z"/></g><g clip-path="url(#c)" transform="matrix(4.04716 0 0 -4.09429 0 206.352)"><path d="M19.282 38.457h8.103v-2.028c1.05 1.502 3.001 2.479 5.552 2.479 5.177 0 5.852-2.253 5.852-8.788V.225h-8.178v28.543c0 1.953-.375 2.253-1.425 2.253-1.126 0-1.801-.225-1.801-2.253V.225h-8.103z"/></g><g clip-path="url(#d)" transform="matrix(4.04716 0 0 -4.09429 0 206.352)"><path d="M40.065 38.457h2.175v9.314h8.028v-9.314h2.776v-7.661h-2.776v-20.13c0-2.404.676-2.78 2.401-2.78h.375V.227h-2.851c-5.552 0-7.953 2.253-7.953 8.562v22.008h-2.175z"/></g><g clip-path="url(#e)" transform="matrix(4.04716 0 0 -4.09429 0 206.352)"><path d="M63.998 0c7.503 0 8.929 3.756 9.079 11.793l-7.503.375c0-4.281-.6-4.882-1.876-4.882-1.275 0-1.875.826-1.875 4.281v4.582h11.329v11.117c0 8.262-2.176 11.642-9.154 11.642-7.127 0-9.903-2.704-9.903-11.718V11.567C54.095 3.53 56.346 0 63.998 0zm-2.175 27.266c0 3.304.6 4.056 1.95 4.056 1.426 0 1.876-.752 1.876-3.981v-4.207h-3.826z"/></g><g clip-path="url(#f)" transform="matrix(4.04716 0 0 -4.09429 0 206.352)"><path d="M75.027 38.457h8.103v-2.253c.901 1.352 2.326 2.178 3.302 2.253v-7.736c-2.176-.151-3.302-.676-3.302-6.009V.225h-8.103z"/></g><g clip-path="url(#g)" transform="matrix(4.04716 0 0 -4.09429 0 206.352)"><path d="M87.182 38.457h1.876v9.314h8.027v-9.314h2.852v-7.811h-2.852v-19.98c0-2.404.676-2.78 2.401-2.78h.451V.227H97.01c-5.552 0-7.952 2.253-7.952 8.562v21.858h-1.876z"/></g><g clip-path="url(#h)" transform="matrix(4.04716 0 0 -4.09429 0 206.352)"><path d="M106.54.15c3.53 0 4.8.45 5.55 1.953V.225h7.5v29.669c0 6.836-1.42 9.014-8.85 9.014-6.9 0-9.75-3.155-10.2-9.69l7.72-.826c.15 2.028.3 2.93 2.11 2.93 1.35 0 1.57-.526 1.57-2.78V27.19c-9.38-2.478-11.33-6.234-11.33-16.149 0-7.886.68-10.89 5.93-10.89zm3.38 6.91c-1.36 0-1.58 1.202-1.58 4.582 0 5.634.82 6.76 3.6 7.812v-8.938c0-2.93-.45-3.455-2.02-3.455z"/></g><g clip-path="url(#i)" transform="matrix(4.04716 0 0 -4.09429 0 206.352)"><path d="M121.92 47.771h7.95v-8.112h-7.95zm0-9.314h7.95V.225h-7.95z"/></g><g clip-path="url(#j)" transform="matrix(4.04716 0 0 -4.09429 0 206.352)"><path d="M132.35 38.457h8.1v-2.028c1.05 1.502 3 2.479 5.55 2.479 5.18 0 5.78-2.253 5.78-8.788V.225h-8.1v28.543c0 1.953-.38 2.253-1.43 2.253-1.12 0-1.8-.225-1.8-2.253V.225h-8.1z"/></g><g clip-path="url(#k)" transform="matrix(4.04716 0 0 -4.09429 0 206.352)"><path d="M176.16 28.768c0 1.953-.3 2.253-1.35 2.253-1.35 0-1.65-.526-1.65-2.253V.225h-8.02v28.543c0 1.953-.3 2.253-1.36 2.253-1.12 0-1.65-.225-1.65-2.253V.225h-8.02v38.232h8.02v-2.028c1.05 1.502 2.78 2.479 5.33 2.479 3.23 0 4.58-.901 5.18-3.23 1.12 1.803 2.77 3.23 5.7 3.23 5.18 0 5.85-1.953 5.85-8.788V.225h-8.03z"/></g><g clip-path="url(#l)" transform="matrix(4.04716 0 0 -4.09429 0 206.352)"><path d="M196.05 0c7.5 0 8.92 3.756 9.15 11.793l-7.58.375c0-4.281-.6-4.882-1.87-4.882-1.28 0-1.88.826-1.88 4.281v4.582h11.4v11.117c0 8.262-2.17 11.642-9.22 11.642-7.13 0-9.91-2.704-9.91-11.718V11.567C186.14 3.53 188.39 0 196.05 0zm-2.18 27.266c0 3.304.6 4.056 1.95 4.056 1.43 0 1.88-.752 1.88-3.981v-4.207h-3.83z"/></g><g clip-path="url(#m)" transform="matrix(4.04716 0 0 -4.09429 0 206.352)"><path d="M207.08 38.457h8.17v-2.028c1.05 1.502 2.93 2.479 5.56 2.479 5.1 0 5.77-2.253 5.77-8.788V.225h-8.18v28.543c0 1.953-.37 2.253-1.42 2.253-1.13 0-1.73-.225-1.73-2.253V.225h-8.17z"/></g><g clip-path="url(#n)" transform="matrix(4.04716 0 0 -4.09429 0 206.352)"><path d="M227.86 38.457h2.17v9.314h8.03v-9.314h2.85v-7.661h-2.85v-20.13c0-2.404.68-2.78 2.4-2.78h.45V.227h-2.92c-5.56 0-7.96 2.253-7.96 8.562v22.008h-2.17z"/></g><g clip-path="url(#o)" transform="matrix(4.04716 0 0 -4.09429 0 206.352)"><path d="M220.81 10.891h1.35V4.056h2.17V2.854h-3.52zm12.83-5.032l-1.66 5.032h1.43l.9-3.305.98 3.305h1.27l-1.57-4.957v-3.08h-1.35zm-24.39 5.032h1.35V8.262l1.43 2.629h1.35l-1.5-2.629 1.65-5.408h-1.43l-1.2 3.906-.3-.526v-3.38h-1.35zm-10.28 0h3.68V9.689h-2.25V7.887h1.8V6.76h-1.8V4.056h2.25V2.854h-3.68zm-9.68 0h3.61V9.689h-2.26V7.887h1.88V6.76h-1.88V4.056h2.26V2.854h-3.61zm-12.45 0h1.35l.45-3.455.23-1.577.3 1.577.52 3.455h1.2l.6-3.455.23-1.577.22 1.577.45 3.455h1.35l-1.35-8.037h-1.35l-.75 5.108-.82-5.108h-1.35z" fill="#fefefe"/></g><g clip-path="url(#p)" transform="matrix(4.04716 0 0 -4.09429 0 206.352)"><path d="M242.41 44.767c.08-.226.3-.526.45-.752.23-.15.53-.375.75-.45.3-.15.6-.15.98-.15.3 0 .6 0 .9.15.3.075.6.3.75.45.23.226.38.526.53.752.15.3.22.676.22.976 0 .376-.07.676-.22.977-.15.3-.3.525-.53.751-.15.225-.45.375-.75.45a2.07 2.07 0 01-1.88 0 2.077 2.077 0 01-.75-.45c-.15-.226-.37-.451-.45-.751a2.082 2.082 0 01-.22-.977c0-.3.07-.676.22-.976zm.45 1.727c.08.226.23.451.38.601.15.15.37.301.6.451.22.075.45.15.75.15s.52-.075.75-.15c.22-.15.45-.301.6-.451.15-.15.3-.375.37-.601.08-.225.16-.45.16-.751 0-.225-.08-.526-.16-.751a1.565 1.565 0 00-.37-.601c-.15-.15-.38-.3-.6-.376-.23-.15-.45-.15-.75-.15s-.53 0-.75.15c-.23.076-.45.226-.6.376-.15.15-.3.376-.38.601-.07.225-.15.526-.15.751 0 .301.08.526.15.751zm2.1-.901c.15 0 .3.075.38.225.15.075.22.226.22.451 0 .15-.07.225-.07.3-.08.151-.15.226-.23.226-.15.075-.22.15-.37.15-.08 0-.23.075-.38.075h-.82v-2.479h.52v.977h.23l.6-.977h.52l-.6.977zm-.37.976c.15 0 .3 0 .37-.075 0-.075.08-.15.08-.225 0-.15-.08-.225-.15-.301-.08-.075-.23-.075-.45-.075h-.23v.676z"/></g></svg>