<svg xmlns="http://www.w3.org/2000/svg" xmlns:xlink="http://www.w3.org/1999/xlink" version="1.1" id="Capa_1" x="0px" y="0px" style="enable-background:new 0 0 297 297;" xml:space="preserve" viewBox="0 0 297 297">
<path d="M293.925,279.079l-39.257-39.257c6.525-24.992,26.901-118.365-18.849-164.116C185.789,25.678,19.07,1.128,11.997,0.107  C8.716-0.361,5.414,0.734,3.074,3.074s-3.439,5.646-2.967,8.922c1.021,7.073,25.57,173.792,75.598,223.822  c19.253,19.253,48.907,29.014,88.137,29.014c32.859,0,63.316-6.886,75.973-10.17l39.264,39.264c2.05,2.049,4.736,3.074,7.423,3.074  c2.687,0,5.373-1.025,7.423-3.074C298.025,289.825,298.025,283.178,293.925,279.079z M163.843,243.837  c-33.459,0-58.119-7.693-73.291-22.866c-18.319-18.319-36.149-60.49-51.563-121.953c-7.737-30.85-13.044-59.495-15.824-75.854  c16.359,2.78,45.003,8.087,75.854,15.825c61.464,15.414,103.635,33.244,121.955,51.563c32.385,32.384,23.006,99.791,16.2,131.775  l-63.65-63.649v-39.23c0-5.797-4.7-10.497-10.497-10.497c-5.797,0-10.497,4.7-10.497,10.497v18.235L105.08,90.234  c-4.101-4.098-10.746-4.098-14.846,0c-4.1,4.1-4.1,10.746,0,14.846l11.132,11.132H83.129c-5.797,0-10.497,4.7-10.497,10.497  c0,5.797,4.7,10.497,10.497,10.497h39.232L174,188.845l-18.238,0c-5.797,0-10.497,4.7-10.497,10.497  c0,5.797,4.699,10.497,10.497,10.497l39.233,0.001l27.349,27.348C207.942,240.258,186.331,243.837,163.843,243.837z"/>
<g>
</g>
<g>
</g>
<g>
</g>
<g>
</g>
<g>
</g>
<g>
</g>
<g>
</g>
<g>
</g>
<g>
</g>
<g>
</g>
<g>
</g>
<g>
</g>
<g>
</g>
<g>
</g>
<g>
</g>
</svg>