<svg xmlns="http://www.w3.org/2000/svg" viewBox="0 0 178 56.17"><path d="M110.2283.0373c-5.9934.2995-11.4289 2.352-15.847 4.3101-1.2465.5526-3.3957 2.1683-4.5874 2.2179-1.404.06-3.9618-1.3557-5.8595-1.9027C75.54 2.2466 62.768-.8969 56.2278 4.188c-8.214-1.1914-15.7862.846-22.0065 2.6925C33.87 1.9657 29.2799-.9777 23.93.5462c-3.5791 1.0176-6.5155 3.038-10.1317 4.4355C6.7159 7.714-.4377 13.5336.0209 22.7123c.2174 4.3178 2.0963 7.8322 3.3266 10.9216 1.2836 3.223 2.628 5.794 4.7507 9.5014-.5838 1.0899-1.1032 1.7829-1.2683 3.0076-1.3757 10.2893 12.374 10.6273 19.633 7.5988 6.2613-2.6165 12.8233-7.2475 17.2597-10.6064-3.5593 15.2356 20.3707 15.9087 26.4382 8.233 8.532 6.375 26.9716 5.6678 36.0953.3152 8.4255 6.786 27.1153 4.201 38.4725 1.5835 5.8738-1.3538 11.0528-2.4446 14.8863-5.2216 3.9229-2.8481 6.3787-7.2095 7.4355-12.8241-.8052-2.1513-2.1806-3.7235-3.4823-5.385.6484-1.3633.8362-3.8373.4785-5.7 4.964-3.5544 9.0978-9.0911 12.8241-13.7735.4445-.561 1.294-1.2941 1.1013-2.0582-16.9832-2.646-33.3612-7.9245-53.0322-6.9647-1.2419.059-2.6478.4186-3.8013.3152-1.6947-.153-3.1547-.9948-4.7468-1.2646-2.1048-.3584-4.1656-.453-6.1634-.3532z"/><path d="M111.2695 6.2795c-7.682.1544-14.8646 3.9837-20.5254 7.0898-6.0361 3.3114-11.4245 7.201-15.203 11.082 1.366-2.3278 2.8175-4.6287 4.4355-6.8046 1.6405-2.2093 3.467-4.2077 4.9101-6.1758-3.1559-.8251-6.3205-1.6992-9.5039-2.377-4.5247-.9627-10.8163-2.5584-14.5644-.4746-1.0842.602-1.97 2.084-3.0079 2.2168-.8562.1118-2.2706-.5112-3.3261-.6289-3.8687-.4302-7.4263-.0746-10.9219.629-3.2742.656-10.1983 1.8217-11.084 4.9081-.5687 1.9813.6968 3.9.4746 5.8594-.2175 1.9283-2.068 4.4757-3.0078 6.0137-1.1505 1.8845-2.3206 3.5553-4.2754 4.4316-1.1848-5.8985.103-11.1394 1.1074-16.1426.6208-3.0825 1.8726-6.2374.795-9.3418-3.0181-.4197-5.5593 1.9698-8.5489 3.164-5.6155 2.2483-11.8703 4.2938-12.664 10.7657-.4472 3.6437.9205 5.9646 1.8984 8.5528 2.0953 5.5604 4.6838 10.2647 7.7578 14.5625-.8383 1.5398-2.8123 1.942-3.0117 4.1132.8934 1.2655 2.7577 1.4278 4.5957 1.4278 5.3127-.0116 9.6678-2.6868 13.6133-4.9102 8.592-4.8324 14.3631-12.2757 20.4238-19.3144 1.0643-1.2371 1.9409-2.7266 3.3262-3.4786 1.3613 6.2535-1.2864 9.594-3.17 14.7188-.7254 1.9747-3.0178 8.1551-1.9003 11.082 1.2217 3.2203 11.6446 3.3601 14.4082 1.2715 1.3919-1.051 1.9501-3.432 2.6972-4.9101.9533-1.9016 1.7766-3.5443 2.5293-5.2247.0428 6.9352 5.1957 8.972 10.7657 10.4493 11.8406 3.13 23.7768-2.4614 30.2343-6.3301-.8069 5.138 1.1939 5.652 5.2305 6.4902 10.4413 2.1551 20.9533-.331 29.4453-2.377 7.7851-1.874 14.0477-3.2007 15.2012-10.9257-1.2456-1.0776-4.362-.9442-6.4941-.6309-6.2775.919-12.3573 4.0938-20.7383 3.4824-1.5287-.112-4.83-.6448-5.0684-1.58-.3675-1.463 2.2482-2.486 4.4395-2.8516 6.2818-1.0633 15.3627.0109 20.418-1.9023 2.4303-.9161 5.3568-3.5614 5.0624-6.4903-.1927-1.9776-2.7713-3.0119-5.2207-3.162-6.9276-.4339-11.88 3.6074-19.1523 2.2128.9097-1.1498 1.0725-3.0391 2.2148-3.957 5.3165-.1111 10.4818.947 15.5137.6347 6.9969-.4377 10.9434-3.385 14.252-7.2832.3533-.4204 1.2416-.8738.9492-1.584-12.152-1.8482-28.7192-6.746-43.6992-4.9101-1.9392.2344-3.332 2.2591-4.6055 3.0566.002-.017.0177-.0228.0117-.0488.243-1.0813.7009-1.9414.793-3.164-2.6338-.9279-5.25-1.2845-7.8106-1.2325v-.002zm5.9121 7.7246c1.48 1.687 4.7194 1.6145 6.6465 2.8515-2.6012.6684-5.8769.665-8.2344 1.5801.5554-1.4514 1.0552-2.9583 1.588-4.4316zm-18.3691 5.8555c-.7785 3.5518-2.408 7.6186-3.3223 11.5566 5.0327.0711 10.3408-.9524 15.5157-1.2637.6997-.936 1.043-2.2264 1.4257-3.4824 1.0366 1.4696 1.768 4.2159.793 6.33-7.859-.1091-13.5097 6.324-21.2168 6.334-3.4529.0039-6.3847-1.984-4.75-5.8593 2.3082-5.4684 8.0306-9.288 11.5547-13.6152z" fill="#fff"/></svg>